{
.appVersion = "3257";
.formatVersion = 3;
DisplayStrings = (
"AÁÂÄÀÅÃÆBCÇDÐEÉÊËÈFGHIÍÎÏÌJKLŁMNÑOÓÔÖÒØÕŒPÞQRSŠTUÚÛÜÙVWXYÝŸZŽȀȂȄȆȈȊȌȎȐȒȔȖȘȚ/A.alt/D.alt/N.alt/S.alt/A.alt2 aáâäàåãæbcçdðeéêëèfghiıíîïìjklłmnñoóôöòøõœpþqrsšßtuúûüùȁȃȅȇȉȋȍȏȑȓuȕȗșțvwxyýÿzžﬁﬂªº0123456789⁄½¼¾¹²³⁴ /CR/NULL/.notdef .,:;…!¡?¿·•*#///backslash -–—_(){}[]‚„“”‘’«»‹›\"'ƒ@&¶§©®™°|¦†‡€¢¤$£¥+−×÷=≠><±~¬^∫µ%‰̏̑¨˙`´˝ˆˇ˘˚˜¸"
);
customParameters = (
{
name = "Use Typo Metrics";
value = 1;
},
{
name = fsType;
value = (
);
}
);
date = "2024-04-18 12:32:25 +0000";
familyName = Damion;
featurePrefixes = (
{
automatic = 1;
code = "languagesystem DFLT dflt;

languagesystem latn dflt;
";
name = Languagesystems;
}
);
features = (
{
automatic = 1;
code = "feature sups;
feature frac;
feature ordn;
";
tag = aalt;
},
{
code = " # Kerning\\012 # Latin\\012lookup kern0 {\\012    pos T a -131;\\012    pos T a -62;\\012    pos T c -46;\\012    pos T i -131;\\012    pos T o -31;\\012    pos T o -61;\\012    pos T o -186;\\012    pos T u -186;\\012    pos T y -139;\\012} kern0;\\012 script DFLT;\\012lookup kern0;";
tag = kern;
},
{
automatic = 1;
code = "lookup ccmp_latn_1 {
	lookupflag 0;
	sub fi by f i;
	sub fl by f l;
} ccmp_latn_1;

script latn;
lookup ccmp_latn_1;
";
tag = ccmp;
},
{
automatic = 1;
code = "sub one by onesuperior;
sub two by twosuperior;
sub three by threesuperior;
sub four by foursuperior;
";
tag = sups;
},
{
automatic = 1;
code = "sub one slash four by onequarter;
sub one slash two by onehalf;
sub three slash four by threequarters;
";
tag = frac;
},
{
automatic = 1;
code = "sub [zero one two three four five six seven eight nine] [A a]' by ordfeminine;
sub [zero one two three four five six seven eight nine] [O o]' by ordmasculine;
";
tag = ordn;
},
{
automatic = 1;
code = "lookupflag IgnoreMarks;
sub f i by fi;
sub f l by fl;
";
tag = liga;
}
);
fontMaster = (
{
customParameters = (
{
name = typoAscender;
value = 1535;
},
{
name = typoDescender;
value = -593;
},
{
name = typoLineGap;
value = 0;
},
{

glyphs = (
{
glyphname = A;
lastChange = "2024-04-18 12:44:07 +0000";
layers = (
{
layerId = "DC66AB0F-19FD-4F06-8C39-5D32AA939720";
shapes = (
{
closed = 1;
nodes = (
(1069.333,259.667,o),
(1060,224.333,o),
(1060,195,cs),
(1060,168.333,o),
(1065.333,147,o),
(1092,147,cs),
(1145.82,147,o),
(1235.668,210.041,o),
(1326,293.5,cs),
(1420.391,380.709,o),
(1511.695,478.619,o),
(1576,559,c),
(1613,426,l),
(1525,308.667,o),
(1431.167,196.667,o),
(1334.5,114,cs),
(1237.833,31.333,o),
(1140,-22,o),
(1044,-22,cs),
(930.195,-22,o),
(890,58.153,o),
(890,147,cs),
(890,203.276,o),
(898,255.224,o),
(898,307,c),
(543,285,l),
(378,283,l),
(350,222.333,o),
(322.333,168.667,o),
(295,122,cs),
(245.636,39.727,o),
(188.05,-38,o),
(138,-38,cs),
(60.545,-38,o),
(39,13.395,o),
(39,56,cs),
(39,90.667,o),
(48.667,125.333,o),
(66,156,cs),
(198,378,ls),
(214.724,404.015,o),
(254,483.747,o),
(305.5,575.5,cs),
(363.5,678.833,o),
(440.833,808.833,o),
(529.5,937.5,cs),
(618.167,1066.167,o),
(718.833,1192.5,o),
(823.5,1286.5,cs),
(928.167,1380.5,o),
(1035.667,1442,o),
(1141,1442,cs),
(1239.667,1442,o),
(1336.333,1385,o),
(1423,1245,c),
(1427.667,1235.667,o),
(1430,1227.667,o),
(1430,1221,cs),
(1430,1185.508,o),
(1389.651,1150,o),
(1350,1150,cs),
(1326,1150,o),
(1292,1157.333,o),
(1264,1192,cs),
(1222.667,1240,o),
(1177,1261,o),
(1133,1261,cs),
(1009.853,1261,o),
(870.24,1111.692,o),
(745,932,cs),
(683.667,844,o),
(625.667,749,o),
(575,665,cs),
(526.599,584.756,o),
(482.569,508.854,o),
(450,460,c),
(633,460,l),
(942,483,l),
(959.445,521.766,o),
(994.225,603.966,o),
(1040,708,cs),
(1082.176,803.855,o),
(1125.335,901.267,o),
(1170,1000,c),
(1187.333,1050.667,o),
(1224.333,1070,o),
(1263,1070,cs),
(1303.974,1070,o),
(1347.372,1045.554,o),
(1350,993,cs),
(1350,956.227,o),
(1293.843,822.082,o),
(1234.5,685.5,cs),
(1172.693,543.247,o),
(1102.379,379.21,o),
(1076,285,cs)
);
}
);
width = 1323;
}
);
unicode = 65;
},
{
glyphname = AE;
lastChange = "2024-04-18 12:44:07 +0000";
layers = (
{
layerId = "DC66AB0F-19FD-4F06-8C39-5D32AA939720";
shapes = (
{
closed = 1;
nodes = (
(1817,825,ls),
(1893,825,o),
(1931,802,o),
(1931,774,cs),
(1931,721,o),
(1871,701,o),
(1803,688,cs),
(1768,681,o),
(1675,679,o),
(1536,679,c),
(1480,581,o),
(1428,488,o),
(1381,399,cs),
(1340,322,o),
(1323,268,o),
(1323,229,cs),
(1323,137,o),
(1415,128,o),
(1519,128,cs),
(1543,128,o),
(1566,129,o),
(1590,129,cs),
(2081,129,o),
(2099,509,o),
(2296,509,cs),
(2347,509,o),
(2374,486,o),
(2374,446,cs),
(2374,281,o),
(1975,-38,o),
(1555,-38,cs),
(1344,-38,o),
(1074,-8,o),
(1074,176,cs),
(1074,215,o),
(1086,259,o),
(1111,309,c),
(1086,309,o),
(1065,307,o),
(1060,307,cs),
(732,285,l),
(566,283,l),
(529,222,o),
(492,169,o),
(457,122,cs),
(395,41,o),
(324,-38,o),
(274,-38,cs),
(206,-38,o),
(188,1,o),
(188,37,cs),
(188,76,o),
(207,121,o),
(234,156,cs),
(403,378,ls),
(463,455,o),
(1106,1469,o),
(1527,1469,cs),
(1619,1469,o),
(1722,1422,o),
(1759,1268,c),
(1892,1418,o),
(2119,1504,o),
(2305,1504,cs),
(2531,1504,o),
(2684,1413,o),
(2684,1213,c),
(2682,1202,ls),
(2669,1134,o),
(2590,1058,o),
(2499,1058,cs),
(2458,1058,o),
(2447,1076,o),
(2447,1105,cs),
(2447,1137,o),
(2462,1184,o),
(2462,1228,cs),
(2462,1304,o),
(2378,1335,o),
(2267,1335,cs),
(2109,1335,o),
(1861,1238,o),
(1781,1099,cs),
(1621,825,l),
(1621,825,l)
);
},
{
closed = 1;
nodes = (
(1551,1105,o),
(1610,1188,o),
(1610,1214,cs),
(1610,1217,o),
(1610,1218,o),
(1609,1219,cs),
(1577,1268,o),
(1536,1288,o),
(1489,1288,cs),
(1239,1288,o),
(827,656,o),
(668,460,c),
(851,460,l),
(1164,483,l),
(1212,563,o),
(1371,820,o),
(1476,985,cs)
);
}
);
width = 2029;
}
);
unicode = 198;
},
{
glyphname = B;
lastChange = "2024-04-18 12:44:07 +0000";
layers = (
{
layerId = "DC66AB0F-19FD-4F06-8C39-5D32AA939720";
shapes = (
{
closed = 1;
nodes = (
(1108.525,1018.864,o),
(1233,1131.581,o),
(1233,1210,cs),
(1233,1243.005,o),
(1168.411,1283,o),
(1069,1283,cs),
(922.333,1283,o),
(796.667,1242.667,o),
(694,1192,cs),
(591.333,1141.333,o),
(512.333,1081.333,o),
(459,1040,cs),
(394.145,990.711,o),
(369.194,937,o),
(294,937,cs),
(238,937,o),
(205,965,o),
(205,1013,cs),
(205,1098.442,o),
(312.778,1205.918,o),
(474,1292.5,cs),
(634.081,1378.469,o),
(847.188,1442,o),
(1047,1442,cs),
(1323.341,1442,o),
(1448,1347.898,o),
(1448,1218,cs),
(1448,1154,o),
(1403.833,1083.333,o),
(1324.5,1014,cs),
(1245.167,944.667,o),
(1129.667,880,o),
(987,828,c),
(1128.333,781.333,o),
(1213.5,729.833,o),
(1263.5,674.5,cs),
(1313.5,619.167,o),
(1327,559.667,o),
(1327,497,cs),
(1327,364.031,o),
(1216.619,229.932,o),
(1023.5,124.5,cs),
(831.598,19.732,o),
(585.407,-40,o),
(347,-40,cs),
(231.378,-40,o),
(91,-17.491,o),
(91,75,cs),
(91,80.333,o),
(91.667,84.333,o),
(93,91,c),
(114.356,133.712,o),
(132.259,159,o),
(292,159,c),
(375.333,311.667,o),
(444.167,443.167,o),
(498.5,553.5,cs),
(552.833,663.833,o),
(598.333,754.667,o),
(635,826,cs),
(671.667,897.333,o),
(702.5,950,o),
(727.5,984,cs),
(752.5,1018,o),
(777,1035,o),
(801,1035,cs),
(844.635,1035,o),
(884,1006.948,o),
(884,968,c),
(873.333,954.667,o),
(874,941.333,o),
(874,924,c)
);
},
{
closed = 1;
nodes = (
(717.422,502.757,o),
(631.383,346.515,o),
(532,161,c),
(686.667,174.333,o),
(824.167,217,o),
(923.5,277,cs),
(1022.833,337,o),
(1083,413.333,o),
(1083,496,cs),
(1083,571.15,o),
(1022.355,666.976,o),
(819,733,c)
);
}
);
width = 1293;
}
);
unicode = 66;
},
{
glyphname = C;
lastChange = "2024-04-18 12:44:07 +0000";
layers = (
{
layerId = "DC66AB0F-19FD-4F06-8C39-5D32AA939720";
shapes = (
{
closed = 1;
nodes = (
(1364,1208.214,o),
(1337.936,1119.285,o),
(1292.5,1037.5,cs),
(1246.292,954.326,o),
(1179.55,892,o),
(1105,892,cs),
(1078.344,892,o),
(1017,898.436,o),
(1017,946,cs),
(1017,962,o),
(1024.333,983,o),
(1047,1011,cs),
(1093.969,1063.187,o),
(1164,1163.592,o),
(1164,1227,cs),
(1164,1265.667,o),
(1148,1291,o),
(1104,1291,cs),
(1046.667,1291,o),
(972.667,1251.333,o),
(894,1186,cs),
(815.333,1120.667,o),
(732,1030.833,o),
(656,931.5,cs),
(501.687,729.81,o),
(380,491.837,o),
(380,335,cs),
(380,237.667,o),
(428,174,o),
(548,174,cs),
(604,174,o),
(737.5,228.167,o),
(811.5,271.5,cs),
(848.5,293.167,o),
(885.833,317.167,o),
(923.5,343.5,cs),
(1044.873,428.353,o),
(1145.857,506.048,o),
(1193,527,c),
(1196.333,529.667,o),
(1200.333,531,o),
(1205,531,cs),
(1215,531,o),
(1221.833,522.833,o),
(1225.5,506.5,cs),
(1229.167,490.167,o),
(1231,471.667,o),
(1231,451,cs),
(1231,428.333,o),
(1230,395.667,o),
(1198,353,cs),
(1182.018,334.112,o),
(1108.18,251.544,o),
(979,158,cs),
(901.667,102,o),
(821.5,57.333,o),
(679.5,12,cs),
(608.5,-10.667,o),
(546.667,-22,o),
(494,-22,cs),
(245.994,-22,o),
(146,104.005,o),
(146,280,cs),
(146,389.333,o),
(181.167,517.667,o),
(240.5,647,cs),
(299.833,776.333,o),
(383.5,908.5,o),
(481.5,1026.5,cs),
(579.5,1144.5,o),
(692,1248.333,o),
(808,1323,cs),
(924,1397.667,o),
(1042.667,1443,o),
(1156,1443,cs),
(1269.377,1443,o),
(1364,1396.273,o),
(1364,1263,cs)
);
}
);
width = 1039;
}
);
unicode = 67;
},
{
glyphname = D;
lastChange = "2024-04-18 12:44:07 +0000";
layers = (
{
layerId = "DC66AB0F-19FD-4F06-8C39-5D32AA939720";
shapes = (
{
closed = 1;
nodes = (
(884.616,821.888,o),
(840.385,738.757,o),
(743.5,569.5,cs),
(655.312,415.437,o),
(561.327,266.355,o),
(476,150,c),
(686.274,171.417,o),
(885.221,297.062,o),
(1031.5,461.5,cs),
(1177.078,625.15,o),
(1264,817.55,o),
(1264,972,cs),
(1264,1150.361,o),
(1176.177,1278,o),
(990,1278,cs),
(816.853,1278,o),
(632.374,1208.426,o),
(537,1121,c),
(476.313,1054.245,o),
(454.194,1010.586,o),
(406.5,954,cs),
(367.167,907.333,o),
(324.333,875,o),
(263,875,cs),
(205.667,875,o),
(177,900.333,o),
(177,951,cs),
(177,1047.88,o),
(274.133,1168.918,o),
(426.5,1269.5,cs),
(579.334,1370.391,o),
(789.343,1443,o),
(1005,1443,cs),
(1348.556,1443,o),
(1509,1226.396,o),
(1509,950,cs),
(1509,671.049,o),
(1316.052,324.168,o),
(969.5,125,cs),
(795.5,25,o),
(583.333,-38,o),
(338,-38,cs),
(284.667,-38,o),
(252,0.667,o),
(252,50,cs),
(252,88.667,o),
(266.667,125.333,o),
(288,156,c),
(699,973,l),
(768.362,1080.63,o),
(844.083,1111,o),
(882,1111,cs),
(942,1111,o),
(965,1071,o),
(965,1023,cs),
(965,984.333,o),
(950.667,939.667,o),
(928,901,cs)
);
}
);
width = 1397;
}
);
unicode = 68;
},
{
glyphname = Eth;
lastChange = "2024-04-18 12:44:07 +0000";
layers = (
{
layerId = "DC66AB0F-19FD-4F06-8C39-5D32AA939720";
shapes = (
{
closed = 1;
nodes = (
(911,735,ls),
(933.667,735,o),
(948,712.333,o),
(948,687,cs),
(948,653.667,o),
(924.667,617,o),
(866,617,cs),
(718,617,l),
(627.821,458.503,o),
(527.123,289.356,o),
(424,150,c),
(634.274,171.417,o),
(833.221,297.062,o),
(979.5,461.5,cs),
(1125.078,625.15,o),
(1212,817.55,o),
(1212,972,cs),
(1212,1150.361,o),
(1124.177,1278,o),
(938,1278,cs),
(764.853,1278,o),
(580.374,1208.426,o),
(485,1121,c),
(424.313,1054.245,o),
(402.194,1010.586,o),
(354.5,954,cs),
(315.167,907.333,o),
(272.333,875,o),
(211,875,cs),
(153.667,875,o),
(125,900.333,o),
(125,951,cs),
(125,1047.88,o),
(222.133,1168.918,o),
(374.5,1269.5,cs),
(527.334,1370.391,o),
(737.343,1443,o),
(953,1443,cs),
(1296.556,1443,o),
(1457,1226.396,o),
(1457,950,cs),
(1457,671.049,o),
(1264.052,324.168,o),
(917.5,125,cs),
(743.5,25,o),
(531.333,-38,o),
(286,-38,cs),
(232.667,-38,o),
(200,0.667,o),
(200,50,cs),
(200,88.667,o),
(214.667,125.333,o),
(236,156,c),
(468,617,l),
(271,617,ls),
(248.333,617,o),
(237,635.333,o),
(237,658,cs),
(237,692.816,o),
(266.448,735,o),
(333,735,cs),
(527,735,l),
(647,973,l),
(716.362,1080.63,o),
(792.083,1111,o),
(830,1111,cs),
(890,1111,o),
(913,1071,o),
(913,1023,cs),
(913,984.333,o),
(898.667,939.667,o),
(876,901,cs),
(785,735,l),
(785,735,l)
);
}
);
width = 1216;
}
);
unicode = 208;
},
{
glyphname = E;
lastChange = "2024-04-18 12:44:07 +0000";
layers = (
{
layerId = "DC66AB0F-19FD-4F06-8C39-5D32AA939720";
shapes = (
{
closed = 1;
nodes = (
(1120.897,825,o),
(1162,802.093,o),
(1162,774,cs),
(1162,750.197,o),
(1131.585,727.739,o),
(1073,711,cs),
(1007.667,692.333,o),
(902.333,679,o),
(737,679,cs),
(560.773,679,o),
(369,578.888,o),
(369,399,cs),
(369,255.009,o),
(450.99,129,o),
(623,129,cs),
(797.667,129,o),
(908.5,152.167,o),
(986.5,183.5,cs),
(1025.5,199.167,o),
(1057.5,216,o),
(1082.5,234,cs),
(1133.591,270.785,o),
(1171.82,302.078,o),
(1219.5,323.5,cs),
(1242.5,333.833,o),
(1271.333,339,o),
(1306,339,cs),
(1362,339,o),
(1396,310.667,o),
(1396,260,cs),
(1396,207.524,o),
(1307.491,132.468,o),
(1169,72,cs),
(1025.859,9.502,o),
(826.305,-38,o),
(616,-38,cs),
(351.402,-38,o),
(138,103.327,o),
(138,387,cs),
(138,509.667,o),
(197.833,611,o),
(294.5,687,cs),
(391.167,763,o),
(523.667,813.333,o),
(669,832,c),
(557,916,o),
(517,996.333,o),
(517,1075,cs),
(517,1188.879,o),
(608.552,1282.29,o),
(743,1345.5,cs),
(868.519,1404.513,o),
(1038.641,1443,o),
(1209,1443,cs),
(1430.775,1443,o),
(1614.826,1350.508,o),
(1636,1152,c),
(1636,1093.133,o),
(1577.848,1027,o),
(1477,1027,cs),
(1418.59,1027,o),
(1415,1056.269,o),
(1415,1095,cs),
(1415,1218.589,o),
(1362.091,1274,o),
(1199,1274,cs),
(1101.667,1274,o),
(990,1252.833,o),
(902,1213.5,cs),
(814,1174.167,o),
(751,1119,o),
(751,1051,cs),
(751,890.08,o),
(909.971,825,o),
(1078,825,cs)
);
}
);
width = 1155;
}
);
unicode = 69;
},
{
glyphname = F;
lastChange = "2024-04-18 12:44:07 +0000";
layers = (
{
layerId = "DC66AB0F-19FD-4F06-8C39-5D32AA939720";
shapes = (
{
closed = 1;
nodes = (
(1150.495,749.864,o),
(1126.109,738,o),
(1067,738,c),
(941.667,748.667,o),
(855.333,754,o),
(786,754,cs),
(718,754,o),
(670.333,749.333,o),
(621,736,c),
(601,704,o),
(558.167,630.167,o),
(509.5,541.5,cs),
(460.833,452.833,o),
(407.667,348,o),
(365,256,cs),
(319,156,o),
(277.833,81.333,o),
(241.5,32,cs),
(205.167,-17.333,o),
(174.333,-42,o),
(149,-42,cs),
(87.667,-42,o),
(62,-19.667,o),
(62,23,cs),
(62,73.667,o),
(100.667,165.333,o),
(166,296,cs),
(200.691,365.382,o),
(246.489,450.48,o),
(292,535,cs),
(340.1,624.329,o),
(367.481,675.123,o),
(373,688,cs),
(381.071,709.523,o),
(377.701,696.803,o),
(381,710,c),
(363,710,ls),
(337.667,710,o),
(317.333,712,o),
(302,716,cs),
(286.667,720,o),
(279,728.667,o),
(279,742,cs),
(279,749.333,o),
(282,758.667,o),
(288,770,cs),
(341.426,869.219,o),
(421.717,869,o),
(462,869,c),
(498,942.333,o),
(534,1015.667,o),
(570,1089,cs),
(705.749,1357.836,o),
(839.847,1443,o),
(1096,1443,cs),
(1154.667,1443,o),
(1201.5,1441.333,o),
(1236.5,1438,cs),
(1271.5,1434.667,o),
(1296,1431.333,o),
(1310,1428,cs),
(1363.333,1413.333,o),
(1383,1374.667,o),
(1383,1332,cs),
(1383,1266.067,o),
(1332.267,1190,o),
(1281,1190,cs),
(1273.667,1190,o),
(1267.333,1191.333,o),
(1262,1194,cs),
(1200.524,1221.944,o),
(1179.353,1232,o),
(1091,1232,cs),
(1045.667,1232,o),
(986.333,1230,o),
(897,1226,c),
(827.258,1104.597,o),
(771.02,1006.606,o),
(703,890,c),
(801.312,924.542,o),
(941.041,946,o),
(1052,946,cs),
(1102.667,946,o),
(1139.167,942,o),
(1161.5,934,cs),
(1183.833,926,o),
(1195,909.667,o),
(1195,885,cs),
(1195,874.333,o),
(1196.667,852.667,o),
(1182,826,c)
);
}
);
width = 855;
}
);
unicode = 70;
},
{
glyphname = G;
lastChange = "2024-04-18 12:44:07 +0000";
layers = (
{
layerId = "DC66AB0F-19FD-4F06-8C39-5D32AA939720";
shapes = (
{
closed = 1;
nodes = (
(1233.81,421.012,o),
(1182.92,275.723,o),
(1136.5,146.5,cs),
(1071.641,-34.055,o),
(1041.555,-131.613,o),
(1037,-143,cs),
(1022.106,-190.661,o),
(973.312,-256,o),
(925,-256,cs),
(882.333,-256,o),
(864,-236,o),
(864,-172,cs),
(864,-167.333,o),
(864,-162.667,o),
(864,-158,cs),
(864,-153.333,o),
(864.333,-148.333,o),
(865,-143,cs),
(867.824,-97.814,o),
(956.23,134.155,o),
(996,238,c),
(860.479,110.15,o),
(660.122,-40,o),
(496,-40,cs),
(311,-40,o),
(227,111.758,o),
(227,255,cs),
(227,259.667,o),
(227,264,o),
(227,268,cs),
(227,272,o),
(227.333,276,o),
(228,280,cs),
(243.832,533.313,o),
(374.016,825.863,o),
(552.5,1054,cs),
(641.167,1167.333,o),
(742.667,1264.833,o),
(848,1333.5,cs),
(953.333,1402.167,o),
(1061.667,1443,o),
(1167,1443,cs),
(1288.333,1443,o),
(1403.333,1390.333,o),
(1502,1265,cs),
(1524.667,1237,o),
(1528,1207.333,o),
(1528,1182,cs),
(1528,1122,o),
(1488.667,1085,o),
(1442,1085,cs),
(1399.333,1085,o),
(1366.333,1124.333,o),
(1321,1195,cs),
(1278.333,1259,o),
(1227,1286,o),
(1167,1286,cs),
(1028.979,1286,o),
(853.269,1130.165,o),
(710.5,923.5,cs),
(565.844,714.103,o),
(464,475.378,o),
(464,308,cs),
(464,234.315,o),
(484.583,142,o),
(574,142,cs),
(647.095,142,o),
(755.383,209.323,o),
(857,295,cs),
(958.307,380.416,o),
(1047.312,477.55,o),
(1081,537,c),
(1174,772,l),
(1196.667,822.667,o),
(1236.333,842,o),
(1275,842,cs),
(1312.72,842,o),
(1352,821.748,o),
(1352,772,cs),
(1352,644.562,o),
(1292.648,551.473,o),
(1245,435,c)
);
}
);
width = 1336;
}
);
unicode = 71;
},
{
glyphname = H;
lastChange = "2024-04-18 12:44:07 +0000";
layers = (
{
layerId = "DC66AB0F-19FD-4F06-8C39-5D32AA939720";
shapes = (
{
closed = 1;
nodes = (
(1397.667,405,o),
(1394.833,404.833,o),
(1392.5,404.5,cs),
(1390.167,404.167,o),
(1387.667,404,o),
(1385,404,c),
(1319.667,257.333,o),
(1267.667,140.333,o),
(1241,91,cs),
(1197.093,10.935,o),
(1123.705,-32,o),
(1063,-32,cs),
(1021.667,-32,o),
(990,-12,o),
(990,28,cs),
(990,45.333,o),
(995.333,65.667,o),
(1006,89,cs),
(1150,394,l),
(1004.667,388.667,o),
(871,384.667,o),
(747,382,c),
(684.333,254,o),
(612,138,o),
(532,54,cs),
(452,-30,o),
(365.333,-82,o),
(272,-82,cs),
(236,-82,o),
(202.667,-72.667,o),
(172,-54,c),
(135.026,-38.154,o),
(78,38.806,o),
(78,113,cs),
(78,139.667,o),
(87.667,164.333,o),
(105,187,cs),
(118.546,202.804,o),
(146.748,251,o),
(189,251,cs),
(197,251,o),
(205.333,249.333,o),
(212,244,c),
(238.243,228.254,o),
(260.454,115,o),
(311,115,cs),
(347,115,o),
(383.5,143.833,o),
(421.5,192.5,cs),
(459.5,241.167,o),
(498.333,311,o),
(537,391,c),
(494.333,404.333,o),
(479,431.333,o),
(479,458,cs),
(479,490.853,o),
(533.715,525.528,o),
(598,528,c),
(665.986,694.189,o),
(741.144,925.02,o),
(785,1071.5,cs),
(836.333,1242.953,o),
(867.658,1357.08,o),
(875,1384,cs),
(885.667,1425.333,o),
(919.333,1443,o),
(954,1443,cs),
(1006,1443,o),
(1034,1414.333,o),
(1034,1325,cs),
(1034,1319.667,o),
(1034,1314.167,o),
(1034,1308.5,cs),
(1034,1302.833,o),
(1033.667,1296.667,o),
(1033,1290,cs),
(1028.963,1237.523,o),
(1006.482,1122.946,o),
(970,989.5,cs),
(932.724,853.148,o),
(881.626,691.893,o),
(814,530,c),
(925.673,530,o),
(1015.885,529.003,o),
(1206,524,cs),
(1206.667,524,o),
(1207.333,523.833,o),
(1208,523.5,cs),
(1208.667,523.167,o),
(1209.333,523,o),
(1210,523,c),
(1327.333,769.667,o),
(1434,994.167,o),
(1522,1157.5,cs),
(1598.225,1298.978,o),
(1674.09,1422,o),
(1723,1422,cs),
(1769.667,1422,o),
(1793,1398.333,o),
(1793,1361,cs),
(1793,1341,o),
(1788,1327.667,o),
(1780,1309,cs),
(1711.98,1144.182,o),
(1555.458,794.063,o),
(1432,513,c),
(1472,505,o),
(1501,491.667,o),
(1501,469,cs),
(1501,439.667,o),
(1473,409,o),
(1401,405,cs)
);
}
);
width = 1467;
}
);
unicode = 72;
},
{
glyphname = I;
lastChange = "2024-04-18 12:44:07 +0000";
layers = (
{
layerId = "DC66AB0F-19FD-4F06-8C39-5D32AA939720";
shapes = (
{
closed = 1;
nodes = (
(690,17.333,o),
(624,20,o),
(564,20,cs),
(494.505,20,o),
(403.882,15,o),
(325,15,cs),
(281,15,o),
(256,43.667,o),
(256,81,cs),
(256,88.333,o),
(257,96,o),
(259,104,cs),
(267.973,133.91,o),
(383.376,167.99,o),
(511,178,c),
(615.799,405.735,o),
(727.854,625.914,o),
(844,841,cs),
(956.757,1049.81,o),
(1044.18,1197.573,o),
(1091,1260,c),
(1057,1252.667,o),
(1024,1244.833,o),
(992,1236.5,cs),
(960,1228.167,o),
(924,1220,o),
(884,1212,c),
(876,1209.333,o),
(868,1208,o),
(860,1208,cs),
(821.333,1208,o),
(799,1239.333,o),
(799,1278,cs),
(799,1303.86,o),
(870.788,1344.97,o),
(985.5,1380.5,cs),
(1095.653,1414.618,o),
(1243.537,1443,o),
(1397,1443,cs),
(1443.667,1443,o),
(1480.167,1438.167,o),
(1506.5,1428.5,cs),
(1532.833,1418.833,o),
(1546,1402.333,o),
(1546,1379,cs),
(1546,1330.395,o),
(1486.373,1282,o),
(1422,1282,cs),
(1412.667,1282,o),
(1404,1282.5,o),
(1396,1283.5,cs),
(1388,1284.5,o),
(1379.333,1285,o),
(1370,1285,cs),
(1320.667,1285,o),
(1278.667,1282.667,o),
(1240,1280,c),
(1241.333,1273.333,o),
(1242,1268.333,o),
(1242,1265,cs),
(1242,1246.333,o),
(1233.667,1229.667,o),
(1227,1215,cs),
(1167.554,1090.355,o),
(1069.247,887.061,o),
(956.5,655,cs),
(835.661,406.283,o),
(767.153,270.305,o),
(720,176,c),
(856.235,163.836,o),
(975,134.497,o),
(975,74,cs),
(975,31.914,o),
(914.668,-6,o),
(862,-6,cs),
(846.667,-6,o),
(832.167,-4,o),
(818.5,0,cs),
(804.833,4,o),
(791.333,6.667,o),
(778,8,cs)
);
}
);
width = 1075;
}
);
unicode = 73;
},
{
glyphname = J;
lastChange = "2024-04-18 12:44:07 +0000";
layers = (
{
layerId = "DC66AB0F-19FD-4F06-8C39-5D32AA939720";
shapes = (
{
closed = 1;
nodes = (
(1264,636,l),
(1181.333,453.333,o),
(1084.5,283,o),
(974.5,159,cs),
(864.5,35,o),
(744,-43,o),
(616,-43,cs),
(541.333,-43,o),
(465.833,-19.833,o),
(386.5,31.5,cs),
(307.167,82.833,o),
(226.667,162.333,o),
(144,277,c),
(124,299.667,o),
(117,321.333,o),
(117,348,cs),
(117,387.998,o),
(168.994,477,o),
(257,477,cs),
(283.667,477,o),
(306.333,468.667,o),
(325,446,c),
(431.667,232.667,o),
(536.333,138,o),
(639,138,cs),
(713.667,138,o),
(787.667,187.833,o),
(861,280.5,cs),
(934.333,373.167,o),
(1008.333,507.667,o),
(1083,677,c),
(1370,1272,l),
(1298.667,1272.667,o),
(1239.833,1273,o),
(1193.5,1273,cs),
(1147.167,1273,o),
(1115.333,1273,o),
(1098,1273,cs),
(1050.904,1273,o),
(1018,1320.216,o),
(1018,1357,cs),
(1018,1394.333,o),
(1046,1420,o),
(1110,1420,cs),
(1116,1420,o),
(1122.167,1419.833,o),
(1128.5,1419.5,cs),
(1134.833,1419.167,o),
(1141,1419,o),
(1147,1419,cs),
(1340.259,1419,o),
(1547.322,1444,o),
(1736,1444,cs),
(1868.693,1444,o),
(1924,1431,o),
(1924,1392,cs),
(1924,1340.22,o),
(1878.669,1295,o),
(1728,1295,cs),
(1689.333,1295,o),
(1643.667,1291.667,o),
(1589,1285,c)
);
}
);
width = 1257;
}
);
unicode = 74;
},
{
glyphname = K;
lastChange = "2024-04-18 12:44:07 +0000";
layers = (
{
layerId = "DC66AB0F-19FD-4F06-8C39-5D32AA939720";
shapes = (
{
closed = 1;
nodes = (
(252.636,-38.844,o),
(197,35.738,o),
(197,108,cs),
(197,134.667,o),
(206.333,161,o),
(225,187,c),
(248.79,214.755,o),
(273.785,251,o),
(311,251,cs),
(319,251,o),
(327.333,249.333,o),
(334,244,c),
(358.72,229.168,o),
(380.959,115,o),
(430,115,cs),
(475.333,115,o),
(527,162.667,o),
(579,240,cs),
(631,317.333,o),
(685.167,423.667,o),
(736.5,541,cs),
(834.357,764.672,o),
(935.727,1062.605,o),
(987.5,1225.5,cs),
(1001.167,1268.5,o),
(1012.333,1304,o),
(1021,1332,cs),
(1029.667,1360,o),
(1035,1377.667,o),
(1037,1385,cs),
(1049,1426.333,o),
(1082.333,1444,o),
(1117,1444,cs),
(1167.667,1444,o),
(1195,1417.667,o),
(1195,1335,cs),
(1195,1321.667,o),
(1194.333,1307,o),
(1193,1291,cs),
(1189,1252.333,o),
(1175,1181.333,o),
(1151,1092,cs),
(1127,1002.667,o),
(1093.333,893.667,o),
(1052,779,c),
(1328.175,1014.617,o),
(1522.445,1170.38,o),
(1642,1256.5,cs),
(1746.508,1331.781,o),
(1812.81,1368,o),
(1844,1368,cs),
(1885.019,1368,o),
(1903,1317.437,o),
(1903,1300,cs),
(1903,1277.333,o),
(1891.667,1255.667,o),
(1869,1241,cs),
(1729.83,1143.581,o),
(1566.996,1013.677,o),
(1415,886,cs),
(1264.853,759.876,o),
(1135.758,649.573,o),
(1061,593,c),
(1129.483,501.258,o),
(1199.077,412.513,o),
(1258.5,333.5,cs),
(1319.167,252.833,o),
(1376.333,176.667,o),
(1427,98,cs),
(1444.333,71.333,o),
(1451,44.333,o),
(1451,23,cs),
(1451,-45.871,o),
(1381.349,-83,o),
(1347,-83,cs),
(1303,-83,o),
(1262,-48,o),
(1234,0,c),
(1180.676,70.525,o),
(1146.101,120.38,o),
(1111.5,177,cs),
(1073.637,238.957,o),
(1020.714,319.794,o),
(920,469,c),
(849.333,322.333,o),
(768.333,184.333,o),
(679,83,cs),
(589.667,-18.333,o),
(491.667,-82,o),
(389,-82,cs),
(353,-82,o),
(318.667,-72.667,o),
(288,-54,c)
);
}
);
width = 1596;
}
);
unicode = 75;
},
{
glyphname = L;
lastChange = "2024-04-18 12:44:07 +0000";
layers = (
{
layerId = "DC66AB0F-19FD-4F06-8C39-5D32AA939720";
shapes = (
{
closed = 1;
nodes = (
(326,167.641,o),
(419.761,131.327,o),
(571,129,c),
(502.065,165.766,o),
(404.152,228,o),
(362,228,cs),
(338,228,o),
(326,221.667,o),
(326,209,cs)
);
},
{
closed = 1;
nodes = (
(1255.462,1402.923,o),
(1331.44,1443,o),
(1392,1443,cs),
(1434.667,1443,o),
(1468,1420.667,o),
(1468,1378,cs),
(1468,1361.333,o),
(1463.667,1343.333,o),
(1455,1324,cs),
(1333.969,1064.649,o),
(1232.188,856.057,o),
(1110,621.5,cs),
(1000.362,411.035,o),
(894.944,230.63,o),
(822,136,c),
(938,144,o),
(1030.667,157.667,o),
(1120,175,cs),
(1207.184,191.916,o),
(1300.238,214.536,o),
(1400,235,c),
(1406.667,237.667,o),
(1415.333,239,o),
(1422,239,cs),
(1463.333,239,o),
(1489,200.333,o),
(1489,159,cs),
(1489,121.281,o),
(1379.061,75.091,o),
(1207.5,35.5,cs),
(1044.572,-2.099,o),
(825.474,-30,o),
(607,-30,cs),
(279.626,-30,o),
(136,65.869,o),
(136,194,cs),
(136,318.421,o),
(234.153,364,o),
(363,364,cs),
(463.891,364,o),
(594.678,283,o),
(667,208,c),
(697.667,288,o),
(742.333,388.833,o),
(793,497.5,cs),
(843.667,606.167,o),
(901,722.333,o),
(957,833,cs),
(1013,943.667,o),
(1067.667,1048.667,o),
(1113,1134,cs),
(1158.333,1219.333,o),
(1195,1287.333,o),
(1215,1322,c)
);
}
);
width = 1297;
}
);
unicode = 76;
},
{
glyphname = Lslash;
lastChange = "2024-04-18 12:44:07 +0000";
layers = (
{
layerId = "DC66AB0F-19FD-4F06-8C39-5D32AA939720";
shapes = (
{
closed = 1;
nodes = (
(196,167.641,o),
(289.761,131.327,o),
(441,129,c),
(372.065,165.766,o),
(274.152,228,o),
(232,228,cs),
(208,228,o),
(196,221.667,o),
(196,209,cs)
);
},
{
closed = 1;
nodes = (
(1125.462,1402.923,o),
(1201.44,1443,o),
(1262,1443,cs),
(1304.667,1443,o),
(1338,1420.667,o),
(1338,1378,cs),
(1338,1361.333,o),
(1333.667,1343.333,o),
(1325,1324,cs),
(1287.667,1244,o),
(1249.667,1163.333,o),
(1211,1082,cs),
(1182.333,1022,o),
(1153.667,963.333,o),
(1125,906,c),
(1160.333,915.333,o),
(1192.667,924,o),
(1222,932,cs),
(1256.667,941.333,o),
(1285.333,949,o),
(1308,955,cs),
(1310,955.667,o),
(1312.667,956,o),
(1316,956,cs),
(1340,956,o),
(1359,929.333,o),
(1359,900,cs),
(1359,872,o),
(1341.667,841,o),
(1295,829,cs),
(1271,822.333,o),
(1241.333,814.333,o),
(1206,805,cs),
(1170.667,795,o),
(1132.667,784.667,o),
(1092,774,cs),
(1079.333,770.667,o),
(1066.333,767.333,o),
(1053,764,c),
(1028.333,716,o),
(1004,668.667,o),
(980,622,cs),
(870.87,411.534,o),
(764.644,230.241,o),
(692,136,c),
(808,144,o),
(900.667,157.667,o),
(990,175,cs),
(1077.184,191.916,o),
(1170.238,214.536,o),
(1270,235,c),
(1276.667,237.667,o),
(1285.333,239,o),
(1292,239,cs),
(1333.333,239,o),
(1359,200.333,o),
(1359,159,cs),
(1359,121.281,o),
(1249.061,75.091,o),
(1077.5,35.5,cs),
(914.572,-2.099,o),
(695.474,-30,o),
(477,-30,cs),
(149.626,-30,o),
(6,65.869,o),
(6,194,cs),
(6,318.421,o),
(104.153,364,o),
(233,364,cs),
(333.891,364,o),
(464.678,283,o),
(537,208,c),
(567.667,288,o),
(612.333,388.667,o),
(663,498,cs),
(688.333,551.333,o),
(715,606.667,o),
(743,664,cs),
(748.333,674.667,o),
(751.333,681,o),
(752,683,c),
(742.667,680.333,o),
(733.667,678,o),
(725,676,cs),
(689.667,666.667,o),
(660,658.667,o),
(636,652,cs),
(634,651.333,o),
(630.667,651,o),
(626,651,cs),
(604.667,651,o),
(590,673.333,o),
(590,700,cs),
(590,730.667,o),
(609,767.333,o),
(665,782,cs),
(688.333,788,o),
(717.333,795.667,o),
(752,805,cs),
(774.667,811,o),
(798.333,817.333,o),
(823,824,c),
(824.333,826.667,o),
(825.667,829.667,o),
(827,833,cs),
(883,943.667,o),
(937.667,1048.667,o),
(983,1134,cs),
(1028.333,1219.333,o),
(1065,1287.333,o),
(1085,1322,c)
);
}
);
width = 1168;
}
);
unicode = 321;
},
{
glyphname = M;
lastChange = "2024-04-18 12:44:07 +0000";
layers = (
{
layerId = "DC66AB0F-19FD-4F06-8C39-5D32AA939720";
shapes = (
{
closed = 1;
nodes = (
(1506.788,279.201,o),
(1557.919,712.28,o),
(1596,989,c),
(1525.333,853,o),
(1451.167,711.833,o),
(1386.5,588.5,cs),
(1321.833,465.167,o),
(1265.333,361.333,o),
(1232,300,c),
(1171.934,219.041,o),
(1109.411,146,o),
(1053,146,cs),
(1015.667,146,o),
(992,162,o),
(992,194,cs),
(992,200.667,o),
(992.333,206.333,o),
(995,213,c),
(987,402.333,o),
(983,597.333,o),
(983,784,cs),
(983,806,o),
(983,828,o),
(983,850,cs),
(983,872,o),
(983.333,893.667,o),
(984,915,c),
(901.622,729.651,o),
(800.696,527.386,o),
(694,354.5,cs),
(587.249,181.525,o),
(474.428,42.762,o),
(379,3,cs),
(323,-19.667,o),
(283,-29,o),
(251,-29,cs),
(203,-29,o),
(180,-7,o),
(180,21,cs),
(180,54.333,o),
(209.333,95,o),
(260,115,cs),
(321.333,139,o),
(395.667,226.667,o),
(473,344,cs),
(550.333,461.333,o),
(630.5,611,o),
(704.5,759,cs),
(778.5,907,o),
(845.333,1054.333,o),
(896,1169,cs),
(951.21,1293.948,o),
(981.292,1366.014,o),
(989,1384,cs),
(1007.667,1425.333,o),
(1044.333,1443,o),
(1079,1443,cs),
(1127,1443,o),
(1143,1420.667,o),
(1143,1354,c),
(1153.667,1270,o),
(1160.667,1199.5,o),
(1166,1121.5,cs),
(1171.333,1043.5,o),
(1173,957.333,o),
(1173,840,cs),
(1173,798,o),
(1172.167,751.667,o),
(1170.5,701,cs),
(1168.833,650.333,o),
(1168,593.667,o),
(1168,531,c),
(1328,821.667,o),
(1450.167,1044.5,o),
(1541.5,1194.5,cs),
(1618.354,1320.72,o),
(1689.59,1422,o),
(1732,1422,cs),
(1739,1422,ls),
(1741,1422,o),
(1743,1422.167,o),
(1745,1422.5,cs),
(1747,1422.833,o),
(1749,1423,o),
(1751,1423,cs),
(1783,1423,o),
(1803,1379,o),
(1803,1315,c),
(1795.244,1219.991,o),
(1775.448,1053.709,o),
(1750,848,cs),
(1725.715,651.693,o),
(1700.025,453.263,o),
(1686,307,cs),
(1684.667,298.333,o),
(1684,289.5,o),
(1684,280.5,cs),
(1684,271.5,o),
(1684,262.333,o),
(1684,253,cs),
(1684,235.667,o),
(1684.333,218.167,o),
(1685,200.5,cs),
(1685.667,182.833,o),
(1686,165.333,o),
(1686,148,cs),
(1686,66.805,o),
(1680.28,-23,o),
(1544,-23,cs),
(1508,-23,o),
(1485,0.333,o),
(1485,71,c)
);
}
);
width = 1821;
}
);
unicode = 77;
},
{
glyphname = N;
lastChange = "2024-04-18 12:44:07 +0000";
layers = (
{
layerId = "DC66AB0F-19FD-4F06-8C39-5D32AA939720";
shapes = (
{
closed = 1;
nodes = (
(1096.765,1210.015,o),
(1128.378,1029.223,o),
(1159.5,845.5,cs),
(1187.229,681.809,o),
(1224.458,461.196,o),
(1250,342,c),
(1384.667,607.333,o),
(1511,849.833,o),
(1619,1038.5,cs),
(1727,1227.167,o),
(1816,1364.667,o),
(1880,1422,cs),
(1908,1448.667,o),
(1939.667,1458,o),
(1969,1458,cs),
(2011.667,1458,o),
(2046,1434.333,o),
(2046,1401,cs),
(2046,1381,o),
(2039.667,1370,o),
(2025,1354,cs),
(1969.935,1290.877,o),
(1924.818,1244.162,o),
(1877.5,1184.5,cs),
(1831.5,1126.5,o),
(1786.333,1058,o),
(1737,958,c),
(1643.971,786.413,o),
(1563.644,623.031,o),
(1479.5,446,cs),
(1404.777,288.79,o),
(1343.17,153.064,o),
(1308,91,c),
(1269.333,8.333,o),
(1214.333,-30.667,o),
(1173,-32,cs),
(1166,-32,ls),
(1112.558,-29.328,o),
(1059.651,5.78,o),
(1049,83,c),
(1017.169,208.334,o),
(996.635,329.726,o),
(974.5,463.5,cs),
(949.434,614.985,o),
(924.892,778.943,o),
(882,1009,c),
(822.522,810.741,o),
(724.592,545.403,o),
(602,313.5,cs),
(522,162.167,o),
(433.167,41.667,o),
(340.5,-29,cs),
(294.167,-64.333,o),
(247.667,-82,o),
(201,-82,cs),
(169.623,-82,o),
(108,-51.788,o),
(108,-2,cs),
(108,16.667,o),
(115.667,29.667,o),
(129,51,cs),
(163.521,106.764,o),
(297.982,134.354,o),
(400,234,cs),
(432,264.667,o),
(477.167,348.833,o),
(528.5,457.5,cs),
(579.833,566.167,o),
(636.667,701,o),
(690,833,cs),
(743.333,965,o),
(792.5,1095.833,o),
(830.5,1196.5,cs),
(872.206,1306.985,o),
(893.877,1369.913,o),
(899,1384,cs),
(912.333,1424,o),
(945.333,1441.667,o),
(980,1443,cs),
(979.333,1443,o),
(978.667,1442.667,o),
(978,1442,c),
(980,1442,o),
(982.167,1442.167,o),
(984.5,1442.5,cs),
(986.833,1442.833,o),
(989,1443,o),
(991,1443,cs),
(1020.333,1443,o),
(1053,1417.667,o),
(1065,1347,c)
);
}
);
width = 1527;
}
);
unicode = 78;
},
{
glyphname = O;
lastChange = "2024-04-18 12:44:07 +0000";
layers = (
{
layerId = "DC66AB0F-19FD-4F06-8C39-5D32AA939720";
shapes = (
{
closed = 1;
nodes = (
(235,745.472,o),
(372.123,995.66,o),
(565.5,1170,cs),
(759.138,1344.575,o),
(993.345,1443,o),
(1188,1443,cs),
(1423.364,1443,o),
(1613.583,1336.502,o),
(1651,1112,cs),
(1651.667,1108.667,o),
(1652,1105.667,o),
(1652,1103,cs),
(1652,1100.333,o),
(1652,1097.333,o),
(1652,1094,cs),
(1652,1042,o),
(1615.667,1014,o),
(1581,1014,cs),
(1542.333,1014,o),
(1509.667,1057,o),
(1479,1133,c),
(1429.667,1226.333,o),
(1331.333,1267,o),
(1214,1267,cs),
(1061.845,1267,o),
(879.353,1181.79,o),
(728,1037.5,cs),
(577.315,893.847,o),
(472,697.977,o),
(472,486,cs),
(472,367.333,o),
(504,287.667,o),
(552,237,cs),
(600,186.333,o),
(662.667,165,o),
(724,165,cs),
(1000.186,165,o),
(1240,474.736,o),
(1240,976,cs),
(1240,988.667,o),
(1239.833,1001.167,o),
(1239.5,1013.5,cs),
(1239.167,1025.833,o),
(1239,1038.667,o),
(1239,1052,cs),
(1239,1118.667,o),
(1267.333,1149,o),
(1298,1149,cs),
(1400.926,1149,o),
(1425,1024.189,o),
(1425,896,cs),
(1425,630.398,o),
(1334.765,395.806,o),
(1193.5,232.5,cs),
(1052.182,69.132,o),
(868.63,-23,o),
(686,-23,cs),
(572.667,-23,o),
(460.167,7.167,o),
(375.5,82.5,cs),
(290.833,157.833,o),
(235,279,o),
(235,459,cs)
);
}
);
width = 1341;
}
);
unicode = 79;
},
{
glyphname = Oslash;
lastChange = "2024-04-18 12:44:07 +0000";
layers = (
{
layerId = "DC66AB0F-19FD-4F06-8C39-5D32AA939720";
shapes = (
{
closed = 1;
nodes = (
(396,214,l),
(438.667,179.333,o),
(491,165,o),
(543,165,cs),
(676.333,165,o),
(803.5,238.5,o),
(897.5,372.5,cs),
(991.5,506.5,o),
(1053.667,700.333,o),
(1059,943,c)
);
},
{
closed = 1;
nodes = (
(598.406,659.435,o),
(881.949,970.963,o),
(1135,1255,c),
(1103.667,1263,o),
(1069.667,1267,o),
(1033,1267,cs),
(880.845,1267,o),
(698.353,1181.79,o),
(547,1037.5,cs),
(396.315,893.847,o),
(291,697.977,o),
(291,486,cs),
(291,428.667,o),
(298,379.667,o),
(312,339,c)
);
},
{
closed = 1;
nodes = (
(54,745.472,o),
(191.123,995.66,o),
(384.5,1170,cs),
(578.138,1344.575,o),
(812.345,1443,o),
(1007,1443,cs),
(1099,1443,o),
(1186,1426.667,o),
(1258,1392,c),
(1353,1498,ls),
(1370.333,1517.333,o),
(1392.333,1527,o),
(1419,1527,cs),
(1463.843,1527,o),
(1510,1494.848,o),
(1510,1458,cs),
(1510,1450.667,o),
(1508.667,1444.333,o),
(1506,1439,cs),
(1503,1432,l),
(1383,1300,l),
(1426.55,1248.284,o),
(1471,1174.132,o),
(1471,1094,cs),
(1471,1042,o),
(1434.667,1014,o),
(1400,1014,cs),
(1361.333,1014,o),
(1328.667,1057,o),
(1298,1133,c),
(1290.667,1147,o),
(1281,1161,o),
(1269,1175,c),
(1203,1101,l),
(1233.667,1053,o),
(1244,976,o),
(1244,896,cs),
(1244,630.398,o),
(1153.765,395.806,o),
(1012.5,232.5,cs),
(871.182,69.132,o),
(687.63,-23,o),
(505,-23,cs),
(411.667,-23,o),
(320.333,-2,o),
(243,46,c),
(219.667,20,o),
(196.167,-5.833,o),
(172.5,-31.5,cs),
(148.833,-57.167,o),
(126,-82.667,o),
(104,-108,cs),
(86,-128.667,o),
(64.667,-139,o),
(40,-139,cs),
(-5.4,-139,o),
(-44,-105.307,o),
(-44,-75,cs),
(-44,-64.333,o),
(-40.667,-53.667,o),
(-34,-47,cs),
(-6,-15.667,o),
(22.167,15.833,o),
(50.5,47.5,cs),
(78.833,79.167,o),
(108,112,o),
(138,146,c),
(86,220.667,o),
(54,321.667,o),
(54,459,cs)
);
}
);
width = 1160;
}
);
unicode = 216;
},
{
glyphname = OE;
lastChange = "2024-04-18 12:44:07 +0000";
layers = (
{
layerId = "DC66AB0F-19FD-4F06-8C39-5D32AA939720";
shapes = (
{
closed = 1;
nodes = (
(436,246,o),
(675,150,o),
(926,150,c),
(1173,1267,l),
(866,1263,o),
(436,913,o),
(436,486,cs)
);
},
{
closed = 1;
nodes = (
(1508,825,ls),
(1584,825,o),
(1622,802,o),
(1622,774,cs),
(1622,721,o),
(1562,701,o),
(1494,688,cs),
(1458,681,o),
(1362,679,o),
(1217,679,c),
(1083,129,l),
(1607,129,o),
(1557,339,o),
(1766,339,cs),
(1822,339,o),
(1856,311,o),
(1856,260,cs),
(1856,156,o),
(1509,-38,o),
(977,-38,cs),
(532,-38,o),
(199,95,o),
(199,459,cs),
(199,1043,o),
(798,1443,o),
(1295,1443,cs),
(1623,1443,o),
(1838,1353,o),
(1867,1152,c),
(1867,1141,ls),
(1867,1089,o),
(1799,1027,o),
(1708,1027,cs),
(1652,1027,o),
(1646,1056,o),
(1646,1093,cs),
(1646,1124,ls),
(1646,1136,o),
(1647,1149,o),
(1644,1161,c),
(1636,1240,o),
(1505,1274,o),
(1350,1274,c),
(1259,825,l),
(1259,825,l)
);
}
);
width = 1581;
}
);
unicode = 338;
},
{
glyphname = P;
lastChange = "2024-04-18 12:44:07 +0000";
layers = (
{
layerId = "DC66AB0F-19FD-4F06-8C39-5D32AA939720";
shapes = (
{
closed = 1;
nodes = (
(727.021,457.467,o),
(681.324,326.095,o),
(613.5,186,cs),
(553.194,61.433,o),
(479.579,-38,o),
(408,-38,cs),
(327.457,-38,o),
(306,16.224,o),
(306,61,cs),
(306,93,o),
(317.333,128,o),
(332,156,cs),
(715,861,ls),
(775.811,968.028,o),
(825.669,984,o),
(864,984,cs),
(888,984,o),
(912,970,o),
(912,926,cs),
(912,904.667,o),
(906.333,875.333,o),
(895,838,cs),
(883.667,800.667,o),
(862.667,752.667,o),
(832,694,c),
(1044.627,710.356,o),
(1257,804.715,o),
(1257,984,cs),
(1257,1144.566,o),
(1151.049,1285,o),
(961,1285,cs),
(830.333,1285,o),
(738.833,1258,o),
(671.5,1218,cs),
(604.167,1178,o),
(561.167,1123.333,o),
(528.5,1070,cs),
(464.769,965.95,o),
(437.758,855,o),
(335,855,cs),
(269.667,855,o),
(239,889.667,o),
(239,951,cs),
(239,1012.333,o),
(273.667,1087.667,o),
(335,1161,cs),
(396.333,1234.333,o),
(484.667,1304,o),
(594,1356,cs),
(703.333,1408,o),
(833.333,1442,o),
(976,1442,cs),
(1243.159,1442,o),
(1488,1289.867,o),
(1488,985,cs),
(1488,845,o),
(1415.5,730.5,o),
(1301.5,652.5,cs),
(1187.5,574.5,o),
(1033.333,531,o),
(868,531,cs),
(833.333,531,o),
(797.667,531.667,o),
(763,537,c)
);
}
);
width = 1191;
}
);
unicode = 80;
},
{
glyphname = Thorn;
lastChange = "2024-04-18 12:44:07 +0000";
layers = (
{
layerId = "DC66AB0F-19FD-4F06-8C39-5D32AA939720";
shapes = (
{
closed = 1;
nodes = (
(1102,972.707,o),
(1047.039,1082.932,o),
(938,1132,c),
(891.333,1025.333,o),
(835.167,903.5,o),
(786.5,797.5,cs),
(737.833,691.5,o),
(695.667,604,o),
(677,568,c),
(889.627,584.356,o),
(1102,678.715,o),
(1102,858,cs)
);
},
{
closed = 1;
nodes = (
(570.547,328.209,o),
(535.36,223.011,o),
(484,123.5,cs),
(436.535,31.537,o),
(377.242,-38,o),
(304,-38,cs),
(223.457,-38,o),
(202,16.224,o),
(202,61,cs),
(202,93,o),
(213.333,128,o),
(228,156,cs),
(756,1157,l),
(523.38,1143.631,o),
(428.246,1036.852,o),
(367,933,cs),
(307.354,831.862,o),
(277.183,729,o),
(180,729,cs),
(114.667,729,o),
(84,763.667,o),
(84,825,cs),
(84,886.333,o),
(118.667,961.667,o),
(180,1035,cs),
(241.333,1108.333,o),
(329.667,1178,o),
(439,1230,cs),
(548.333,1282,o),
(678.333,1316,o),
(821,1316,cs),
(822.333,1316,o),
(824,1315.833,o),
(826,1315.5,cs),
(828,1315.167,o),
(830,1315,o),
(832,1315,cs),
(839,1315,l),
(842,1320,ls),
(902.811,1427.028,o),
(952.669,1443,o),
(991,1443,cs),
(1015,1443,o),
(1039,1429,o),
(1039,1385,cs),
(1039,1380.333,o),
(1035.833,1369.667,o),
(1029.5,1353,cs),
(1023.167,1336.333,o),
(1015,1315.333,o),
(1005,1290,c),
(1190.558,1234.333,o),
(1333,1093.346,o),
(1333,859,cs),
(1333,719,o),
(1260.5,604.5,o),
(1146.5,526.5,cs),
(1032.5,448.5,o),
(878.333,405,o),
(713,405,cs),
(678.333,405,o),
(642.667,405.667,o),
(608,411,c)
);
}
);
width = 1088;
}
);
unicode = 222;
},
{
glyphname = Q;
lastChange = "2024-04-18 12:44:07 +0000";
layers = (
{
layerId = "DC66AB0F-19FD-4F06-8C39-5D32AA939720";
shapes = (
{
closed = 1;
nodes = (
(210,745.472,o),
(347.123,995.66,o),
(540.5,1170,cs),
(734.138,1344.575,o),
(968.345,1443,o),
(1163,1443,cs),
(1398.364,1443,o),
(1588.583,1336.502,o),
(1626,1112,cs),
(1626.667,1108.667,o),
(1627,1105.667,o),
(1627,1103,cs),
(1627,1100.333,o),
(1627,1097.333,o),
(1627,1094,cs),
(1627,1042,o),
(1590.667,1014,o),
(1556,1014,cs),
(1517.333,1014,o),
(1484.667,1057,o),
(1454,1133,c),
(1404.667,1226.333,o),
(1306.333,1267,o),
(1189,1267,cs),
(1036.845,1267,o),
(854.353,1181.79,o),
(703,1037.5,cs),
(552.315,893.847,o),
(447,697.977,o),
(447,486,cs),
(447,367.333,o),
(479,287.667,o),
(527,237,cs),
(575,186.333,o),
(637.667,165,o),
(699,165,cs),
(704,165,l),
(700,179.667,o),
(698,195.667,o),
(698,209,cs),
(698,266.574,o),
(741.975,299,o),
(788,299,cs),
(829.333,299,o),
(871.667,273.333,o),
(889,220,c),
(1009,300,o),
(1091.333,401.667,o),
(1142,535,cs),
(1192.667,668.333,o),
(1214,834,o),
(1214,1042,cs),
(1214,1115.333,o),
(1251.667,1149,o),
(1293,1149,cs),
(1380.512,1149,o),
(1400,1021.723,o),
(1400,896,cs),
(1400,688,o),
(1346,504.667,o),
(1258,358,cs),
(1170,211.333,o),
(1049.333,99.667,o),
(916,37,c),
(938.667,-69.667,o),
(976.667,-140,o),
(1022,-184,cs),
(1067.333,-228,o),
(1119.333,-245,o),
(1174,-245,cs),
(1261.662,-245,o),
(1362.427,-202.573,o),
(1402,-163,c),
(1406,-161,o),
(1409.5,-159.167,o),
(1412.5,-157.5,cs),
(1415.5,-155.833,o),
(1419,-155,o),
(1423,-155,cs),
(1444.333,-155,o),
(1464,-177.333,o),
(1464,-208,cs),
(1464,-234.667,o),
(1450.667,-265,o),
(1416,-297,c),
(1338.667,-385,o),
(1248.667,-427,o),
(1158,-427,cs),
(992.424,-427,o),
(832.049,-287.093,o),
(747,-16,c),
(717.667,-20,o),
(690.333,-23,o),
(661,-23,cs),
(547.667,-23,o),
(435.167,7.167,o),
(350.5,82.5,cs),
(265.833,157.833,o),
(210,279,o),
(210,459,cs)
);
}
);
width = 1315;
}
);
unicode = 81;
},
{
glyphname = R;
lastChange = "2024-04-18 12:44:07 +0000";
layers = (
{
layerId = "DC66AB0F-19FD-4F06-8C39-5D32AA939720";
shapes = (
{
closed = 1;
nodes = (
(711,650.333,o),
(715.167,650,o),
(719.5,650,cs),
(723.833,650,o),
(728.333,650,o),
(733,650,cs),
(964.021,650,o),
(1158,869.124,o),
(1158,1050,cs),
(1158,1114,o),
(1135.5,1173.333,o),
(1085.5,1216,cs),
(1035.5,1258.667,o),
(958,1286,o),
(850,1286,cs),
(728.667,1286,o),
(643.833,1261,o),
(580.5,1225,cs),
(517.167,1189,o),
(475.833,1140.333,o),
(444.5,1091,cs),
(389.738,1004.78,o),
(353.403,896,o),
(255,896,cs),
(188.333,896,o),
(155,931.667,o),
(155,993,cs),
(155,1079.208,o),
(227.547,1190.642,o),
(352,1282.5,cs),
(478.461,1375.84,o),
(659.798,1443,o),
(862,1443,cs),
(1137.664,1443,o),
(1380,1303.258,o),
(1380,1028,cs),
(1380,891.89,o),
(1300.731,766.687,o),
(1185.5,673.5,cs),
(1072.29,581.947,o),
(927.309,516.397,o),
(797,494,c),
(820.085,373.443,o),
(910.423,156.068,o),
(1018,148,cs),
(1023.333,147.333,o),
(1028.333,147,o),
(1033,147,cs),
(1037.667,147,o),
(1042.333,147,o),
(1047,147,cs),
(1144.333,147,o),
(1221.333,185.333,o),
(1272,224,cs),
(1302,246,o),
(1328,271.667,o),
(1350,301,cs),
(1370.667,324.333,o),
(1391.667,336,o),
(1413,336,cs),
(1439.667,336,o),
(1461,316,o),
(1461,284,cs),
(1461,253.333,o),
(1443.667,211,o),
(1397,167,cs),
(1259.667,37.667,o),
(1126.333,-19,o),
(1009,-19,cs),
(913,-19,o),
(831.667,39.667,o),
(765,133,cs),
(698.333,226.333,o),
(643.667,355.333,o),
(601,494,c),
(569.878,423.112,o),
(535.777,307.32,o),
(477,166.5,cs),
(428.713,50.813,o),
(364.079,-38,o),
(290,-38,cs),
(206.385,-38,o),
(187,20.647,o),
(187,64,cs),
(187,94.667,o),
(195.333,128,o),
(210,156,cs),
(505,696,ls),
(555.667,786.667,o),
(607.833,874.667,o),
(656.5,940,cs),
(705.167,1005.333,o),
(749.333,1048,o),
(784,1048,cs),
(806.006,1048,o),
(839,1035.969,o),
(839,986,cs),
(839,960.667,o),
(823,913.667,o),
(799,855,cs),
(775,796.333,o),
(741.667,724.333,o),
(707,651,c)
);
}
);
width = 1219;
}
);
unicode = 82;
},
{
glyphname = S;
lastChange = "2024-04-18 12:44:07 +0000";
layers = (
{
layerId = "DC66AB0F-19FD-4F06-8C39-5D32AA939720";
shapes = (
{
closed = 1;
nodes = (
(573.667,557,o),
(591,520,o),
(591,480,cs),
(591,441.368,o),
(579.788,424.828,o),
(513,397,cs),
(438.333,365,o),
(393,317,o),
(393,273,cs),
(393,216.589,o),
(465.344,168,o),
(643,168,cs),
(826.437,168,o),
(984,261.888,o),
(984,391,cs),
(984,439,o),
(945.667,491,o),
(859,547,cs),
(782.333,597,o),
(724.167,637.333,o),
(684.5,668,cs),
(644.833,698.667,o),
(620.333,718,o),
(611,726,cs),
(511,814,o),
(462,892,o),
(462,980,cs),
(462,1099.671,o),
(554.555,1214.872,o),
(686.5,1302.5,cs),
(818.545,1390.194,o),
(977.718,1443,o),
(1105,1443,cs),
(1236.412,1443,o),
(1334,1385.223,o),
(1334,1248,cs),
(1334,1148,o),
(1277.333,1056.667,o),
(1160,978,cs),
(1134,960,o),
(1110,951,o),
(1088,951,cs),
(1042.667,951,o),
(1014,989,o),
(1014,1033,cs),
(1014,1070.333,o),
(1034.667,1110.333,o),
(1084,1137,cs),
(1122.667,1157,o),
(1158,1195,o),
(1158,1227,cs),
(1158,1257.667,o),
(1134.333,1264,o),
(1105,1264,cs),
(1021.843,1264,o),
(911.817,1232.17,o),
(818.5,1182,cs),
(720.093,1129.093,o),
(658,1062.741,o),
(658,1002,cs),
(658,945.321,o),
(706.599,902.565,o),
(794,839,cs),
(1028,666,ls),
(1143.434,581.348,o),
(1218,502.626,o),
(1218,407,cs),
(1218,194.669,o),
(986.927,-20,o),
(636,-20,cs),
(473.333,-20,o),
(361.333,7.833,o),
(288,52.5,cs),
(214.667,97.167,o),
(183,157,o),
(183,221,cs),
(183,287.667,o),
(218.5,358.667,o),
(280.5,420,cs),
(342.5,481.333,o),
(431,531.667,o),
(535,557,c)
);
}
);
width = 1196;
}
);
unicode = 83;
},
{
glyphname = T;
lastChange = "2024-04-18 12:44:07 +0000";
layers = (
{
layerId = "DC66AB0F-19FD-4F06-8C39-5D32AA939720";
shapes = (
{
closed = 1;
nodes = (
(488.538,-33.923,o),
(412.56,-74,o),
(352,-74,cs),
(309.333,-74,o),
(276,-51.667,o),
(276,-9,cs),
(276,5.667,o),
(278.333,23.667,o),
(289,45,cs),
(390.333,254.333,o),
(492.5,450,o),
(586.5,618,cs),
(633.5,702,o),
(678,778.5,o),
(720,847.5,cs),
(842.411,1048.604,o),
(941.325,1178,o),
(976,1178,cs),
(1022.667,1178,o),
(1045,1147,o),
(1045,1111,cs),
(1045,1096.333,o),
(1041.333,1081.667,o),
(1034,1067,cs),
(964.048,924.297,o),
(860.147,711.359,o),
(763,510.5,cs),
(674.374,327.261,o),
(562.283,103.165,o),
(529,47,c)
);
},
{
closed = 1;
nodes = (
(1698,1165.93,o),
(1621.362,1026,o),
(1511,1026,cs),
(1476.736,1026,o),
(1422,1035.123,o),
(1422,1081,cs),
(1422,1106.026,o),
(1479,1176.737,o),
(1479,1209,cs),
(1479,1231.667,o),
(1463,1248.167,o),
(1431,1258.5,cs),
(1399,1268.833,o),
(1345.333,1274,o),
(1270,1274,cs),
(1055.019,1266.39,o),
(891.059,1241.867,o),
(754,1203,cs),
(664.667,1177.667,o),
(579.167,1149.167,o),
(490.5,1116.5,cs),
(446.167,1100.167,o),
(399,1083.667,o),
(349,1067,cs),
(344.333,1065.667,o),
(339.833,1064.333,o),
(335.5,1063,cs),
(331.167,1061.667,o),
(327.333,1061,o),
(324,1061,cs),
(281.578,1061,o),
(252,1103.3,o),
(252,1145,cs),
(252,1196.258,o),
(378.052,1268.926,o),
(581,1333.5,cs),
(780.738,1397.053,o),
(1035.061,1443,o),
(1282,1443,cs),
(1567.339,1443,o),
(1695.333,1347.664,o),
(1698,1217,cs)
);
}
);
width = 1015;
}
);
unicode = 84;
},
{
glyphname = U;
lastChange = "2024-04-18 12:44:07 +0000";
layers = (
{
layerId = "DC66AB0F-19FD-4F06-8C39-5D32AA939720";
shapes = (
{
closed = 1;
nodes = (
(609.667,1424.333,o),
(655.667,1443,o),
(697,1443,cs),
(742.308,1443,o),
(783,1426.352,o),
(783,1369,cs),
(783,1334.333,o),
(769.333,1291,o),
(736,1227,cs),
(602.667,991,o),
(513.667,723.333,o),
(459,462,cs),
(453.667,428.667,o),
(453,398,o),
(453,370,cs),
(453,215.664,o),
(538.159,157,o),
(622,157,cs),
(772.667,157,o),
(915.833,269.5,o),
(1024.5,467.5,cs),
(1133.167,665.5,o),
(1206.333,947.667,o),
(1217,1289,cs),
(1219.685,1361.489,o),
(1267.509,1396,o),
(1320,1396,cs),
(1385,1396,o),
(1400,1292.319,o),
(1400,1184,cs),
(1400,948,o),
(1354,734.833,o),
(1278,555.5,cs),
(1240,465.833,o),
(1195.167,385.167,o),
(1143.5,313.5,cs),
(987.612,97.269,o),
(782.729,-26,o),
(585,-26,cs),
(420.749,-26,o),
(236,114.029,o),
(236,362,cs),
(236,384.667,o),
(237,409.667,o),
(241,435,cs),
(266.289,584.786,o),
(298.456,712.738,o),
(350,855,cs),
(402.68,1000.398,o),
(474.177,1153.353,o),
(575,1355,cs)
);
}
);
width = 1195;
}
);
unicode = 85;
},
{
glyphname = V;
lastChange = "2024-04-18 12:44:07 +0000";
layers = (
{
layerId = "DC66AB0F-19FD-4F06-8C39-5D32AA939720";
shapes = (
{
closed = 1;
nodes = (
(1258.333,1192.333,o),
(1233.167,1131.167,o),
(1196.5,1050.5,cs),
(1178.167,1010.167,o),
(1156.667,965.667,o),
(1132,917,cs),
(1065.337,785.477,o),
(968.032,605.341,o),
(876,454,cs),
(776,288.667,o),
(679.333,149,o),
(602,57,c),
(607.333,47,o),
(610,37,o),
(610,27,cs),
(610,-36.337,o),
(491.898,-69,o),
(386,-69,cs),
(343.333,-69,o),
(321,-47.667,o),
(321,-17,cs),
(321,20.333,o),
(341.667,44.333,o),
(367,55,c),
(359.099,110.307,o),
(345.949,185.033,o),
(325,334,cs),
(309.675,442.975,o),
(288.581,609.127,o),
(283,704,cs),
(276.333,800,o),
(272,885,o),
(272,961,cs),
(272,1033,o),
(276.333,1094.333,o),
(283,1141,cs),
(298.842,1236.052,o),
(387.837,1328,o),
(466,1328,cs),
(510,1328,o),
(526,1289.667,o),
(526,1223,cs),
(526,1180.333,o),
(518,1122,o),
(510,1074,cs),
(506,1048.667,o),
(502.667,1028,o),
(500,1012,cs),
(495,989,ls),
(491,965,o),
(490,932.333,o),
(490,891,cs),
(490,718.835,o),
(518.725,427.004,o),
(548,262,c),
(640,382,o),
(739,536.333,o),
(819,699,cs),
(853,766.333,o),
(886.5,835.333,o),
(919.5,906,cs),
(952.5,976.667,o),
(986,1045.667,o),
(1020,1113,cs),
(1081.333,1225.667,o),
(1137.333,1282,o),
(1188,1282,cs),
(1230.667,1282,o),
(1262,1271.667,o),
(1262,1233,cs),
(1262,1227,o),
(1261.667,1222.333,o),
(1261,1219,cs)
);
}
);
width = 968;
}
);
unicode = 86;
},
{
glyphname = W;
lastChange = "2024-04-18 12:44:07 +0000";
layers = (
{
layerId = "DC66AB0F-19FD-4F06-8C39-5D32AA939720";
shapes = (
{
closed = 1;
nodes = (
(1611,1012.333,o),
(1520.667,777.667,o),
(1372,487,cs),
(1208.532,154.705,o),
(1127.652,-16,o),
(984,-16,cs),
(934.667,-16,o),
(901.333,2.833,o),
(876,71.5,cs),
(850.667,140.167,o),
(834.333,258.667,o),
(821,460,c),
(598,133,ls),
(519.396,17.715,o),
(464.077,-25,o),
(380,-25,cs),
(322.667,-25,o),
(280,9,o),
(280,73,cs),
(280,262.002,o),
(279.302,520.694,o),
(322,937,c),
(298.667,909.667,o),
(279,890,o),
(263,878,cs),
(247,866,o),
(234,860,o),
(224,860,cs),
(206.667,860,o),
(199,875.667,o),
(199,901,cs),
(199,945,o),
(222.333,1016.667,o),
(265,1094,cs),
(307.667,1171.333,o),
(371.333,1252,o),
(454,1312,cs),
(462,1317.333,o),
(471,1320,o),
(481,1320,cs),
(527.933,1320,o),
(572,1245.296,o),
(572,1175,cs),
(572,1159,o),
(571,1145.667,o),
(569,1135,cs),
(563.624,1111.344,o),
(555.29,1080.393,o),
(550,1055,cs),
(543.333,1023,o),
(535.667,975.667,o),
(525,889,cs),
(501.505,696.344,o),
(493.823,406.105,o),
(485,212,c),
(542.674,282.782,o),
(652.231,458.501,o),
(711,554,cs),
(727.667,579.333,o),
(740.667,600,o),
(750,616,cs),
(764,641,l),
(788.667,703.667,o),
(813.667,765.333,o),
(839,826,cs),
(864.333,886.667,o),
(889.333,947,o),
(914,1007,cs),
(962,1124.333,o),
(1014.333,1191,o),
(1077,1191,cs),
(1127.667,1191,o),
(1161,1171,o),
(1161,1143,cs),
(1161,1052.046,o),
(1054.386,882.641,o),
(1024,739,c),
(1017.333,623,o),
(1013,547,o),
(1013,479,cs),
(1013,395,o),
(1012.333,299,o),
(1023,215,c),
(1102.571,330.378,o),
(1196.012,476.522,o),
(1276,627.5,cs),
(1356.697,779.816,o),
(1421.178,932.903,o),
(1447,1064,cs),
(1460,1139,l),
(1460,1141.667,o),
(1460.333,1144.333,o),
(1461,1147,cs),
(1461.667,1149.667,o),
(1462,1152.333,o),
(1462,1155,c),
(1477.632,1233.159,o),
(1494.689,1284,o),
(1566,1284,cs),
(1623.333,1284,o),
(1648,1276.333,o),
(1648,1235,cs),
(1648,1228.333,o),
(1647.5,1221.667,o),
(1646.5,1215,cs),
(1645.5,1208.333,o),
(1644.333,1200.333,o),
(1643,1191,cs)
);
}
);
width = 1372;
}
);
unicode = 87;
},
{
glyphname = X;
lastChange = "2024-04-18 12:44:07 +0000";
layers = (
{
layerId = "DC66AB0F-19FD-4F06-8C39-5D32AA939720";
shapes = (
{
closed = 1;
nodes = (
(1250.339,1419.339,o),
(1335.527,1457,o),
(1391,1457,cs),
(1421.667,1457,o),
(1433,1445.667,o),
(1433,1427,cs),
(1433,1370.245,o),
(1316.25,1237.167,o),
(1272,1188,cs),
(1090.667,985.333,o),
(931.333,808.333,o),
(786,655,c),
(827.353,507.568,o),
(866.473,397.376,o),
(906,310,cs),
(942.514,229.284,o),
(999.171,133.017,o),
(1060,27,cs),
(1063.333,21,o),
(1065,15,o),
(1065,9,cs),
(1065,-23.199,o),
(1012.319,-41,o),
(978,-41,cs),
(926,-41,o),
(877,-8.5,o),
(821,73.5,cs),
(765,155.5,o),
(703.667,287.333,o),
(625,486,c),
(478.333,332.667,o),
(367.5,222,o),
(281.5,142,cs),
(238.5,102,o),
(200.833,69.333,o),
(168.5,44,cs),
(79.116,-26.032,o),
(20.351,-53,o),
(-44,-53,cs),
(-74.667,-53,o),
(-102,-38.333,o),
(-102,7,cs),
(-102,91.755,o),
(25.675,135.095,o),
(61,161,cs),
(122.333,202.333,o),
(196.667,268,o),
(282,352,cs),
(367.333,436,o),
(462.333,537.333,o),
(565,652,c),
(501,840,o),
(462.667,984,o),
(432,1112,cs),
(422,1153.333,o),
(413,1190.167,o),
(405,1222.5,cs),
(397,1254.833,o),
(393,1280.667,o),
(393,1300,cs),
(393,1372.935,o),
(511.755,1497,o),
(583,1497,cs),
(603.667,1497,o),
(621.667,1486.167,o),
(637,1464.5,cs),
(652.333,1442.833,o),
(660,1405.333,o),
(660,1352,cs),
(660,1313.126,o),
(653.147,1316.294,o),
(638,1286,cs),
(637.333,1284,o),
(637,1279.667,o),
(637,1273,cs),
(637,1247.667,o),
(645.333,1199.667,o),
(662,1129,cs),
(678.667,1058.333,o),
(702,966.667,o),
(732,854,c),
(732,852.667,o),
(732.667,850,o),
(734,846,c),
(794,917,l),
(944.015,1069.647,o),
(1038.823,1228.698,o),
(1198,1367,c)
);
}
);
width = 1087;
}
);
unicode = 88;
},
{
glyphname = Y;
lastChange = "2024-04-18 12:44:07 +0000";
layers = (
{
layerId = "DC66AB0F-19FD-4F06-8C39-5D32AA939720";
shapes = (
{
closed = 1;
nodes = (
(638,665,l),
(558,758.333,o),
(489,869,o),
(461,997,c),
(438.333,1074.333,o),
(431,1140.667,o),
(431,1198,cs),
(431,1346.419,o),
(510.53,1444,o),
(609,1444,cs),
(657.667,1444,o),
(682,1418.333,o),
(682,1367,cs),
(682,1323.477,o),
(648,1245.044,o),
(648,1172,cs),
(648,1010.111,o),
(730.507,847.053,o),
(815,760,c),
(889,808,ls),
(967.667,858.667,o),
(1049.333,912.667,o),
(1112,974,c),
(1204.38,1083.858,o),
(1260.116,1192.466,o),
(1276,1256,cs),
(1299.964,1367.833,o),
(1311.586,1414,o),
(1450,1414,cs),
(1482,1414,o),
(1498,1391.333,o),
(1498,1346,cs),
(1498,1334.923,o),
(1492.617,1287.113,o),
(1470.5,1227,cs),
(1444.5,1156.333,o),
(1394.333,1058.333,o),
(1297,945,c),
(1166.996,820.528,o),
(1017.76,733.699,o),
(859,639,cs),
(815,613,l),
(613,231,ls),
(593.667,193.667,o),
(579.833,165.167,o),
(571.5,145.5,cs),
(563.167,125.833,o),
(558.333,112.333,o),
(557,105,c),
(557,-37.675,o),
(462.76,-99,o),
(398,-99,cs),
(348.667,-99,o),
(308,-69.333,o),
(308,-12,cs),
(308,32.945,o),
(307.537,23.099,o),
(374,164,c)
);
}
);
width = 969;
}
);
unicode = 89;
},
{
glyphname = Z;
lastChange = "2024-04-18 12:44:07 +0000";
layers = (
{
layerId = "DC66AB0F-19FD-4F06-8C39-5D32AA939720";
shapes = (
{
closed = 1;
nodes = (
(1506.667,1278,o),
(1518.667,1282,o),
(1532,1282,cs),
(1566.667,1282,o),
(1602,1252.667,o),
(1602,1214,cs),
(1602,1191.333,o),
(1589.333,1165,o),
(1556,1141,cs),
(1501.333,1101,o),
(1446.333,1049.667,o),
(1397,1003,c),
(1204.268,805.059,o),
(1000.671,545.005,o),
(790,297,c),
(884.348,274.654,o),
(984.837,179,o),
(1085,179,cs),
(1307.328,179,o),
(1415.505,346.15,o),
(1518,538,c),
(1535.333,562,o),
(1558.333,571,o),
(1581,571,cs),
(1629.544,571,o),
(1682,526.702,o),
(1682,497,cs),
(1682,494.333,o),
(1680.667,490.333,o),
(1678,485,c),
(1574.222,200.277,o),
(1335.259,-21,o),
(1055,-21,cs),
(1010.457,-21,o),
(962.028,13.806,o),
(905.5,50.5,cs),
(847.89,87.896,o),
(776.883,122,o),
(694,122,cs),
(647.002,122,o),
(573.966,100.576,o),
(546,81,cs),
(520,63,o),
(494,44.833,o),
(468,26.5,cs),
(442,8.167,o),
(416,-10,o),
(390,-28,cs),
(380.667,-34,o),
(371.667,-37,o),
(363,-37,cs),
(324.821,-37,o),
(291,10.585,o),
(291,51,cs),
(291,69.667,o),
(295.667,84.333,o),
(313,99,cs),
(337.667,119,o),
(362,139.167,o),
(386,159.5,cs),
(410,179.833,o),
(434.333,200.333,o),
(459,221,c),
(507.105,253.914,o),
(542.154,277.981,o),
(637,386,cs),
(685,440.667,o),
(749.5,516.5,o),
(839.5,626.5,cs),
(929.5,736.5,o),
(1045.667,879.333,o),
(1199,1070,c),
(1185.667,1068.667,o),
(1172.667,1067.333,o),
(1160,1066,cs),
(1147.333,1064.667,o),
(1134.333,1064,o),
(1121,1064,cs),
(996.128,1064,o),
(841.2,1137,o),
(714,1137,cs),
(628.839,1137,o),
(536.514,1035,o),
(482,1035,cs),
(458,1035,o),
(442,1051.667,o),
(442,1077,cs),
(442,1091.667,o),
(448,1113.333,o),
(464,1132,cs),
(541.331,1222.664,o),
(677.511,1303,o),
(797,1303,cs),
(809.667,1303,o),
(822,1302,o),
(834,1300,cs),
(1089.778,1264.246,o),
(1154.206,1216,o),
(1259,1216,cs),
(1384.653,1216,o),
(1438.398,1225.49,o),
(1496,1270,cs)
);
}
);
width = 1646;
}
);
unicode = 90;
},
{
glyphname = A.alt;
lastChange = "2024-04-18 12:44:07 +0000";
layers = (
{
layerId = "DC66AB0F-19FD-4F06-8C39-5D32AA939720";
shapes = (
{
closed = 1;
nodes = (
(501,-101.667,o),
(500,-92.333,o),
(498,-83,c),
(415.333,-125,o),
(352.5,-162.333,o),
(309.5,-195,cs),
(266.5,-227.667,o),
(245,-251.667,o),
(245,-267,cs),
(245,-296.333,o),
(266.333,-321,o),
(293,-321,cs),
(363.955,-321,o),
(501,-206.489,o),
(501,-111,cs)
);
},
{
closed = 1;
nodes = (
(1373,529,l),
(1176.055,334.753,o),
(968.586,180.224,o),
(657,11,c),
(657.667,5.667,o),
(658,0.5,o),
(658,-4.5,cs),
(658,-9.5,o),
(658,-14.667,o),
(658,-20,cs),
(658,-169.644,o),
(586.311,-277.202,o),
(503,-342,cs),
(401.779,-420.728,o),
(288.754,-445,o),
(218,-445,cs),
(132.667,-445,o),
(70,-413.333,o),
(70,-352,cs),
(70,-316,o),
(100.5,-268,o),
(161.5,-208,cs),
(222.5,-148,o),
(313,-80.667,o),
(433,-6,c),
(413.435,21.392,o),
(344.103,26.456,o),
(274.5,31.5,cs),
(213.068,35.952,o),
(145,40.569,o),
(145,67,cs),
(145,85.667,o),
(151.333,111.667,o),
(186,149,cs),
(223.523,189.934,o),
(376.859,304.721,o),
(457,382,c),
(631,529,l),
(596.85,529,o),
(553.954,536.271,o),
(457,541,c),
(380.546,527.818,o),
(312.388,424.985,o),
(218,307,cs),
(216,304.333,o),
(213.333,303,o),
(210,303,cs),
(192.58,303,o),
(171,346.995,o),
(171,389,cs),
(171,407.667,o),
(175.333,426.667,o),
(186,444,cs),
(316.174,645.903,o),
(416.119,702,o),
(637,702,cs),
(684.333,702,o),
(725.5,700.667,o),
(760.5,698,cs),
(795.5,695.333,o),
(830,694,o),
(864,694,c),
(889.333,686,o),
(892,657,o),
(892,633,cs),
(892,592.354,o),
(900.428,564.387,o),
(786,499,c),
(787,499,l),
(761,475,l),
(762,475,l),
(743.333,458.333,o),
(721.333,440.5,o),
(696,421.5,cs),
(670.667,402.5,o),
(639.667,378,o),
(603,348,cs),
(349,142,l),
(413.582,142,o),
(507.419,127.79,o),
(561,101,c),
(830.333,234.333,o),
(1063,402,o),
(1291,606,c),
(1372,548,l),
(1372,548,l)
);
}
);
width = 1005;
}
);
},
{
glyphname = D.alt;
lastChange = "2024-04-18 12:44:07 +0000";
layers = (
{
layerId = "DC66AB0F-19FD-4F06-8C39-5D32AA939720";
shapes = (
{
closed = 1;
nodes = (
(828.512,795.803,o),
(788.002,717.453,o),
(696,553.5,cs),
(612.568,404.82,o),
(524.523,262.58,o),
(443,150,c),
(645.331,169.644,o),
(837.707,288.357,o),
(973.5,441,cs),
(1111.124,595.701,o),
(1194,776.467,o),
(1194,925,cs),
(1194,1085.205,o),
(1106.313,1206,o),
(909,1206,cs),
(736.927,1206,o),
(549.886,1135.272,o),
(461,1049,c),
(359.553,934.547,o),
(320.609,803,o),
(196,803,cs),
(136,803,o),
(107,832,o),
(107,884,cs),
(107,980.729,o),
(200.792,1100.196,o),
(349.5,1200,cs),
(498.595,1300.064,o),
(705.295,1371,o),
(919,1371,cs),
(1096.333,1371,o),
(1226.5,1318.333,o),
(1312.5,1233,cs),
(1398.5,1147.667,o),
(1440,1028,o),
(1440,896,cs),
(1440,675.381,o),
(1321.095,442.142,o),
(1114.5,259.5,cs),
(913.495,81.8,o),
(616.953,-44,o),
(276,-44,cs),
(162.667,-44,o),
(56.333,-18.333,o),
(-21,19,cs),
(-98.333,56.333,o),
(-147,106.667,o),
(-147,156,cs),
(-147,201.281,o),
(-85.818,247,o),
(-22,247,cs),
(57.601,247,o),
(147.312,190.56,o),
(250,158,c),
(638,943,l),
(705.159,1050.934,o),
(778.261,1081,o),
(817,1081,cs),
(879.667,1081,o),
(903,1037.667,o),
(903,987,cs),
(903,949.667,o),
(891.333,908.333,o),
(870,871,cs)
);
}
);
width = 1216;
}
);
},
{
glyphname = N.alt;
lastChange = "2024-04-18 12:44:07 +0000";
layers = (
{
layerId = "DC66AB0F-19FD-4F06-8C39-5D32AA939720";
shapes = (
{
closed = 1;
nodes = (
(802.603,1060.98,o),
(882.275,748.293,o),
(947,484,cs),
(959,434,o),
(970.667,386.667,o),
(982,342,c),
(1010,414,o),
(1037.333,483.333,o),
(1064,550,cs),
(1176,832.667,o),
(1274.5,1056.5,o),
(1356.5,1206.5,cs),
(1397.5,1281.5,o),
(1434.333,1335.667,o),
(1467,1369,cs),
(1492.333,1395.667,o),
(1522.667,1405,o),
(1552,1405,cs),
(1597.333,1405,o),
(1637,1378.333,o),
(1637,1341,cs),
(1637,1327.667,o),
(1631.667,1314.333,o),
(1621,1301,cs),
(1551.258,1205.353,o),
(1455.311,1114.171,o),
(1381,905,c),
(1310.333,739.667,o),
(1245.333,566.667,o),
(1192,420,cs),
(1141.985,282.459,o),
(1098.85,157.356,o),
(1070,91,c),
(1042,8.333,o),
(991.333,-32,o),
(950,-32,cs),
(949.333,-32,o),
(948.833,-32,o),
(948.5,-32,cs),
(948.167,-32,o),
(947.667,-32,o),
(947,-32,cs),
(893.667,-32,o),
(834.667,3,o),
(812,83,cs),
(786.667,172.333,o),
(767.167,247.667,o),
(746.5,329,cs),
(736.167,369.667,o),
(725.5,412.333,o),
(714.5,457,cs),
(703.5,501.667,o),
(691.667,551.667,o),
(679,607,cs),
(666.333,662.333,o),
(652,724.333,o),
(636,793,cs),
(624.667,842.333,o),
(612.667,896.667,o),
(600,956,cs),
(600,955.333,o),
(599.667,954.333,o),
(599,953,c),
(563.194,754.079,o),
(500.563,503.437,o),
(409.5,285.5,cs),
(322.113,76.361,o),
(202.328,-82,o),
(63,-82,cs),
(25.667,-82,o),
(-8.667,-72.667,o),
(-40,-54,c),
(-79.457,-38.217,o),
(-145,46.537,o),
(-145,121,cs),
(-145,143,o),
(-137.667,165,o),
(-123,187,cs),
(-107.196,209.126,o),
(-83.107,251,o),
(-43,251,cs),
(-33.667,251,o),
(-25.667,248.667,o),
(-19,244,cs),
(7.665,228.001,o),
(38.329,115,o),
(89,115,cs),
(134.333,115,o),
(180.833,160.5,o),
(225.5,234.5,cs),
(270.167,308.5,o),
(313,410,o),
(353,522,cs),
(428.938,734.628,o),
(501.463,1019.624,o),
(537,1177,cs),
(546.333,1218.333,o),
(554,1252.5,o),
(560,1279.5,cs),
(566,1306.5,o),
(569.667,1323.667,o),
(571,1331,cs),
(580.333,1372.333,o),
(611.333,1390,o),
(646,1390,cs),
(649.333,1390,o),
(652.667,1390,o),
(656,1390,cs),
(685.333,1390,o),
(721,1364.667,o),
(741,1294,cs)
);
}
);
width = 1248;
}
);
},
{
glyphname = S.alt;
lastChange = "2024-04-18 12:44:07 +0000";
layers = (
{
layerId = "DC66AB0F-19FD-4F06-8C39-5D32AA939720";
shapes = (
{
closed = 1;
nodes = (
(443.667,557,o),
(461,520,o),
(461,480,cs),
(461,441.368,o),
(449.788,424.828,o),
(383,397,cs),
(308.333,365,o),
(263,317,o),
(263,273,cs),
(263,216.589,o),
(335.344,168,o),
(513,168,cs),
(709.165,168,o),
(874,262.618,o),
(874,391,cs),
(874,433.667,o),
(837,479,o),
(749,527,cs),
(673.667,569,o),
(615.667,602.667,o),
(575,628,cs),
(534.333,653.333,o),
(509.667,669.333,o),
(501,676,cs),
(383.667,766.667,o),
(332,856.667,o),
(332,950,cs),
(332,1060.385,o),
(423.71,1170.907,o),
(556.5,1252,cs),
(691.128,1334.216,o),
(846.456,1383,o),
(975,1383,cs),
(1106.412,1383,o),
(1204,1325.223,o),
(1204,1188,cs),
(1204,1086.667,o),
(1146,996.667,o),
(1030,918,cs),
(1002.667,900,o),
(978.667,891,o),
(958,891,cs),
(912.667,891,o),
(884,929,o),
(884,973,cs),
(884,1010.333,o),
(904.667,1050.333,o),
(954,1077,cs),
(992.667,1097,o),
(1028,1135,o),
(1028,1167,cs),
(1028,1197.667,o),
(1004.333,1204,o),
(975,1204,cs),
(890.94,1204,o),
(783.724,1176.052,o),
(688.5,1131,cs),
(596.224,1087.343,o),
(528,1027.83,o),
(528,972,cs),
(528,905.333,o),
(578.667,853,o),
(684,789,cs),
(918,646,l),
(1043.333,563.333,o),
(1108,483,o),
(1108,387,cs),
(1108,285.667,o),
(1048.333,184.167,o),
(943,107.5,cs),
(837.667,30.833,o),
(687.333,-20,o),
(506,-20,cs),
(343.333,-20,o),
(231.333,7.833,o),
(158,52.5,cs),
(84.667,97.167,o),
(53,157,o),
(53,221,cs),
(53,287.667,o),
(88.5,358.667,o),
(150.5,420,cs),
(212.5,481.333,o),
(301,531.667,o),
(405,557,c)
);
}
);
width = 1135;
}
);
},
{
glyphname = A.alt2;
lastChange = "2024-04-18 12:44:07 +0000";
layers = (
{
layerId = "DC66AB0F-19FD-4F06-8C39-5D32AA939720";
shapes = (
{
closed = 1;
nodes = (
(903.667,258.333,o),
(891,218.667,o),
(891,188,cs),
(891,164,o),
(898.333,147,o),
(921,147,cs),
(970.74,147,o),
(1056.931,210.323,o),
(1145,293.5,cs),
(1235.141,378.633,o),
(1317.429,470.786,o),
(1388,559,c),
(1418,426,l),
(1328.667,308.667,o),
(1235.5,196.667,o),
(1141.5,114,cs),
(1047.5,31.333,o),
(952.333,-22,o),
(863,-22,cs),
(752.06,-22,o),
(718,52.557,o),
(718,139,cs),
(718,159.667,o),
(718.333,179.333,o),
(719,198,c),
(713.667,193.333,o),
(708.333,188.333,o),
(703,183,cs),
(683,163,o),
(650,135.333,o),
(604,100,cs),
(498.336,18.72,o),
(382.731,-40,o),
(280,-40,cs),
(81.787,-40,o),
(-10,131.565,o),
(-10,280,cs),
(-10,361.333,o),
(21.5,470.333,o),
(75.5,589,cs),
(129.5,707.667,o),
(206.667,836.667,o),
(300,954,cs),
(393.333,1071.333,o),
(501.833,1179.333,o),
(618.5,1258,cs),
(735.167,1336.667,o),
(860,1385,o),
(984,1385,cs),
(1080,1385,o),
(1177.333,1355.333,o),
(1272,1286,cs),
(1301.333,1263.333,o),
(1314,1230.667,o),
(1314,1200,cs),
(1314,1159.106,o),
(1295.377,1127.829,o),
(1268.5,1113,cs),
(1238.392,1096.388,o),
(1194.094,1104.906,o),
(1152,1147,cs),
(1098.667,1197.667,o),
(1041,1219,o),
(977,1219,cs),
(815.706,1219,o),
(628.186,1074.425,o),
(476.5,881,cs),
(327.201,690.618,o),
(224,471.671,o),
(224,335,cs),
(224,259.19,o),
(245.705,142,o),
(346,142,cs),
(420.595,142,o),
(526.865,219.356,o),
(622,313.5,cs),
(686,376.833,o),
(741.333,439.333,o),
(784,494,cs),
(806,522,o),
(819.333,540,o),
(824,548,cs),
(824.667,549.333,o),
(826.333,552.667,o),
(829,558,cs),
(833.667,568,o),
(858,614.667,o),
(902,698,cs),
(929.333,750,o),
(964.667,815.667,o),
(1008,895,c),
(1026.667,945.667,o),
(1066.333,965,o),
(1105,965,cs),
(1149.292,965,o),
(1187,938.212,o),
(1187,888,cs),
(1187,850.553,o),
(1134.471,747.008,o),
(1075.5,631,cs),
(1014.76,511.511,o),
(945.262,374.196,o),
(913,285,cs)
);
}
);
width = 1142;
}
);
},
{
glyphname = a;
lastChange = "2024-04-18 12:44:07 +0000";
layers = (
{
layerId = "DC66AB0F-19FD-4F06-8C39-5D32AA939720";
shapes = (
{
closed = 1;
nodes = (
(376.3,546,o),
(257,408.342,o),
(257,274,cs),
(257,221.781,o),
(266.528,151,o),
(341,151,cs),
(384.16,151,o),
(454.684,214.115,o),
(515,287.5,cs),
(581.341,368.215,o),
(623,440.085,o),
(623,463,cs),
(623,513.692,o),
(545.892,546,o),
(500,546,cs)
);
},
{
closed = 1;
nodes = (
(1139.823,237.777,o),
(1093.921,186.637,o),
(994.5,105.5,cs),
(906.684,33.834,o),
(807.639,-25,o),
(733,-25,cs),
(640.332,-25,o),
(599,62.907,o),
(599,146,cs),
(599,174,o),
(602.667,202,o),
(612,226,c),
(530.038,114.954,o),
(397.318,-25,o),
(261,-25,cs),
(192.481,-25,o),
(62,26.283,o),
(62,175,cs),
(62,257.402,o),
(98.493,392.99,o),
(177.5,513,cs),
(257.888,635.108,o),
(384.088,727,o),
(548,727,cs),
(606.667,727,o),
(650.333,709.333,o),
(681,692,cs),
(698.333,681.333,o),
(713.667,669.667,o),
(727,657,c),
(738.333,663,o),
(750,668.667,o),
(762,674,cs),
(782,683.333,o),
(806,692,o),
(822,692,cs),
(872.667,692,o),
(908,658.333,o),
(908,625,cs),
(908,620.333,o),
(907.667,616.667,o),
(907,614,cs),
(897.114,576.434,o),
(869.599,507.635,o),
(841.5,427.5,cs),
(814.409,350.239,o),
(792,272.546,o),
(792,227,cs),
(792,187,o),
(804,158,o),
(836,158,cs),
(875.188,158,o),
(945.408,210.107,o),
(1015,271,cs),
(1052.333,304.333,o),
(1092,342.333,o),
(1134,385,c),
(1144.667,393.667,o),
(1155,398,o),
(1165,398,cs),
(1191.667,398,o),
(1212,367,o),
(1212,335,cs),
(1212,316.333,o),
(1205.667,300.667,o),
(1193,288,cs)
);
}
);
width = 984;
}
);
unicode = 97;
},
{
glyphname = ae;
lastChange = "2024-04-18 12:44:07 +0000";
layers = (
{
layerId = "DC66AB0F-19FD-4F06-8C39-5D32AA939720";
shapes = (
{
closed = 1;
nodes = (
(1167.667,590.667,o),
(1164.667,591,o),
(1162,591,cs),
(1159.333,591,o),
(1156.333,591,o),
(1153,591,cs),
(1079.535,591,o),
(1016.335,544.204,o),
(972.5,481,cs),
(927.345,415.893,o),
(901.458,356.616,o),
(888,314,c),
(975.423,358.96,o),
(1075.808,431.685,o),
(1123,460,cs),
(1153,478.667,o),
(1173.667,496.167,o),
(1185,512.5,cs),
(1196.333,528.833,o),
(1202,543,o),
(1202,555,cs),
(1202,575,o),
(1187,587.333,o),
(1171,590,cs)
);
},
{
closed = 1;
nodes = (
(459.3,546,o),
(340,408.342,o),
(340,274,cs),
(340,221.781,o),
(349.528,151,o),
(424,151,cs),
(469.751,151,o),
(540.925,217.288,o),
(604.5,296,cs),
(672.748,380.498,o),
(716,458.552,o),
(716,483,c),
(705.333,494.333,o),
(693.333,504.667,o),
(680,514,cs),
(657.333,530,o),
(624.333,546,o),
(583,546,cs)
);
},
{
closed = 1;
nodes = (
(1317.667,728,o),
(1372,671.667,o),
(1372,577,cs),
(1372,521,o),
(1346,458.833,o),
(1274,395.5,cs),
(1202,332.167,o),
(1084.333,265.667,o),
(903,199,c),
(909.667,160.333,o),
(945.667,137,o),
(1003,137,cs),
(1094.759,137,o),
(1206.888,180.944,o),
(1306,230.5,cs),
(1403.753,279.377,o),
(1481.887,328.728,o),
(1496,335,c),
(1508,343,o),
(1518,343,o),
(1526,343,cs),
(1557.752,343,o),
(1569,309.847,o),
(1569,294,cs),
(1569,282,o),
(1569.333,265.333,o),
(1552,244,c),
(1534.41,226.41,o),
(1437.14,155.91,o),
(1340.5,101.5,cs),
(1223.329,35.53,o),
(1071.297,-25,o),
(934,-25,cs),
(805.94,-25,o),
(718.683,77.902,o),
(705,212,c),
(617.825,103.692,o),
(484.159,-25,o),
(344,-25,cs),
(275.481,-25,o),
(145,26.283,o),
(145,175,cs),
(145,257.402,o),
(181.493,392.99,o),
(260.5,513,cs),
(340.888,635.108,o),
(467.088,727,o),
(631,727,cs),
(732.333,727,o),
(802.333,684,o),
(877,604,c),
(965,677.333,o),
(1075,728,o),
(1207,728,cs)
);
}
);
width = 1357;
}
);
unicode = 230;
},
{
glyphname = b;
lastChange = "2024-04-18 12:44:07 +0000";
layers = (
{
layerId = "DC66AB0F-19FD-4F06-8C39-5D32AA939720";
shapes = (
{
closed = 1;
nodes = (
(453.926,561,o),
(287,397.427,o),
(287,245,cs),
(287,200.449,o),
(300.509,150,o),
(378,150,cs),
(534.051,150,o),
(683,314.171,o),
(683,465,cs),
(683,505.113,o),
(673.212,561,o),
(607,561,cs)
);
},
{
closed = 1;
nodes = (
(577.667,22,o),
(452,-39,o),
(304,-39,cs),
(141.333,-39,o),
(84,61,o),
(84,181,cs),
(84,249,o),
(103,324,o),
(131,392,cs),
(154.266,446.841,o),
(169.807,486.729,o),
(179.5,511.5,cs),
(189.556,537.197,o),
(200.843,565.493,o),
(220,607,cs),
(512,1256,ls),
(528.426,1291.591,o),
(577.184,1323,o),
(624,1323,cs),
(685.333,1323,o),
(707,1295.667,o),
(707,1261,cs),
(707,1234.333,o),
(691,1200.667,o),
(675,1174,c),
(625.667,1079.333,o),
(579,983.167,o),
(535,885.5,cs),
(491,787.833,o),
(444.333,691.333,o),
(395,596,c),
(478.977,661.607,o),
(589.221,728,o),
(705,728,cs),
(786.165,728,o),
(886,664.44,o),
(886,547,cs),
(886,510.111,o),
(847.306,366.958,o),
(798,293,c),
(807.333,278.333,o),
(822.333,277,o),
(841,277,cs),
(961.07,277,o),
(1083.767,347.684,o),
(1150,388,c),
(1158,396.667,o),
(1166.667,401,o),
(1176,401,cs),
(1198.667,401,o),
(1218,379,o),
(1218,347,cs),
(1218,316.333,o),
(1207.333,288,o),
(1174,252,c),
(1056.554,181.532,o),
(932.261,121,o),
(797,121,cs),
(754.333,121,o),
(717.667,132.667,o),
(691,158,c)
);
}
);
width = 906;
}
);
unicode = 98;
},
{
glyphname = c;
lastChange = "2024-04-18 12:44:07 +0000";
layers = (
{
layerId = "DC66AB0F-19FD-4F06-8C39-5D32AA939720";
shapes = (
{
closed = 1;
nodes = (
(669,550.977,o),
(632.842,419,o),
(536,419,cs),
(509.333,419,o),
(505,426,o),
(505,446,cs),
(505,452,o),
(505.167,460.833,o),
(505.5,472.5,cs),
(505.833,484.167,o),
(506,495.333,o),
(506,506,cs),
(506,530,o),
(502.667,549,o),
(476,549,cs),
(432.662,549,o),
(370.288,499.137,o),
(312,422.5,cs),
(256.864,350.006,o),
(217,270.631,o),
(217,222,cs),
(217,175.333,o),
(252,147,o),
(308,147,cs),
(395.675,147,o),
(507.602,195.197,o),
(603,250,cs),
(695.122,302.921,o),
(772.684,357.842,o),
(787,365,cs),
(797.667,370.333,o),
(807.667,373,o),
(817,373,cs),
(849.569,373,o),
(860,341.018,o),
(860,324,cs),
(860,312,o),
(860.333,295.333,o),
(843,274,cs),
(823.859,251.031,o),
(734.925,178.835,o),
(639.5,115.5,cs),
(525.752,40.004,o),
(376.884,-25,o),
(249,-25,cs),
(112.931,-25,o),
(37,66.048,o),
(37,177,cs),
(37,267.46,o),
(102.66,401.598,o),
(203,520,cs),
(304.468,639.732,o),
(436.712,727,o),
(562,727,cs),
(622.84,727,o),
(669,701.151,o),
(669,635,cs)
);
}
);
width = 645;
}
);
unicode = 99;
},
{
glyphname = d;
lastChange = "2024-04-18 12:44:07 +0000";
layers = (
{
layerId = "DC66AB0F-19FD-4F06-8C39-5D32AA939720";
shapes = (
{
closed = 1;
nodes = (
(713.333,201.667,o),
(713,200,o),
(713,198,cs),
(713,196,o),
(712.667,194.333,o),
(712,193,c),
(712,169,o),
(723.333,136,o),
(750,136,cs),
(755.333,136,o),
(759.333,136.667,o),
(762,138,c),
(909.952,182.126,o),
(1084.831,348.798,o),
(1165,445,cs),
(1174.333,456.333,o),
(1184.667,462,o),
(1196,462,cs),
(1216,462,o),
(1234,442,o),
(1234,410,cs),
(1234,384.667,o),
(1221,349,o),
(1189,309,c),
(1031.948,135.976,o),
(853.891,-25,o),
(695,-25,cs),
(597.667,-25,o),
(538,30.333,o),
(538,141,cs),
(538,144.333,o),
(538,147.833,o),
(538,151.5,cs),
(538,155.167,o),
(538.333,158.667,o),
(539,162,c),
(478.248,51.062,o),
(338.845,-25,o),
(223,-25,cs),
(125.931,-25,o),
(54,25.247,o),
(54,155,cs),
(54,319.484,o),
(135.908,465.962,o),
(247.5,567.5,cs),
(359.318,669.244,o),
(490.897,727,o),
(589,727,cs),
(627,727,o),
(659.667,720.667,o),
(687,708,cs),
(700.333,701.333,o),
(712.667,692.333,o),
(724,681,c),
(726.667,687,o),
(729.333,692.667,o),
(732,698,cs),
(738.667,714,o),
(744.667,727.833,o),
(750,739.5,cs),
(755.333,751.167,o),
(759,759.667,o),
(761,765,cs),
(764.494,775.481,o),
(796.808,852.639,o),
(850.5,980,cs),
(900.018,1097.462,o),
(934.897,1188.69,o),
(937,1195,cs),
(955.381,1260.646,o),
(997.637,1323,o),
(1073,1323,cs),
(1123.667,1323,o),
(1161,1305.667,o),
(1161,1243,cs),
(1161,1195.218,o),
(1133.183,1136.153,o),
(1117,1093,c),
(989.436,837.873,o),
(808.823,436.212,o),
(714,203,cs)
);
},
{
closed = 1;
nodes = (
(644,592.667,o),
(602,584,o),
(558,568,cs),
(405.437,515.807,o),
(274.509,378.064,o),
(263,192,c),
(263,165.333,o),
(274.333,152,o),
(297,152,cs),
(378.22,152,o),
(452.701,206.355,o),
(514,284,cs),
(575.179,361.494,o),
(621.324,450.755,o),
(651,520,cs),
(654.333,527.333,o),
(659,537.667,o),
(665,551,cs),
(670.333,563.667,o),
(676.667,578,o),
(684,594,c)
);
}
);
width = 967;
}
);
unicode = 100;
},
{
glyphname = eth;
lastChange = "2024-04-18 12:44:07 +0000";
layers = (
{
layerId = "DC66AB0F-19FD-4F06-8C39-5D32AA939720";
shapes = (
{
closed = 1;
nodes = (
(778.333,345.333,o),
(795,422,o),
(799,508,c),
(739,580,o),
(652.667,626,o),
(574,626,cs),
(494.001,626,o),
(387,544.002,o),
(387,372,cs),
(387,254.679,o),
(449.98,146,o),
(553,146,cs),
(635.762,146,o),
(717.78,202.552,o),
(749,278,cs)
);
},
{
closed = 1;
nodes = (
(1044,1044,ls),
(1066.667,1044,o),
(1081,1021.333,o),
(1081,996,cs),
(1081,962.667,o),
(1057.667,926,o),
(999,926,cs),
(936,926,l),
(981.333,812.667,o),
(1000,702.333,o),
(1000,597,cs),
(1000,483.667,o),
(979,382,o),
(943,298,cs),
(863.596,112.725,o),
(680.564,-26,o),
(501,-26,cs),
(305.688,-26,o),
(182,110.615,o),
(182,299,cs),
(182,363,o),
(197.333,432.667,o),
(228,506,cs),
(310.076,699.275,o),
(449.59,776,o),
(575,776,cs),
(655,776,o),
(731.333,755.667,o),
(794,721,c),
(783.333,769,o),
(766.667,842,o),
(720,926,c),
(548,926,ls),
(525.333,926,o),
(514,944.333,o),
(514,967,cs),
(514,1001.816,o),
(543.448,1044,o),
(610,1044,cs),
(638,1044,l),
(614.93,1071.264,o),
(535,1136.171,o),
(535,1169,cs),
(535,1222.947,o),
(610.033,1282,o),
(664,1282,cs),
(674.667,1282,o),
(686.333,1282.667,o),
(693,1272,c),
(771.667,1200,o),
(831.333,1124,o),
(878,1044,c)
);
}
);
width = 981;
}
);
unicode = 240;
},
{
glyphname = e;
lastChange = "2024-04-18 12:44:07 +0000";
layers = (
{
layerId = "DC66AB0F-19FD-4F06-8C39-5D32AA939720";
shapes = (
{
closed = 1;
nodes = (
(514.667,590.667,o),
(511.667,591,o),
(509,591,cs),
(506.333,591,o),
(503.333,591,o),
(500,591,cs),
(426.535,591,o),
(363.335,544.204,o),
(319.5,481,cs),
(274.345,415.893,o),
(248.458,356.616,o),
(235,314,c),
(322.423,358.96,o),
(422.808,431.685,o),
(470,460,cs),
(500,478.667,o),
(520.667,496.167,o),
(532,512.5,cs),
(543.333,528.833,o),
(549,543,o),
(549,555,cs),
(549,575,o),
(534,587.333,o),
(518,590,cs)
);
},
{
closed = 1;
nodes = (
(664.667,728,o),
(719,671.667,o),
(719,577,cs),
(719,521,o),
(693,458.833,o),
(621,395.5,cs),
(549,332.167,o),
(431.333,265.667,o),
(250,199,c),
(256.667,160.333,o),
(292.667,137,o),
(350,137,cs),
(441.759,137,o),
(553.888,180.944,o),
(653,230.5,cs),
(750.753,279.377,o),
(828.887,328.728,o),
(843,335,c),
(855,343,o),
(865,343,o),
(873,343,cs),
(904.752,343,o),
(916,309.847,o),
(916,294,cs),
(916,282,o),
(916.333,265.333,o),
(899,244,c),
(881.41,226.41,o),
(784.14,155.91,o),
(687.5,101.5,cs),
(570.329,35.53,o),
(418.297,-25,o),
(281,-25,cs),
(121.284,-25,o),
(29,108.699,o),
(29,257,cs),
(29,343.431,o),
(80.855,457.878,o),
(173.5,556.5,cs),
(267.023,656.056,o),
(399.838,728,o),
(554,728,cs)
);
}
);
width = 704;
}
);
unicode = 101;
},
{
glyphname = f;
lastChange = "2024-04-18 12:44:07 +0000";
layers = (
{
layerId = "DC66AB0F-19FD-4F06-8C39-5D32AA939720";
shapes = (
{
closed = 1;
nodes = (
(668.518,563.135,o),
(552.784,563,o),
(432,563,c),
(387.238,475.197,o),
(299.874,292.534,o),
(234.5,153.5,cs),
(158.279,-8.604,o),
(97.819,-136.362,o),
(67,-198,cs),
(37.748,-259.163,o),
(-21.762,-303,o),
(-71,-303,cs),
(-103,-303,o),
(-133,-287.667,o),
(-133,-253,cs),
(-133,-235.667,o),
(-124.667,-212.667,o),
(-110,-182,cs),
(243,566,l),
(190,566,ls),
(116.667,566,o),
(95,592.333,o),
(95,623,cs),
(95,655,o),
(129,692,o),
(193,692,cs),
(311,692,l),
(501.219,1075.117,o),
(694.767,1171,o),
(854,1171,cs),
(928.89,1171,o),
(996,1111.467,o),
(996,993,cs),
(996,964.333,o),
(992,932.667,o),
(984,898,cs),
(976.198,861.591,o),
(932.202,848,o),
(911,848,cs),
(884.333,848,o),
(857,860.333,o),
(857,887,cs),
(857,895.667,o),
(857.5,903.667,o),
(858.5,911,cs),
(859.5,918.333,o),
(860,925.667,o),
(860,933,cs),
(860,989,o),
(837.667,1011,o),
(803,1011,cs),
(721.835,1011,o),
(569.245,855.788,o),
(501,692,c),
(734,692,ls),
(819.737,692,o),
(883,691.966,o),
(883,635,cs),
(883,602.209,o),
(861.137,572.899,o),
(795,568,cs)
);
}
);
width = 506;
}
);
unicode = 102;
},
{
glyphname = g;
lastChange = "2024-04-18 12:44:07 +0000";
layers = (
{
layerId = "DC66AB0F-19FD-4F06-8C39-5D32AA939720";
shapes = (
{
closed = 1;
nodes = (
(627.667,727,o),
(671.333,709.333,o),
(702,692,cs),
(719.333,681.333,o),
(734.667,669.667,o),
(748,657,c),
(757.333,663,o),
(767.333,668.667,o),
(778,674,cs),
(796.667,683.333,o),
(820.333,692,o),
(843,692,cs),
(901.667,692,o),
(935,664.333,o),
(935,631,cs),
(935,622.333,o),
(932.667,613.667,o),
(928,605,cs),
(694,162,l),
(713,179,l),
(870.333,271,o),
(968,320.667,o),
(1028,346,cs),
(1075.424,366.024,o),
(1106.104,374,o),
(1117,374,cs),
(1147.667,374,o),
(1165,347.667,o),
(1165,313,cs),
(1165,274.333,o),
(1143.333,228.333,o),
(1098,211,c),
(980.03,150.704,o),
(773.715,77.655,o),
(615,-56,c),
(421,-407,l),
(389,-483,o),
(364.333,-529,o),
(339,-557,cs),
(313.667,-585,o),
(288.667,-594,o),
(254,-594,cs),
(202,-594,o),
(170,-552.667,o),
(170,-502,cs),
(170,-448.667,o),
(196.5,-376.5,o),
(242.5,-294.5,cs),
(288.5,-212.5,o),
(355,-121.333,o),
(435,-28,c),
(559,130,l),
(456.396,35.496,o),
(359.17,0,o),
(298,0,cs),
(191.36,0,o),
(113,104.888,o),
(113,246,cs),
(113,392.667,o),
(175.833,513.167,o),
(264.5,596.5,cs),
(353.167,679.833,o),
(466.333,727,o),
(569,727,cs)
);
},
{
closed = 1;
nodes = (
(405.35,551,o),
(288,415.928,o),
(288,274,cs),
(288,228.558,o),
(297.16,168,o),
(372,168,cs),
(412.921,168,o),
(482.364,227.933,o),
(540,296.5,cs),
(598.374,365.945,o),
(644,435.658,o),
(644,463,cs),
(644,521.674,o),
(570.995,551,o),
(531,551,cs)
);
}
);
width = 944;
}
);
unicode = 103;
},
{
glyphname = h;
lastChange = "2024-04-18 12:44:07 +0000";
layers = (
{
layerId = "DC66AB0F-19FD-4F06-8C39-5D32AA939720";
shapes = (
{
closed = 1;
nodes = (
(73.876,295.862,o),
(181.369,501.02,o),
(233,607,cs),
(563,1256,ls),
(579.16,1291.013,o),
(633.465,1323,o),
(680,1323,cs),
(738.667,1323,o),
(758,1298,o),
(758,1266,cs),
(758,1236.667,o),
(740.667,1202,o),
(722,1174,c),
(611.908,986.344,o),
(507.238,760.063,o),
(389,563,c),
(465.068,636.351,o),
(554.439,727,o),
(696,727,cs),
(784.376,727,o),
(856,696.992,o),
(856,607,cs),
(856,520.666,o),
(813.159,451.914,o),
(762,389.5,cs),
(711.637,328.058,o),
(662.689,264.89,o),
(655,188,cs),
(655,186.667,o),
(654.833,185.333,o),
(654.5,184,cs),
(654.167,182.667,o),
(654,181.333,o),
(654,180,cs),
(654,153.333,o),
(674,150,o),
(702,150,cs),
(755.605,150,o),
(822.485,183.989,o),
(885.5,228,cs),
(949.023,272.366,o),
(1005.094,323.089,o),
(1039,355,cs),
(1051,365.667,o),
(1065,371,o),
(1077,371,cs),
(1101,371,o),
(1120,351.667,o),
(1120,321,cs),
(1120,293,o),
(1102.667,255,o),
(1056,219,c),
(912.486,93.752,o),
(749.935,-25,o),
(601,-25,cs),
(506.333,-25,o),
(444,16.667,o),
(444,110,cs),
(444,247.841,o),
(562.278,371.571,o),
(610,454,c),
(626,476.667,o),
(635,494.333,o),
(635,517,cs),
(635,537,o),
(624.667,551,o),
(602,551,cs),
(444.965,551,o),
(339.546,379.056,o),
(256,247,cs),
(229.243,204.953,o),
(200.837,140.687,o),
(165,78.5,cs),
(131.076,19.632,o),
(90.914,-25,o),
(48,-25,cs),
(1.333,-25,o),
(-25,5.667,o),
(-25,47,cs),
(-25,77.667,o),
(-15,108.667,o),
(9,158,cs)
);
}
);
width = 898;
}
);
unicode = 104;
},
{
glyphname = i;
lastChange = "2024-04-18 12:44:07 +0000";
layers = (
{
layerId = "DC66AB0F-19FD-4F06-8C39-5D32AA939720";
shapes = (
{
closed = 1;
nodes = (
(346,927.268,o),
(392.036,1003,o),
(483,1003,cs),
(560.333,1003,o),
(587,969.333,o),
(587,924,cs),
(587,872.562,o),
(549.564,794,o),
(461,794,cs),
(378.333,794,o),
(350,822.333,o),
(346,865,c)
);
},
{
closed = 1;
nodes = (
(258.667,677.333,o),
(289.333,692,o),
(320,692,cs),
(370.667,692,o),
(413,655.667,o),
(413,605,c),
(411.667,593,o),
(410.667,581,o),
(404,569,cs),
(375.044,515.225,o),
(355.014,471.229,o),
(333,425,cs),
(304.692,366.025,o),
(245,260.326,o),
(245,194,cs),
(245,158,o),
(263.667,150,o),
(297,150,cs),
(350.488,150,o),
(418.807,188.159,o),
(478,236.5,cs),
(538.743,286.107,o),
(594.715,343.458,o),
(621,375,c),
(634.333,387.667,o),
(647.667,394,o),
(661,394,cs),
(685,394,o),
(702,370.333,o),
(702,337,cs),
(702,306.333,o),
(687.667,269.667,o),
(653,239,c),
(520.9,104.31,o),
(367.943,-25,o),
(216,-25,cs),
(108,-25,o),
(42,28.667,o),
(42,146,cs),
(42,268.349,o),
(126.14,395.35,o),
(158,475,cs),
(164.667,492.333,o),
(183.333,532.667,o),
(202,570,cs),
(212.667,592,o),
(224,615.333,o),
(236,640,c)
);
}
);
width = 480;
}
);
unicode = 105;
},
{
glyphname = dotlessi;
lastChange = "2024-04-18 12:44:07 +0000";
layers = (
{
layerId = "DC66AB0F-19FD-4F06-8C39-5D32AA939720";
shapes = (
{
closed = 1;
nodes = (
(269.667,677.333,o),
(300.333,692,o),
(331,692,cs),
(381.667,692,o),
(424,655.667,o),
(424,605,c),
(422.667,593,o),
(421.667,581,o),
(415,569,cs),
(386.044,515.225,o),
(366.014,471.229,o),
(344,425,cs),
(315.692,366.025,o),
(256,260.326,o),
(256,194,cs),
(256,158,o),
(274.667,154,o),
(308,154,cs),
(423.109,154,o),
(571.152,306.216,o),
(632,375,c),
(664,239,l),
(531.695,104.1,o),
(378.912,-22,o),
(227,-22,cs),
(120.333,-22,o),
(53,30,o),
(53,146,cs),
(53,268.349,o),
(137.14,395.35,o),
(169,475,cs),
(175.667,492.333,o),
(194.333,532.667,o),
(213,570,cs),
(223.667,592,o),
(235,615.333,o),
(247,640,c)
);
}
);
width = 480;
}
);
unicode = 305;
},
{
glyphname = j;
lastChange = "2024-04-18 12:44:07 +0000";
layers = (
{
layerId = "DC66AB0F-19FD-4F06-8C39-5D32AA939720";
shapes = (
{
closed = 1;
nodes = (
(403.648,925.904,o),
(451.509,1003,o),
(544,1003,cs),
(617.333,1003,o),
(644,972.333,o),
(644,931,cs),
(644,877.608,o),
(605.629,794,o),
(513,794,cs),
(430.333,794,o),
(402.333,822.333,o),
(401,865,c)
);
},
{
closed = 1;
nodes = (
(305,195,o),
(427.333,280,o),
(606,388,cs),
(616,394,o),
(625.667,397,o),
(635,397,cs),
(695.061,397,o),
(722.064,286.841,o),
(599,224,c),
(261,-8,l),
(210.862,-53.58,o),
(169.652,-84.807,o),
(109,-127,c),
(43.667,-239,o),
(-5.333,-315.833,o),
(-56,-364.5,cs),
(-106.667,-413.167,o),
(-157,-435,o),
(-225,-435,cs),
(-287.667,-435,o),
(-309,-409,o),
(-309,-365,cs),
(-309,-283.838,o),
(-125.563,-195.132,o),
(-73,-85,cs),
(-11.652,42.24,o),
(50.949,176.83,o),
(108.5,296.5,cs),
(178.333,441.707,o),
(225.875,541.08,o),
(267,619,cs),
(293.667,669.667,o),
(340,692,o),
(380,692,cs),
(422.667,692,o),
(458,667,o),
(458,623,cs),
(458,574.282,o),
(445.088,546.896,o),
(414.5,488.5,cs),
(372.514,408.344,o),
(319.971,315.004,o),
(225,127,c)
);
}
);
width = 486;
}
);
unicode = 106;
},
{
glyphname = k;
lastChange = "2024-04-18 12:44:07 +0000";
layers = (
{
layerId = "DC66AB0F-19FD-4F06-8C39-5D32AA939720";
shapes = (
{
closed = 1;
nodes = (
(475.884,615.539,o),
(600.224,727,o),
(749,727,cs),
(840.38,727,o),
(945,688.022,o),
(945,585,cs),
(945,415.179,o),
(771.1,309.64,o),
(622,250,cs),
(586.37,234.73,o),
(557,196.687,o),
(557,176,cs),
(557,160,o),
(565.667,147,o),
(591,147,cs),
(640.333,147,o),
(701.167,166.833,o),
(784.5,207.5,cs),
(867.833,248.167,o),
(973,310.667,o),
(1113,396,cs),
(1124.333,402.667,o),
(1135,406,o),
(1145,406,cs),
(1170.333,406,o),
(1186,385.667,o),
(1186,355,cs),
(1186,317.667,o),
(1161,266.667,o),
(1097,224,cs),
(918.922,115.027,o),
(723.577,-25,o),
(504,-25,cs),
(409.333,-25,o),
(362,16,o),
(362,98,cs),
(362,184.667,o),
(403.833,249.667,o),
(456.5,299,cs),
(511.97,350.959,o),
(565.759,377.998,o),
(613,410,c),
(678.59,448.261,o),
(731,497.796,o),
(731,543,cs),
(731,562.333,o),
(722,572,o),
(704,572,cs),
(637.333,572,o),
(544,507.667,o),
(424,379,cs),
(312.018,258.824,o),
(254.364,165.476,o),
(176,63,c),
(124,4.333,o),
(77.667,-25,o),
(37,-25,cs),
(-1.667,-25,o),
(-18,-13.667,o),
(-18,25,cs),
(-18,27.667,o),
(-18,30.333,o),
(-18,33,cs),
(-18,35.667,o),
(-17.667,38.667,o),
(-17,42,cs),
(-12.868,83.315,o),
(34.373,193.018,o),
(87.5,307,cs),
(147.711,436.179,o),
(202.427,547.943,o),
(233,611,cs),
(549,1256,ls),
(563.927,1288.343,o),
(615.309,1323,o),
(664,1323,cs),
(724,1323,o),
(744,1297,o),
(744,1265,cs),
(744,1235.667,o),
(727.667,1202,o),
(709,1174,c),
(593.477,967.708,o),
(493.221,718.2,o),
(375,512,c)
);
}
);
width = 960;
}
);
unicode = 107;
},
{
glyphname = l;
lastChange = "2024-04-18 12:44:07 +0000";
layers = (
{
layerId = "DC66AB0F-19FD-4F06-8C39-5D32AA939720";
shapes = (
{
closed = 1;
nodes = (
(258.333,258.333,o),
(241,213,o),
(241,181,cs),
(241,161,o),
(247.333,148,o),
(270,148,cs),
(312.654,148,o),
(388.796,188.37,o),
(466.5,240.5,cs),
(544.765,293.007,o),
(620.141,351.121,o),
(683,405,cs),
(693.667,414.333,o),
(710.333,418,o),
(721,418,cs),
(747.667,418,o),
(767,397.667,o),
(767,367,cs),
(767,339,o),
(750.667,302.333,o),
(704,269,c),
(618.667,190.333,o),
(531.5,117.5,o),
(445.5,63.5,cs),
(359.5,9.5,o),
(274,-25,o),
(194,-25,cs),
(85.128,-25,o),
(51,37.268,o),
(51,116,cs),
(51,181.333,o),
(73.333,253.667,o),
(100,311,cs),
(146.667,415,o),
(197,521.667,o),
(237,607,cs),
(540,1252,ls),
(586.176,1352.048,o),
(732,1342.534,o),
(732,1251,cs),
(732,1227,o),
(719.333,1200.667,o),
(702,1170,cs),
(653.667,1079.134,o),
(576.581,926.174,o),
(487.5,740.5,cs),
(390.103,537.491,o),
(329.747,411.573,o),
(273,289,cs)
);
}
);
width = 528;
}
);
unicode = 108;
},
{
glyphname = lslash;
lastChange = "2024-04-18 12:44:07 +0000";
layers = (
{
layerId = "DC66AB0F-19FD-4F06-8C39-5D32AA939720";
shapes = (
{
closed = 1;
nodes = (
(258.333,258.333,o),
(241,213,o),
(241,181,cs),
(241,161,o),
(247.333,148,o),
(270,148,cs),
(312.654,148,o),
(388.796,188.37,o),
(466.5,240.5,cs),
(544.765,293.007,o),
(620.141,351.121,o),
(683,405,cs),
(693.667,414.333,o),
(710.333,418,o),
(721,418,cs),
(747.667,418,o),
(767,397.667,o),
(767,367,cs),
(767,339,o),
(750.667,302.333,o),
(704,269,c),
(618.667,190.333,o),
(531.5,117.5,o),
(445.5,63.5,cs),
(359.5,9.5,o),
(274,-25,o),
(194,-25,cs),
(85.128,-25,o),
(51,37.268,o),
(51,116,cs),
(51,181.333,o),
(73.333,253.667,o),
(100,311,cs),
(146.667,415,o),
(197,521.667,o),
(237,607,cs),
(307,757,l),
(281,750.333,o),
(255,743.333,o),
(229,736,cs),
(227,735.333,o),
(223.667,735,o),
(219,735,cs),
(197.667,735,o),
(183,757.333,o),
(183,784,cs),
(183,814.667,o),
(202,851.333,o),
(258,866,cs),
(296.667,876,o),
(335,886,o),
(373,896,c),
(540,1252,ls),
(586.176,1352.048,o),
(732,1342.534,o),
(732,1251,cs),
(732,1227,o),
(719.333,1200.667,o),
(702,1170,cs),
(684.667,1138.667,o),
(664.667,1100.333,o),
(642,1055,cs),
(626,1023.667,o),
(609.333,990.333,o),
(592,955,c),
(620,962.333,o),
(648.333,970,o),
(677,978,cs),
(679,978.667,o),
(681.667,979,o),
(685,979,cs),
(709,979,o),
(728,952.333,o),
(728,923,cs),
(728,895,o),
(710.667,864,o),
(664,852,cs),
(616.667,839.333,o),
(569.667,826.667,o),
(523,814,c),
(511.667,790,o),
(500,765.333,o),
(488,740,cs),
(402.263,564.444,o),
(324.76,400.803,o),
(273,289,cs)
);
}
);
width = 528;
}
);
unicode = 322;
},
{
glyphname = m;
lastChange = "2024-04-18 12:44:07 +0000";
layers = (
{
layerId = "DC66AB0F-19FD-4F06-8C39-5D32AA939720";
shapes = (
{
closed = 1;
nodes = (
(422,163.985,o),
(568.975,331.816,o),
(644,454,cs),
(657.333,475.333,o),
(666,494,o),
(666,514,cs),
(666,535.333,o),
(653.667,551,o),
(631,551,cs),
(551.947,551,o),
(475.511,496.013,o),
(412.5,422,cs),
(348.038,346.282,o),
(298.588,260.941,o),
(258,196,c),
(220.085,126.489,o),
(185.965,-26,o),
(98,-26,cs),
(50,-26,o),
(20,9.333,o),
(20,52,cs),
(20,85.874,o),
(63.159,194.734,o),
(113,304,cs),
(166.057,420.318,o),
(220.068,537.158,o),
(250,607,cs),
(274,664.333,o),
(317.333,692,o),
(356,692,cs),
(389.333,692,o),
(420,666.667,o),
(420,620,cs),
(420,602.667,o),
(416,583.667,o),
(408,563,c),
(479.011,628.751,o),
(565.267,727,o),
(716,727,cs),
(790.068,727,o),
(854.695,691.187,o),
(860,601,c),
(922.038,663.038,o),
(1001.793,727,o),
(1119,727,cs),
(1208.311,727,o),
(1286,690.707,o),
(1286,590,cs),
(1286,510,o),
(1243.333,437,o),
(1194,377,cs),
(1166.139,342.174,o),
(1076,249.651,o),
(1076,185,cs),
(1076,155.667,o),
(1095.667,151,o),
(1125,151,cs),
(1236.725,151,o),
(1396.985,303.483,o),
(1463,375,cs),
(1471,384.333,o),
(1482.333,388,o),
(1493,388,cs),
(1517,388,o),
(1540,364.667,o),
(1540,330,cs),
(1540,303.333,o),
(1525.667,269.667,o),
(1487,239,c),
(1347.927,105.078,o),
(1184.048,-25,o),
(1033,-25,cs),
(934.333,-25,o),
(868,19.667,o),
(868,121,cs),
(868,256.429,o),
(994.276,366.89,o),
(1047,454,cs),
(1060.333,475.333,o),
(1069,494,o),
(1069,514,cs),
(1069,535.333,o),
(1056.667,551,o),
(1034,551,cs),
(954.947,551,o),
(878.511,496.013,o),
(815.5,422,cs),
(751.038,346.282,o),
(701.588,260.941,o),
(661,196,c),
(623.085,126.489,o),
(588.965,-26,o),
(501,-26,cs),
(466.259,-26,o),
(424.675,-0.769,o),
(422,34,c)
);
}
);
width = 1312;
}
);
unicode = 109;
},
{
glyphname = n;
lastChange = "2024-04-18 12:44:07 +0000";
layers = (
{
layerId = "DC66AB0F-19FD-4F06-8C39-5D32AA939720";
shapes = (
{
closed = 1;
nodes = (
(291.667,664.333,o),
(335.333,692,o),
(374,692,cs),
(406,692,o),
(436,668.333,o),
(436,623,cs),
(436,605.667,o),
(432.667,585.667,o),
(422,563,c),
(483.131,640.803,o),
(656.196,727,o),
(777,727,cs),
(847.667,727,o),
(901,696.333,o),
(901,615,cs),
(901,544.665,o),
(865.918,461.229,o),
(822.5,385.5,cs),
(777.687,307.338,o),
(735.111,247,o),
(714,209,c),
(705.333,198.333,o),
(701,186,o),
(701,172,cs),
(701,161.333,o),
(707.333,152,o),
(722,152,cs),
(731.333,152,o),
(742.667,152,o),
(760,164,c),
(909.548,219.388,o),
(1071.201,334.429,o),
(1147,405,cs),
(1157.667,414.333,o),
(1168.667,418,o),
(1178,418,cs),
(1200.667,418,o),
(1214,398.667,o),
(1214,372,cs),
(1214,330.667,o),
(1189,276,o),
(1133,232,c),
(987.465,127.317,o),
(888.023,47.454,o),
(693,-9,cs),
(658.333,-19.667,o),
(630,-25,o),
(606,-25,cs),
(535.333,-25,o),
(504,16.333,o),
(504,87,cs),
(504,96.333,o),
(504.667,104.333,o),
(506,115,cs),
(509.862,174.857,o),
(554.713,259.019,o),
(601,336.5,cs),
(645.796,411.485,o),
(689,483.356,o),
(689,515,cs),
(689,535,o),
(677.667,551,o),
(655,551,cs),
(486.527,551,o),
(346.119,322.87,o),
(260,191,cs),
(214.12,115.298,o),
(180.962,-25,o),
(92,-25,cs),
(45.333,-25,o),
(17,8.333,o),
(17,51,cs),
(17,84.828,o),
(64.031,191.792,o),
(116.5,301.5,cs),
(184.702,444.103,o),
(239.834,551.95,o),
(265,607,cs)
);
}
);
width = 951;
}
);
unicode = 110;
},
{
glyphname = o;
lastChange = "2024-04-18 12:44:07 +0000";
layers = (
{
layerId = "DC66AB0F-19FD-4F06-8C39-5D32AA939720";
shapes = (
{
closed = 1;
nodes = (
(363.68,551,o),
(247,415.268,o),
(247,279,cs),
(247,228.121,o),
(258.428,150,o),
(338,150,cs),
(462.923,150,o),
(579,294.912,o),
(579,429,cs),
(579,481.292,o),
(571.442,551,o),
(488,551,cs)
);
},
{
closed = 1;
nodes = (
(640.897,727,o),
(788,678.201,o),
(788,522,cs),
(788,482,o),
(777.333,429,o),
(756,373,c),
(769.333,357,o),
(787,351,o),
(807,351,cs),
(848.122,351,o),
(906.416,389.369,o),
(960,437,cs),
(1014.418,485.371,o),
(1060.984,536.982,o),
(1087,567,cs),
(1091.667,571.667,o),
(1097.333,574,o),
(1104,574,cs),
(1146.891,574,o),
(1168.471,477.391,o),
(1067,388,c),
(1007.021,323.022,o),
(899.704,192,o),
(797,192,cs),
(762.333,192,o),
(730.333,202,o),
(697,226,c),
(598.445,72.693,o),
(442.736,-25,o),
(251,-25,cs),
(170.018,-25,o),
(36,35.273,o),
(36,189,cs),
(36,271.206,o),
(74.564,401.592,o),
(155.5,518.5,cs),
(238.386,638.224,o),
(369.223,727,o),
(540,727,cs)
);
}
);
width = 848;
}
);
unicode = 111;
},
{
glyphname = oslash;
lastChange = "2024-04-18 12:44:07 +0000";
layers = (
{
layerId = "DC66AB0F-19FD-4F06-8C39-5D32AA939720";
shapes = (
{
closed = 1;
nodes = (
(394.68,551,o),
(278,415.268,o),
(278,279,cs),
(278,273.667,o),
(278,267.833,o),
(278,261.5,cs),
(278,255.167,o),
(278.667,249,o),
(280,243,c),
(534,550,l),
(531.333,550,o),
(528.833,550.167,o),
(526.5,550.5,cs),
(524.167,550.833,o),
(521.667,551,o),
(519,551,cs)
);
},
{
closed = 1;
nodes = (
(503.719,369.253,o),
(426.982,281.241,o),
(326,159,c),
(336.667,153,o),
(351,150,o),
(369,150,cs),
(493.923,150,o),
(610,294.912,o),
(610,429,cs),
(610,449,o),
(609.667,471.333,o),
(603,490,c)
);
},
{
closed = 1;
nodes = (
(602.333,727,o),
(634.667,722,o),
(668,712,c),
(725,782,ls),
(738.333,796.667,o),
(755.333,805,o),
(770,805,cs),
(795.333,805,o),
(816,785.667,o),
(816,763,cs),
(816,759,o),
(814.667,754.333,o),
(812,749,cs),
(809.333,743.667,o),
(808,739.333,o),
(808,736,c),
(752,669,l),
(790.667,637,o),
(819,590,o),
(819,522,cs),
(819,482,o),
(808.333,429,o),
(787,373,c),
(800.333,357,o),
(818,351,o),
(838,351,cs),
(889.05,351,o),
(956.563,392.656,o),
(1023,445,cs),
(1089.196,497.154,o),
(1145.873,554.873,o),
(1178,587,cs),
(1182.667,591.667,o),
(1188.333,594,o),
(1195,594,cs),
(1237.891,594,o),
(1259.471,497.391,o),
(1158,408,c),
(1081.665,331.665,o),
(954.423,192,o),
(828,192,cs),
(793.333,192,o),
(761.333,202,o),
(728,226,c),
(629.445,72.693,o),
(473.736,-25,o),
(282,-25,cs),
(255.333,-25,o),
(223.333,-17.667,o),
(190,-3,c),
(139,-64,ls),
(125,-80.667,o),
(110.333,-89,o),
(95,-89,cs),
(71,-89,o),
(52,-70.333,o),
(52,-49,cs),
(52,-39.667,o),
(52.667,-31.667,o),
(62,-21,cs),
(119,48,l),
(88.333,82.667,o),
(67,126.333,o),
(67,189,cs),
(67,271.206,o),
(105.564,401.592,o),
(186.5,518.5,cs),
(269.386,638.224,o),
(400.223,727,o),
(571,727,cs)
);
}
);
width = 848;
}
);
unicode = 248;
},
{
glyphname = oe;
lastChange = "2024-04-18 12:44:07 +0000";
layers = (
{
layerId = "DC66AB0F-19FD-4F06-8C39-5D32AA939720";
shapes = (
{
closed = 1;
nodes = (
(1070,558.667,o),
(1047.333,568,o),
(1022,568,cs),
(950.672,568,o),
(891.3,524.042,o),
(847.5,467,cs),
(803.546,409.758,o),
(779.187,351.362,o),
(766,314,c),
(1032.105,441.73,o),
(1070,487.467,o),
(1070,532,cs)
);
},
{
closed = 1;
nodes = (
(387.016,551,o),
(281,410.64,o),
(281,277,cs),
(281,227.361,o),
(286.188,150,o),
(365,150,cs),
(481.271,150,o),
(588,293.511,o),
(588,433,cs),
(588,483.068,o),
(578.344,551,o),
(504,551,cs)
);
},
{
closed = 1;
nodes = (
(1175.911,727,o),
(1242,671.58,o),
(1242,583,cs),
(1242,527,o),
(1222.667,465.333,o),
(1156,400,cs),
(1089.333,334.667,o),
(974.333,267,o),
(781,199,c),
(787.667,160.333,o),
(823.667,137,o),
(881,137,cs),
(962.095,137,o),
(1063.843,186.751,o),
(1153,244.5,cs),
(1238.475,299.864,o),
(1311.393,358.697,o),
(1324,365,cs),
(1334.667,371.667,o),
(1346,373,o),
(1354,373,cs),
(1385.752,373,o),
(1397,339.847,o),
(1397,324,cs),
(1397,312,o),
(1397.333,295.333,o),
(1380,274,cs),
(1363.013,253.615,o),
(1279.251,181.125,o),
(1183,115.5,cs),
(1073.35,40.739,o),
(934.182,-25,o),
(812,-25,cs),
(705.333,-25,o),
(628.667,33,o),
(590,117,c),
(511.333,43.667,o),
(410.333,-8,o),
(285,-8,cs),
(206.779,-8,o),
(86,50.977,o),
(86,193,cs),
(86,274.686,o),
(121.238,404.364,o),
(197,520,cs),
(274.583,638.417,o),
(393.839,727,o),
(552,727,cs),
(634.462,727,o),
(715.467,682.125,o),
(737,561,c),
(827.667,658.333,o),
(941.667,727,o),
(1075,727,cs)
);
}
);
width = 1180;
}
);
unicode = 339;
},
{
glyphname = p;
lastChange = "2024-04-18 12:44:07 +0000";
layers = (
{
layerId = "DC66AB0F-19FD-4F06-8C39-5D32AA939720";
shapes = (
{
closed = 1;
nodes = (
(1180.667,480.667,o),
(1196.333,488,o),
(1211,488,cs),
(1240.333,488,o),
(1255,463,o),
(1255,431,cs),
(1255,396.333,o),
(1237,357,o),
(1201,333,cs),
(1129.667,279.667,o),
(1066,231,o),
(1010,187,cs),
(954,143,o),
(901.167,105.167,o),
(851.5,73.5,cs),
(752.167,10.167,o),
(662,-26,o),
(554,-26,cs),
(452.667,-26,o),
(395,13.667,o),
(395,79,cs),
(395,81.667,o),
(395,84.167,o),
(395,86.5,cs),
(395,88.833,o),
(395.333,91.667,o),
(396,95,cs),
(403.837,153.78,o),
(488.169,245.169,o),
(573,330,cs),
(656.293,413.293,o),
(737,494.388,o),
(737,534,cs),
(737,550,o),
(724.667,560,o),
(694,560,cs),
(615.282,560,o),
(526.048,504.527,o),
(446.5,428,cs),
(365.927,350.487,o),
(301.891,261.558,o),
(261,190,cs),
(240.429,152.286,o),
(218.195,109.46,o),
(192.5,62.5,cs),
(161.669,6.154,o),
(138.881,-41.208,o),
(131,-55,cs),
(121.557,-71.997,o),
(93.634,-134.73,o),
(56.5,-218,cs),
(20.496,-298.736,o),
(-8.699,-364.098,o),
(-14,-380,cs),
(-40.145,-447.976,o),
(-85.041,-508,o),
(-159,-508,cs),
(-207,-508,o),
(-242,-492.667,o),
(-242,-438,cs),
(-242,-385.513,o),
(-204.735,-322.405,o),
(-185,-278,c),
(-45.649,-19.943,o),
(123.11,263.33,o),
(201,497,c),
(219.472,538.563,o),
(273.951,692,o),
(344,692,cs),
(397.333,692,o),
(420,671,o),
(420,631,cs),
(420,615.848,o),
(408.687,555.374,o),
(400,538,c),
(497.18,627.3,o),
(633.232,727,o),
(759,727,cs),
(846.884,727,o),
(940,684.562,o),
(940,602,cs),
(940,522.834,o),
(861.105,419.643,o),
(774,329.5,cs),
(697.086,249.903,o),
(605.886,168.977,o),
(604,152,cs),
(604,136,o),
(615,125,o),
(643,125,cs),
(695.858,125,o),
(856.983,240.099,o),
(1162,470,c)
);
}
);
width = 979;
}
);
unicode = 112;
},
{
glyphname = thorn;
lastChange = "2024-04-18 12:44:07 +0000";
layers = (
{
layerId = "DC66AB0F-19FD-4F06-8C39-5D32AA939720";
shapes = (
{
closed = 1;
nodes = (
(530.926,561,o),
(364,397.427,o),
(364,245,cs),
(364,200.449,o),
(377.509,150,o),
(455,150,cs),
(611.051,150,o),
(760,314.171,o),
(760,465,cs),
(760,505.113,o),
(750.212,561,o),
(684,561,cs)
);
},
{
closed = 1;
nodes = (
(41.298,54.528,o),
(191.299,372.948,o),
(297,607,cs),
(589,1256,ls),
(605.426,1291.591,o),
(654.184,1323,o),
(701,1323,cs),
(762.333,1323,o),
(784,1295.667,o),
(784,1261,cs),
(784,1234.333,o),
(768,1200.667,o),
(752,1174,c),
(702.667,1079.333,o),
(656,983.167,o),
(612,885.5,cs),
(568,787.833,o),
(521.333,691.333,o),
(472,596,c),
(555.977,661.607,o),
(666.221,728,o),
(782,728,cs),
(863.165,728,o),
(963,664.44,o),
(963,547,cs),
(963,510.111,o),
(924.306,366.958,o),
(875,293,c),
(884.333,278.333,o),
(899.333,277,o),
(918,277,cs),
(1038.07,277,o),
(1160.767,347.684,o),
(1227,388,c),
(1235,396.667,o),
(1243.667,401,o),
(1253,401,cs),
(1275.667,401,o),
(1295,379,o),
(1295,347,cs),
(1295,316.333,o),
(1284.333,288,o),
(1251,252,c),
(1133.554,181.532,o),
(1009.261,121,o),
(874,121,cs),
(831.333,121,o),
(794.667,132.667,o),
(768,158,c),
(654.667,22,o),
(529,-39,o),
(381,-39,cs),
(305,-39,o),
(252.667,-17.667,o),
(218,17,c),
(100,-246,ls),
(83.574,-281.591,o),
(34.816,-313,o),
(-12,-313,cs),
(-73.333,-313,o),
(-95,-285.667,o),
(-95,-251,cs),
(-95,-237.667,o),
(-91.333,-223.333,o),
(-84,-208,cs),
(-76.667,-192.667,o),
(-69.667,-178,o),
(-63,-164,cs)
);
}
);
width = 980;
}
);
unicode = 254;
},
{
glyphname = q;
lastChange = "2024-04-18 12:44:07 +0000";
layers = (
{
layerId = "DC66AB0F-19FD-4F06-8C39-5D32AA939720";
shapes = (
{
closed = 1;
nodes = (
(639.667,514.667,o),
(632,526.333,o),
(622,537,cs),
(604.667,555.667,o),
(577.667,573,o),
(535,573,cs),
(379.736,573,o),
(261,382.228,o),
(261,234,cs),
(261,175.333,o),
(281.667,152,o),
(315,152,cs),
(406.857,152,o),
(506.765,262.747,o),
(645,502,c)
);
},
{
closed = 1;
nodes = (
(427,-264,l),
(421,-278.667,o),
(413.667,-294.833,o),
(405,-312.5,cs),
(396.333,-330.167,o),
(392,-346,o),
(392,-360,cs),
(392,-375.333,o),
(399.333,-383,o),
(414,-383,cs),
(455.685,-383,o),
(526.159,-257.202,o),
(594.5,-116.5,cs),
(656.013,10.145,o),
(721.767,168.598,o),
(755,226,c),
(811.836,298.337,o),
(946.622,363,o),
(1043,428,c),
(1051.667,432,o),
(1059.667,434,o),
(1067,434,cs),
(1093.667,434,o),
(1108,404.667,o),
(1108,366,cs),
(1108,316.421,o),
(1083.916,251.324,o),
(1032,224,c),
(891,138,l),
(832.038,95.119,o),
(763.146,-124.034,o),
(696.5,-260.5,cs),
(612.595,-432.306,o),
(501.459,-594,o),
(323,-594,cs),
(244.648,-594,o),
(182,-544.209,o),
(182,-468,cs),
(182,-412.081,o),
(184.911,-407.177,o),
(239,-299,cs),
(409,37,l),
(366.333,-1.667,o),
(320.667,-25,o),
(270,-25,cs),
(140.999,-25,o),
(84,91.185,o),
(84,215,cs),
(84,381.461,o),
(165.058,514.333,o),
(271.5,600.5,cs),
(375.577,684.753,o),
(488.452,727,o),
(552,727,cs),
(608,727,o),
(648.333,704.667,o),
(675,682,cs),
(691,668.667,o),
(704,653.667,o),
(714,637,c),
(724.667,647,o),
(735,656,o),
(745,664,cs),
(762.333,678.667,o),
(781.667,692,o),
(795,692,cs),
(839,692,o),
(865,662.667,o),
(865,624,cs),
(865,608.667,o),
(860.667,592.333,o),
(852,575,cs)
);
}
);
width = 852;
}
);
unicode = 113;
},
{
glyphname = r;
lastChange = "2024-04-18 12:44:07 +0000";
layers = (
{
layerId = "DC66AB0F-19FD-4F06-8C39-5D32AA939720";
shapes = (
{
closed = 1;
nodes = (
(454,583,ls),
(552.818,643.811,o),
(678.951,693,o),
(753,693,cs),
(813,693,o),
(847,667,o),
(847,599,cs),
(847,584.333,o),
(846,567.667,o),
(842,549,cs),
(832.504,499.619,o),
(755.089,412.089,o),
(681.5,338.5,cs),
(631.221,288.221,o),
(535,197.343,o),
(535,178,cs),
(535,167.333,o),
(534.333,164,o),
(545,164,c),
(688.842,225.266,o),
(915.183,345.888,o),
(1023,409,cs),
(1035,415.667,o),
(1048.333,421,o),
(1059,421,cs),
(1083,421,o),
(1101,403.667,o),
(1101,377,cs),
(1101,346.333,o),
(1077.333,305.667,o),
(1016,263,cs),
(958.41,226.801,o),
(847.613,155.065,o),
(750.5,99,cs),
(654.658,43.668,o),
(561.802,0,o),
(504,0,cs),
(412,0,o),
(366,48.667,o),
(366,118,cs),
(366,123.333,o),
(366.333,127.333,o),
(367,130,cs),
(380.554,215.198,o),
(434.604,297.279,o),
(486,363.5,cs),
(536.926,429.117,o),
(583,486.834,o),
(583,527,cs),
(583,533.667,o),
(581.333,542,o),
(572,542,cs),
(538.527,542,o),
(405.305,488.559,o),
(375,433,cs),
(334.387,361.927,o),
(254.094,186.007,o),
(215,100,cs),
(184.571,26.464,o),
(105.721,-25,o),
(50,-25,cs),
(19.333,-25,o),
(0,-10,o),
(0,26,cs),
(0,40.667,o),
(3.333,63.333,o),
(18,90,cs),
(40.535,132.566,o),
(67.85,192.949,o),
(97,255.5,cs),
(129,324.167,o),
(169.667,411,o),
(227,527,c),
(208.333,543,o),
(194,565.333,o),
(194,600,cs),
(194,662.838,o),
(250.096,692,o),
(318,692,cs),
(384.828,692,o),
(463,668.246,o),
(463,622,cs),
(463,616.377,o),
(450,590.305,o),
(450,584,cs),
(450,582.667,o),
(450.333,582,o),
(451,582,cs),
(452,582,l),
(452,582,l)
);
}
);
width = 843;
}
);
unicode = 114;
},
{
glyphname = s;
lastChange = "2024-04-18 12:44:07 +0000";
layers = (
{
layerId = "DC66AB0F-19FD-4F06-8C39-5D32AA939720";
shapes = (
{
closed = 1;
nodes = (
(550.967,479.607,o),
(651,340.49,o),
(651,219,cs),
(651,64.791,o),
(459.857,-25,o),
(277,-25,cs),
(137.361,-25,o),
(7.921,34.675,o),
(-24,173,cs),
(-25.333,178.333,o),
(-26,182.667,o),
(-26,186,cs),
(-26,222,o),
(4.333,252,o),
(35,252,cs),
(49.667,252,o),
(70.667,248.667,o),
(80,230,cs),
(114.205,166.853,o),
(213.05,126,o),
(294,126,cs),
(380.187,126,o),
(456,156.521,o),
(456,233,cs),
(456,372.403,o),
(317.142,459.888,o),
(198,535,cs),
(191.333,539,o),
(173,562,o),
(173,582,cs),
(173,590,o),
(175,596.333,o),
(179,601,cs),
(222.213,657.717,o),
(291.196,726,o),
(371,726,cs),
(429.736,726,o),
(472,690.245,o),
(472,662,cs),
(472,624.416,o),
(429.311,592.316,o),
(392,563,c)
);
}
);
width = 611;
}
);
unicode = 115;
},
{
glyphname = germandbls;
lastChange = "2024-04-18 12:44:07 +0000";
layers = (
{
layerId = "DC66AB0F-19FD-4F06-8C39-5D32AA939720";
shapes = (
{
closed = 1;
nodes = (
(918.667,693,o),
(954,633.333,o),
(954,560,cs),
(954,423.649,o),
(828.666,249.117,o),
(685,156,c),
(760.489,178.647,o),
(812.258,195.161,o),
(882.5,226.5,cs),
(955.548,259.091,o),
(1036.15,302.869,o),
(1171,378,c),
(1157,221,l),
(768.462,10.763,o),
(503.154,-20,o),
(343,-20,cs),
(285.667,-20,o),
(246,8,o),
(246,60,cs),
(246,123.517,o),
(308.718,164,o),
(367,164,cs),
(469.868,164,o),
(565.227,221.499,o),
(637,302.5,cs),
(707.67,382.257,o),
(749,474.648,o),
(749,543,cs),
(749,599,o),
(725.667,616,o),
(695,616,cs),
(667.255,616,o),
(632.259,594,o),
(609,594,cs),
(581,594,o),
(560,622.333,o),
(560,653,cs),
(560,720.28,o),
(624.779,714.403,o),
(682,758,cs),
(903.793,923.677,o),
(1022,1099.328,o),
(1022,1186,cs),
(1022,1218,o),
(1004.333,1237,o),
(967,1237,cs),
(915,1237,o),
(854,1199.667,o),
(790,1133,cs),
(726,1066.333,o),
(660,970.667,o),
(600,856,cs),
(140,-29,ls),
(67.368,-170.632,o),
(18.543,-278.331,o),
(-17.5,-336,cs),
(-51.572,-390.515,o),
(-81.387,-410,o),
(-137,-410,cs),
(-190.333,-410,o),
(-222,-376.667,o),
(-222,-334,cs),
(-222,-270.586,o),
(-190.644,-205.836,o),
(-126.5,-98,cs),
(-103.5,-59.333,o),
(-75,-11.667,o),
(-41,45,cs),
(60.696,216.377,o),
(149.504,366.91,o),
(229,504.5,cs),
(308.756,642.539,o),
(388.355,785.862,o),
(472,942,cs),
(613.435,1205.83,o),
(789.943,1401,o),
(1000,1401,cs),
(1160.716,1401,o),
(1226,1324.838,o),
(1226,1212,cs),
(1226,1133.838,o),
(1180.078,1032.49,o),
(1100,934.5,cs),
(1022.184,839.277,o),
(922.948,760.562,o),
(828,721,c)
);
}
);
width = 1044;
}
);
unicode = 223;
},
{
glyphname = t;
lastChange = "2024-04-18 12:44:07 +0000";
layers = (
{
layerId = "DC66AB0F-19FD-4F06-8C39-5D32AA939720";
shapes = (
{
closed = 1;
nodes = (
(403,556,l),
(378.333,508,o),
(355,461.167,o),
(333,415.5,cs),
(311,369.833,o),
(290.333,327.667,o),
(271,289,cs),
(255,257,o),
(236,210,o),
(236,178,cs),
(236,159.333,o),
(244,148,o),
(264,148,cs),
(307.006,148,o),
(384.279,188.973,o),
(464,240.5,cs),
(545.317,293.059,o),
(621.359,351.308,o),
(684,405,c),
(694.667,412.333,o),
(704.667,416,o),
(714,416,cs),
(757.024,416,o),
(779.348,330.345,o),
(702,269,c),
(615.333,190.333,o),
(525.833,117.5,o),
(438.5,63.5,cs),
(351.167,9.5,o),
(265,-25,o),
(185,-25,cs),
(79.592,-25,o),
(44,33.954,o),
(44,110,cs),
(44,176.667,o),
(71,253.667,o),
(99,311,cs),
(119,352.333,o),
(138.833,393.333,o),
(158.5,434,cs),
(178.167,474.667,o),
(197.333,513.667,o),
(216,551,c),
(173,551,ls),
(98.333,551,o),
(75,579.333,o),
(75,610,cs),
(75,639.527,o),
(112.428,692,o),
(172,692,cs),
(280,692,l),
(491,1111,ls),
(517.667,1161.667,o),
(559.333,1182,o),
(602,1182,cs),
(642,1182,o),
(682,1162.333,o),
(682,1113,cs),
(682,1087.667,o),
(669.667,1063.667,o),
(651,1029,cs),
(629.873,989.093,o),
(593.544,921.58,o),
(541,827,cs),
(518.333,784.333,o),
(494.333,739.333,o),
(469,692,c),
(795,692,ls),
(859.278,692,o),
(904,681.27,o),
(904,624,cs),
(904,594.2,o),
(889.295,564.407,o),
(819,559,c)
);
}
);
width = 528;
}
);
unicode = 116;
},
{
glyphname = u;
lastChange = "2024-04-18 12:44:07 +0000";
layers = (
{
layerId = "DC66AB0F-19FD-4F06-8C39-5D32AA939720";
shapes = (
{
closed = 1;
nodes = (
(1170,239,l),
(1079.503,136.163,o),
(943.251,41.844,o),
(825,-2.5,cs),
(701.866,-48.675,o),
(609,-29.574,o),
(609,94,cs),
(609,124.667,o),
(614.333,160.333,o),
(625,201,c),
(556.668,98.502,o),
(419.472,-25,o),
(224,-25,cs),
(136.624,-25,o),
(56,8.04,o),
(56,123,cs),
(56,131.612,o),
(62.565,178.762,o),
(85.5,246.5,cs),
(114.167,331.167,o),
(169.667,464,o),
(279,656,cs),
(307,706.667,o),
(344.333,727,o),
(387,727,cs),
(430.198,727,o),
(473,705.019,o),
(473,667,cs),
(473,660.333,o),
(472,654,o),
(470,648,cs),
(461.002,617.407,o),
(415.139,550.417,o),
(363.5,464,cs),
(315.079,382.969,o),
(268.835,283.45,o),
(265,201,cs),
(265,177,o),
(277.333,153,o),
(308,153,cs),
(480.438,153,o),
(626.896,369.804,o),
(699,506,cs),
(748.845,595.196,o),
(769.245,728,o),
(858,728,cs),
(906,728,o),
(936,692.667,o),
(936,650,cs),
(936,615.382,o),
(890.613,531.341,o),
(844,442,cs),
(795.445,348.936,o),
(752,245.88,o),
(752,171,cs),
(752,147,o),
(766.667,135,o),
(796,135,cs),
(837.333,135,o),
(902.167,160.167,o),
(969.5,203.5,cs),
(1036.833,246.833,o),
(1108,307,o),
(1160,375,c)
);
}
);
width = 928;
}
);
unicode = 117;
},
{
glyphname = v;
lastChange = "2024-04-18 12:44:07 +0000";
layers = (
{
layerId = "DC66AB0F-19FD-4F06-8C39-5D32AA939720";
shapes = (
{
closed = 1;
nodes = (
(870,148,o),
(775.333,102,o),
(654,102,cs),
(614,102,o),
(583,114.667,o),
(523,152,c),
(435,36,o),
(348,-25,o),
(252,-25,cs),
(158.667,-25,o),
(76,42.613,o),
(76,173,cs),
(76,329.501,o),
(158.892,558.675,o),
(189,649,c),
(215.667,705,o),
(260.333,728,o),
(299,728,cs),
(333.667,728,o),
(375,702.667,o),
(375,668,cs),
(375,660.667,o),
(373.667,654.333,o),
(371,649,c),
(330.511,519.435,o),
(254,341.974,o),
(254,220,cs),
(254,199.694,o),
(263.954,154,o),
(280,154,cs),
(314.667,154,o),
(357.333,195,o),
(408,263,c),
(471.551,330.402,o),
(529.041,445.571,o),
(577.5,541.5,cs),
(625.758,637.032,o),
(672.318,714,o),
(719,714,cs),
(773.667,714,o),
(794,673.333,o),
(794,624,cs),
(794,512.175,o),
(703.909,424.17,o),
(621,283,c),
(631.667,269,o),
(648.333,262,o),
(671,262,cs),
(771.032,262,o),
(877.048,313.638,o),
(970,388,c),
(980,394,o),
(989.333,397,o),
(998,397,cs),
(1022,397,o),
(1039,373.333,o),
(1039,340,cs),
(1039,304,o),
(1019.333,258.667,o),
(970,224,cs)
);
}
);
width = 800;
}
);
unicode = 118;
},
{
glyphname = w;
lastChange = "2024-04-18 12:44:07 +0000";
layers = (
{
layerId = "DC66AB0F-19FD-4F06-8C39-5D32AA939720";
shapes = (
{
closed = 1;
nodes = (
(193.333,581,o),
(217.5,635.167,o),
(239.5,666.5,cs),
(261.5,697.833,o),
(280.667,706,o),
(314,706,cs),
(364.667,706,o),
(407,669.667,o),
(407,619,cs),
(407,607,o),
(403.333,595,o),
(398,583,cs),
(228,181,ls),
(222.667,170.333,o),
(221,156,o),
(221,148,cs),
(221,130.667,o),
(230,122,o),
(238,122,cs),
(271.29,122,o),
(307.54,159.54,o),
(381,233,cs),
(465.967,323.449,o),
(561.593,491.835,o),
(615,612,c),
(653.264,688.528,o),
(673.558,706,o),
(717,706,cs),
(757.667,706,o),
(778,688.333,o),
(778,653,c),
(776.667,647.667,o),
(775.833,641.667,o),
(775.5,635,cs),
(775.167,628.333,o),
(773.333,620.667,o),
(770,612,cs),
(614,151,l),
(614,134.333,o),
(622.333,126,o),
(639,126,c),
(690.559,131.729,o),
(809.166,222.498,o),
(840,315,cs),
(898.453,490.359,o),
(956.892,689.991,o),
(1053,698,c),
(1095.667,698,o),
(1126,668,o),
(1126,624,cs),
(1126,515.627,o),
(1064.371,375.905,o),
(999,287,c),
(1003.667,273,o),
(1013.333,266,o),
(1028,266,cs),
(1130,266,o),
(1209.197,298.918,o),
(1301,354,cs),
(1311.667,361.333,o),
(1322.333,365,o),
(1333,365,cs),
(1359.667,365,o),
(1385,343,o),
(1385,311,cs),
(1385,268.183,o),
(1322.677,218.083,o),
(1241.5,180,cs),
(1152.922,138.445,o),
(1066.184,115,o),
(1012,115,cs),
(974.667,115,o),
(936.333,125.667,o),
(897,147,c),
(803.667,35,o),
(702,-25,o),
(598,-25,cs),
(502,-25,o),
(463,26,o),
(463,122,c),
(363,20.667,o),
(280,-25,o),
(188,-25,cs),
(72.244,-25,o),
(34,33.592,o),
(34,115,cs),
(34,242.072,o),
(117.737,411.907,o),
(152,489,cs)
);
}
);
width = 1139;
}
);
unicode = 119;
},
{
glyphname = x;
lastChange = "2024-04-18 12:44:07 +0000";
layers = (
{
layerId = "DC66AB0F-19FD-4F06-8C39-5D32AA939720";
shapes = (
{
closed = 1;
nodes = (
(390.4,716,o),
(422,697.015,o),
(422,600,cs),
(422,485,l),
(644,671,ls),
(678,699,o),
(712,713,o),
(746,713,cs),
(786,713,o),
(816,692.667,o),
(816,662,cs),
(816,643.333,o),
(803.333,621.333,o),
(778,600,cs),
(446,320,l),
(458,184,l),
(458,151.333,o),
(469.667,135,o),
(493,135,cs),
(543.667,135,o),
(620,174,o),
(720,246,cs),
(835,330,l),
(847,337.333,o),
(859.333,341,o),
(872,341,cs),
(900,341,o),
(920,319.667,o),
(920,289,cs),
(920,255.667,o),
(899,209,o),
(835,165,cs),
(635.851,24.268,o),
(541.228,-25,o),
(435,-25,cs),
(315,-25,o),
(256,39,o),
(256,191,c),
(38,3,ls),
(12.667,-17,o),
(-14.333,-25,o),
(-37,-25,cs),
(-79.667,-25,o),
(-113,0.667,o),
(-113,34,cs),
(-113,52.667,o),
(-101,71,o),
(-77,89,c),
(231,357,l),
(231,600,ls),
(231,703.906,o),
(295.588,716,o),
(325,716,cs)
);
}
);
width = 723;
}
);
unicode = 120;
},
{
glyphname = y;
lastChange = "2024-04-18 12:44:07 +0000";
layers = (
{
layerId = "DC66AB0F-19FD-4F06-8C39-5D32AA939720";
shapes = (
{
closed = 1;
nodes = (
(709,634,l),
(776.194,686.795,o),
(803.744,692,o),
(839,692,cs),
(867,692,o),
(878,666.667,o),
(878,644,cs),
(878,634.667,o),
(876.333,626,o),
(873,618,cs),
(649,151,l),
(775.969,246.226,o),
(1011.513,345,o),
(1026,345,cs),
(1059.333,345,o),
(1089,316.667,o),
(1089,278,cs),
(1089,243.333,o),
(1066.333,203,o),
(1001,167,cs),
(917.11,120.261,o),
(837.429,78.736,o),
(787,51,cs),
(760.333,36.333,o),
(736.667,23,o),
(716,11,cs),
(652.35,-25.958,o),
(600.961,-65.585,o),
(546,-117,c),
(486.872,-271.246,o),
(427.658,-401.684,o),
(416,-425,cs),
(362,-537,o),
(302.667,-593,o),
(238,-593,cs),
(184.667,-593,o),
(148,-555,o),
(148,-495,cs),
(148,-439,o),
(160.167,-386.667,o),
(195.5,-320,cs),
(230.833,-253.333,o),
(287,-174.667,o),
(375,-64,c),
(575,341,l),
(375,103.667,o),
(216.333,-25,o),
(75,-25,cs),
(29.667,-25,o),
(-7,-6,o),
(-7,42,cs),
(-7,75.333,o),
(1,113,o),
(17,155,cs),
(43.829,220.155,o),
(73.968,272.936,o),
(105.5,336,cs),
(138.804,402.608,o),
(182.874,497.752,o),
(237,634,c),
(263.667,686,o),
(311,708,o),
(351,708,cs),
(392.333,708,o),
(425,687,o),
(425,655,cs),
(425,647,o),
(423.667,640,o),
(421,634,cs),
(238,253,ls),
(228.667,233.667,o),
(224,218.333,o),
(224,207,cs),
(224,197,o),
(228,192,o),
(236,192,cs),
(250.667,192,o),
(276,209.333,o),
(296,228,cs)
);
}
);
width = 896;
}
);
unicode = 121;
},
{
glyphname = z;
lastChange = "2024-04-18 12:44:07 +0000";
layers = (
{
layerId = "DC66AB0F-19FD-4F06-8C39-5D32AA939720";
shapes = (
{
closed = 1;
nodes = (
(432,-78.667,o),
(432,-73.5,o),
(432,-68.5,cs),
(432,-63.5,o),
(431.667,-58.333,o),
(431,-53,c),
(337.667,-101,o),
(264.5,-144,o),
(214.5,-180,cs),
(162.752,-217.258,o),
(138,-245.935,o),
(138,-263,cs),
(138,-297.667,o),
(165.333,-324,o),
(212,-324,cs),
(284,-324,o),
(426.667,-190.667,o),
(432,-84,cs)
);
},
{
closed = 1;
nodes = (
(1048.667,485.333,o),
(1060.333,485.667,o),
(1071,487,c),
(1101.667,487,o),
(1130,458,o),
(1130,430,cs),
(1130,418,o),
(1125.333,409.667,o),
(1116,399,cs),
(1073.333,351,o),
(1015.167,303,o),
(934.5,247,cs),
(853.833,191,o),
(750,127,o),
(614,47,c),
(614,43,o),
(614.167,38.833,o),
(614.5,34.5,cs),
(614.833,30.167,o),
(615,25.667,o),
(615,21,cs),
(615,-115.3,o),
(501.168,-277.608,o),
(370.5,-370,cs),
(304.5,-416.667,o),
(233,-446,o),
(169,-446,cs),
(41.345,-446,o),
(-44,-382.263,o),
(-44,-285,cs),
(-44,-241,o),
(-13.333,-190.5,o),
(56,-132.5,cs),
(125.333,-74.5,o),
(233.667,-7.667,o),
(387,71,c),
(364.333,80.333,o),
(338.667,80,o),
(316,80,cs),
(300.667,80,o),
(283,79.667,o),
(263,79,cs),
(243,78.333,o),
(222.667,78,o),
(202,78,cs),
(141.556,78,o),
(79,79.704,o),
(79,110,cs),
(79,138,o),
(91.167,165.5,o),
(130.5,207.5,cs),
(169.833,249.5,o),
(234.667,306.667,o),
(340,392,c),
(553,549,l),
(548.333,549,o),
(512,548,o),
(444,546,cs),
(376,544,o),
(281,543,o),
(159,543,cs),
(124.333,543,o),
(109,566.667,o),
(109,584,cs),
(111.639,623.587,o),
(138.715,688,o),
(189,688,cs),
(202.333,688,o),
(224,688.167,o),
(254,688.5,cs),
(284,688.833,o),
(318,689,o),
(356,689,cs),
(394,689,o),
(433.667,689.333,o),
(475,690,cs),
(516.333,690.667,o),
(555,691,o),
(591,691,cs),
(627,691,o),
(658,691.167,o),
(684,691.5,cs),
(710,691.833,o),
(727,692,o),
(735,692,cs),
(783,692,o),
(791,656,o),
(791,632,cs),
(791,582.271,o),
(753.328,540.399,o),
(651,465,cs),
(629.043,449.317,o),
(551.975,392.981,o),
(476,336,cs),
(431.333,303.333,o),
(382.333,267.333,o),
(329,228,c),
(350,228,ls),
(435.333,228,o),
(513.333,202.333,o),
(564,161,c),
(790.883,286.453,o),
(931.822,380.712,o),
(1038,476,cs)
);
}
);
width = 847;
}
);
unicode = 122;
},
{
glyphname = fi;
lastChange = "2024-04-18 12:44:07 +0000";
layers = (
{
layerId = "DC66AB0F-19FD-4F06-8C39-5D32AA939720";
shapes = (
{
closed = 1;
nodes = (
(1098,859.471,o),
(1055.021,781,o),
(952,781,cs),
(821.07,781,o),
(786,817.808,o),
(786,870,cs),
(786,943.325,o),
(855,965.351,o),
(855,992,cs),
(855,1002.667,o),
(846,1015,o),
(826,1015,cs),
(736.763,1015,o),
(568.526,855.621,o),
(501,692,c),
(811,692,ls),
(861.667,692,o),
(904,655.667,o),
(904,605,c),
(902.667,593,o),
(901.667,581,o),
(895,569,cs),
(866.044,515.225,o),
(846.014,471.229,o),
(824,425,cs),
(795.692,366.025,o),
(736,260.326,o),
(736,194,cs),
(736,158,o),
(754.667,150,o),
(788,150,cs),
(841.488,150,o),
(909.807,188.159,o),
(969,236.5,cs),
(1029.743,286.107,o),
(1085.715,343.458,o),
(1112,375,c),
(1125.333,387.667,o),
(1138.667,394,o),
(1152,394,cs),
(1176,394,o),
(1193,370.333,o),
(1193,337,cs),
(1193,306.333,o),
(1178.667,269.667,o),
(1144,239,c),
(1011.9,104.31,o),
(858.943,-25,o),
(707,-25,cs),
(599,-25,o),
(533,28.667,o),
(533,146,cs),
(533,226.355,o),
(568.06,325.395,o),
(611,417,cs),
(633.667,466.333,o),
(660,515.667,o),
(690,565,c),
(657.333,564.333,o),
(625,564,o),
(593,564,cs),
(565.667,563.333,o),
(537.333,563,o),
(508,563,cs),
(478.667,563,o),
(453.333,563,o),
(432,563,c),
(387.238,475.197,o),
(299.874,292.534,o),
(234.5,153.5,cs),
(158.279,-8.604,o),
(97.819,-136.362,o),
(67,-198,cs),
(37.748,-259.163,o),
(-21.762,-303,o),
(-71,-303,cs),
(-103,-303,o),
(-133,-287.667,o),
(-133,-253,cs),
(-133,-235.667,o),
(-124.667,-212.667,o),
(-110,-182,cs),
(243,566,l),
(190,566,ls),
(116.667,566,o),
(95,592.333,o),
(95,623,cs),
(95,655,o),
(129,692,o),
(193,692,cs),
(311,692,l),
(408.333,882.667,o),
(508,1003,o),
(604,1075,cs),
(700,1147,o),
(791.333,1171,o),
(874,1171,cs),
(1016.019,1171,o),
(1098,1053.535,o),
(1098,954,cs)
);
}
);
width = 986;
}
);
unicode = 64257;
},
{
glyphname = fl;
lastChange = "2024-04-18 12:44:07 +0000";
layers = (
{
layerId = "DC66AB0F-19FD-4F06-8C39-5D32AA939720";
shapes = (
{
closed = 1;
nodes = (
(783,692,l),
(930,1006,l),
(886.667,1027.333,o),
(846.667,1038,o),
(810,1038,cs),
(738,1038,o),
(684,996,o),
(636,932,cs),
(588,868,o),
(546.333,781.333,o),
(501,692,c),
(734,692,l),
(734,692,l)
);
},
{
closed = 1;
nodes = (
(764.333,258.333,o),
(747,213,o),
(747,181,cs),
(747,161,o),
(753.333,148,o),
(776,148,cs),
(818.654,148,o),
(894.796,188.37,o),
(972.5,240.5,cs),
(1050.765,293.007,o),
(1126.141,351.121,o),
(1189,405,cs),
(1199.667,414.333,o),
(1216.333,418,o),
(1227,418,cs),
(1253.667,418,o),
(1273,397.667,o),
(1273,367,cs),
(1273,339,o),
(1256.667,302.333,o),
(1210,269,c),
(1124.667,190.333,o),
(1037.5,117.5,o),
(951.5,63.5,cs),
(865.5,9.5,o),
(780,-25,o),
(700,-25,cs),
(591.128,-25,o),
(557,37.268,o),
(557,116,cs),
(557,181.333,o),
(579.333,253.667,o),
(606,311,cs),
(625.333,355,o),
(645.167,398.667,o),
(665.5,442,cs),
(685.833,485.333,o),
(705,526.333,o),
(723,565,c),
(671,563.667,o),
(621.667,563,o),
(575,563,cs),
(528.333,563,o),
(480.667,563,o),
(432,563,c),
(387.238,475.197,o),
(299.874,292.534,o),
(234.5,153.5,cs),
(158.279,-8.604,o),
(97.819,-136.362,o),
(67,-198,cs),
(37.748,-259.163,o),
(-21.762,-303,o),
(-71,-303,cs),
(-103,-303,o),
(-133,-287.667,o),
(-133,-253,cs),
(-133,-235.667,o),
(-124.667,-212.667,o),
(-110,-182,cs),
(243,566,l),
(190,566,ls),
(116.667,566,o),
(95,592.333,o),
(95,623,cs),
(95,655,o),
(129,692,o),
(193,692,cs),
(311,692,l),
(405.667,873.333,o),
(493,994.667,o),
(577,1072,cs),
(661,1149.333,o),
(739.667,1181,o),
(817,1181,cs),
(877,1181,o),
(932.667,1162.667,o),
(990,1132,c),
(1046,1252,ls),
(1092.176,1352.048,o),
(1238,1342.534,o),
(1238,1251,cs),
(1238,1225.667,o),
(1225.333,1200.667,o),
(1208,1170,cs),
(1159.667,1079.134,o),
(1082.581,926.174,o),
(993.5,740.5,cs),
(896.103,537.491,o),
(835.747,411.573,o),
(779,289,cs)
);
}
);
width = 1034;
}
);
unicode = 64258;
},
{
glyphname = ordfeminine;
lastChange = "2024-04-18 12:44:07 +0000";
layers = (
{
layerId = "DC66AB0F-19FD-4F06-8C39-5D32AA939720";
shapes = (
{
closed = 1;
nodes = (
(438.891,1172,o),
(340,1052.534,o),
(340,941,cs),
(340,895.823,o),
(347.434,837,o),
(411,837,cs),
(448.381,837,o),
(507.95,890.65,o),
(559,952.5,cs),
(609.813,1014.062,o),
(651,1078.621,o),
(651,1102,cs),
(651,1145.404,o),
(583.137,1172,o),
(546,1172,cs)
);
},
{
closed = 1;
nodes = (
(913.452,754.295,o),
(796.931,686,o),
(717,686,cs),
(665,686,o),
(627,714.333,o),
(627,793,cs),
(627,821,o),
(630.333,869.333,o),
(641,900,c),
(576.638,810.884,o),
(461.776,687,o),
(343,687,cs),
(281.991,687,o),
(174,734.433,o),
(174,857,cs),
(174,928.862,o),
(204.719,1040.811,o),
(272.5,1144,cs),
(340.889,1248.115,o),
(447.214,1326,o),
(587,1326,cs),
(636.333,1326,o),
(673.333,1310.667,o),
(700,1296,cs),
(715.333,1287.333,o),
(728.333,1277.333,o),
(739,1266,c),
(749,1271.333,o),
(759,1276.333,o),
(769,1281,cs),
(786.333,1287.667,o),
(805.333,1296,o),
(820,1296,cs),
(862.667,1296,o),
(893,1267,o),
(893,1239,cs),
(893,1235,o),
(892.667,1232,o),
(892,1230,cs),
(875.755,1181.264,o),
(835.109,1072.104,o),
(774,901,cs),
(768,881.667,o),
(765,866,o),
(765,854,cs),
(765,832.667,o),
(774,822,o),
(792,822,cs),
(805.333,822,o),
(823,828,o),
(845,840,cs),
(867,852,o),
(894,870.667,o),
(926,896,cs),
(935.333,904,o),
(945.333,907,o),
(952,907,cs),
(974.667,907,o),
(992,880.667,o),
(992,854,cs),
(992,838,o),
(986.667,824.667,o),
(976,814,cs)
);
}
);
width = 870;
}
);
unicode = 170;
},
{
glyphname = ordmasculine;
lastChange = "2024-04-18 12:44:07 +0000";
layers = (
{
layerId = "DC66AB0F-19FD-4F06-8C39-5D32AA939720";
shapes = (
{
closed = 1;
nodes = (
(483.786,1174,o),
(386,1057.976,o),
(386,945,cs),
(386,901.923,o),
(395.226,836,o),
(463,836,cs),
(567.193,836,o),
(666,955.023,o),
(666,1071,cs),
(666,1118.21,o),
(659.302,1174,o),
(589,1174,cs)
);
},
{
closed = 1;
nodes = (
(843,903.282,o),
(645.763,688,o),
(389,688,cs),
(321.572,688,o),
(208,739.404,o),
(208,869,cs),
(208,934.096,o),
(238.15,1046.563,o),
(308.5,1147.5,cs),
(378.742,1248.282,o),
(489.147,1323,o),
(633,1323,cs),
(719.151,1323,o),
(843,1282.056,o),
(843,1150,cs)
);
}
);
width = 848;
}
);
unicode = 186;
},
{
glyphname = zero;
lastChange = "2024-04-18 12:44:07 +0000";
layers = (
{
layerId = "DC66AB0F-19FD-4F06-8C39-5D32AA939720";
shapes = (
{
closed = 1;
nodes = (
(769,695.667,o),
(730.667,734,o),
(676,734,cs),
(502.178,734,o),
(339,519.456,o),
(339,302,cs),
(339,212.133,o),
(363.508,128,o),
(451,128,cs),
(551.807,128,o),
(634.402,200.929,o),
(688.5,303,cs),
(741.868,403.694,o),
(769,514.88,o),
(769,601,cs)
);
},
{
closed = 1;
nodes = (
(957,473.199,o),
(905.318,320.107,o),
(809,191,cs),
(713.823,63.422,o),
(576.715,-25,o),
(423,-25,cs),
(257.499,-25,o),
(154,103.598,o),
(154,294,cs),
(154,420.062,o),
(208.682,568.933,o),
(304.5,694,cs),
(399.285,817.72,o),
(536.106,905,o),
(686,905,cs),
(847.631,905,o),
(957,778.576,o),
(957,601,cs)
);
}
);
width = 896;
}
);
unicode = 48;
},
{
glyphname = one;
lastChange = "2024-04-18 12:44:07 +0000";
layers = (
{
layerId = "DC66AB0F-19FD-4F06-8C39-5D32AA939720";
shapes = (
{
closed = 1;
nodes = (
(326.41,206.944,o),
(374.839,310.756,o),
(433,416,cs),
(570,665,l),
(545.346,655.518,o),
(475.395,621.465,o),
(354,581,c),
(350,578.333,o),
(342.667,578,o),
(340,578,cs),
(318.667,578,o),
(299,597.667,o),
(299,627,cs),
(299,652.333,o),
(312.667,683.667,o),
(354,717,c),
(398.667,747,o),
(443.333,774,o),
(488,798,cs),
(560.465,836.821,o),
(655.995,879,o),
(723,879,cs),
(761.667,879,o),
(795,860.667,o),
(795,810,cs),
(795,794,o),
(793.667,772.667,o),
(783,750,cs),
(754.028,690.124,o),
(705.535,578.063,o),
(647.5,443,cs),
(588.456,305.589,o),
(532.512,181.953,o),
(492,99,cs),
(453.044,21.089,o),
(380.969,-24,o),
(322,-24,cs),
(279.333,-24,o),
(245,-2,o),
(245,42,cs),
(245,56.667,o),
(246,78.333,o),
(258,97,cs)
);
}
);
width = 736;
}
);
unicode = 49;
},
{
glyphname = two;
lastChange = "2024-04-18 12:44:07 +0000";
layers = (
{
layerId = "DC66AB0F-19FD-4F06-8C39-5D32AA939720";
shapes = (
{
closed = 1;
nodes = (
(864.333,168.333,o),
(868,169,o),
(872,169,cs),
(900,169,o),
(921,144.667,o),
(921,114,cs),
(921,24.855,o),
(780.981,-24,o),
(677,-24,cs),
(634.333,-24,o),
(595.333,-20.667,o),
(546,-6,cs),
(496.667,8.667,o),
(438,35.333,o),
(354,82,c),
(250.881,17.332,o),
(194.945,-21,o),
(173,-21,cs),
(142.181,-21,o),
(100,21.798,o),
(100,66,cs),
(100,84.667,o),
(107.667,104.333,o),
(129,119,c),
(266.914,194.226,o),
(397.382,274.054,o),
(512,372,cs),
(621.026,465.167,o),
(696,564.229,o),
(696,655,cs),
(696,715,o),
(664,737,o),
(616,737,cs),
(558.55,737,o),
(486.423,703.982,o),
(418.5,668.5,cs),
(353.162,634.368,o),
(296.836,600,o),
(272,600,cs),
(228.776,600,o),
(197,640.112,o),
(197,680,cs),
(197,729.095,o),
(271.018,786.457,o),
(368,830,cs),
(468.598,875.166,o),
(579.156,905,o),
(663,905,cs),
(796.065,905,o),
(900,842.192,o),
(900,670,cs),
(900,596.667,o),
(880.333,524.5,o),
(819,446.5,cs),
(757.667,368.5,o),
(656.667,287,o),
(494,195,c),
(551.333,169.667,o),
(622,150,o),
(674,150,cs),
(751.301,150,o),
(792.13,156.712,o),
(859,167,cs)
);
}
);
width = 896;
}
);
unicode = 50;
},
{
glyphname = three;
lastChange = "2024-04-18 12:44:07 +0000";
layers = (
{
layerId = "DC66AB0F-19FD-4F06-8C39-5D32AA939720";
shapes = (
{
closed = 1;
nodes = (
(552,304.939,o),
(533.51,360,o),
(410,360,cs),
(399.333,360,o),
(388.167,359.167,o),
(376.5,357.5,cs),
(364.833,355.833,o),
(352.333,355,o),
(339,355,cs),
(301.667,355,o),
(285,382.333,o),
(285,409,cs),
(285,443.667,o),
(320,473.333,o),
(384,484,cs),
(476,498.667,o),
(542.167,535.5,o),
(585.5,573.5,cs),
(628.833,611.5,o),
(649,650,o),
(649,670,cs),
(649,708.667,o),
(617.667,736,o),
(579,736,cs),
(450.123,736,o),
(372.332,686,o),
(302,686,cs),
(263.333,686,o),
(229,714,o),
(229,750,cs),
(229,764.667,o),
(235.333,780.333,o),
(248,797,c),
(323.731,853.798,o),
(470.785,903,o),
(589,903,cs),
(714.057,903,o),
(820,851.229,o),
(820,700,cs),
(820,596,o),
(730.667,497,o),
(568,441,c),
(700.562,409.809,o),
(739,327.494,o),
(739,253,cs),
(739,99.592,o),
(665.481,-17.293,o),
(553.5,-98,cs),
(439.126,-180.432,o),
(299.271,-225.943,o),
(165,-254,cs),
(143.667,-258,o),
(128.667,-261,o),
(114,-261,cs),
(63.333,-261,o),
(39,-236.333,o),
(39,-207,cs),
(39,-176.333,o),
(66,-140.667,o),
(118,-126,c),
(203.911,-107.59,o),
(304.853,-68.922,o),
(397,-4,cs),
(485.445,58.314,o),
(550.065,143.18,o),
(552,238,cs)
);
}
);
width = 800;
}
);
unicode = 51;
},
{
glyphname = four;
lastChange = "2024-04-18 12:44:07 +0000";
layers = (
{
layerId = "DC66AB0F-19FD-4F06-8C39-5D32AA939720";
shapes = (
{
closed = 1;
nodes = (
(926.77,599.83,o),
(859.667,460.333,o),
(809,351,cs),
(778.333,286.333,o),
(748.667,223.667,o),
(720,163,c),
(899,163,ls),
(925.667,163,o),
(941,139,o),
(941,111,cs),
(941,59.612,o),
(905.339,0,o),
(834,0,cs),
(651,0,l),
(497,-341,l),
(473,-387.667,o),
(436.667,-406,o),
(402,-406,cs),
(358,-406,o),
(322,-376.333,o),
(322,-335,cs),
(322,-325.667,o),
(325,-316.667,o),
(329,-306,cs),
(461,0,l),
(194,0,ls),
(154.461,0,o),
(120,6.648,o),
(120,45,cs),
(120,67.667,o),
(128.667,96.333,o),
(154,143,cs),
(194.464,218.147,o),
(255.04,339.495,o),
(320.5,479,cs),
(387.718,622.25,o),
(427.824,710.404,o),
(465,806,cs),
(485,862,o),
(531.333,883,o),
(574,883,cs),
(619.333,883,o),
(660.667,858.333,o),
(662,825,c),
(661.333,821.667,o),
(660.833,818.5,o),
(660.5,815.5,cs),
(660.167,812.5,o),
(659.333,809.333,o),
(658,806,cs),
(562.491,572.846,o),
(476.757,406.946,o),
(362,167,c),
(379.333,167.667,o),
(395.167,168,o),
(409.5,168,cs),
(423.833,168,o),
(436.667,168,o),
(448,168,cs),
(480,168,o),
(505.333,168,o),
(524,168,cs),
(552,167,l),
(564,196,ls),
(579.775,232.809,o),
(648.069,379.812,o),
(709.5,509.5,cs),
(730.5,553.833,o),
(751.5,598.333,o),
(772.5,643,cs),
(793.5,687.667,o),
(813.333,729.333,o),
(832,768,cs),
(866.667,848,o),
(914.333,883,o),
(949,883,cs),
(979.667,883,o),
(1004,856.667,o),
(1004,810,cs),
(1004,784.667,o),
(997.667,755,o),
(983,723,cs)
);
}
);
width = 976;
}
);
unicode = 52;
},
{
glyphname = five;
lastChange = "2024-04-18 12:44:07 +0000";
layers = (
{
layerId = "DC66AB0F-19FD-4F06-8C39-5D32AA939720";
shapes = (
{
closed = 1;
nodes = (
(846,115.861,o),
(772.019,-5.607,o),
(660.5,-90,cs),
(545.097,-177.332,o),
(406.532,-225.889,o),
(272,-254,cs),
(250.667,-258,o),
(235.667,-261,o),
(221,-261,cs),
(170.333,-261,o),
(146,-236.333,o),
(146,-207,cs),
(146,-176.333,o),
(173,-140.667,o),
(225,-126,c),
(307.43,-107.906,o),
(411.305,-64.899,o),
(497.5,-0.5,cs),
(583.738,63.931,o),
(647.063,151.14,o),
(649,248,cs),
(649,329.01,o),
(586,366,o),
(500,366,cs),
(453.333,366,o),
(401.667,355.333,o),
(351,338,cs),
(299.175,320.725,o),
(283.232,290,o),
(254,290,cs),
(211.333,290,o),
(185,325.333,o),
(185,368,cs),
(185,383.333,o),
(188.333,398,o),
(195,412,cs),
(364,789,ls),
(392.842,851.929,o),
(418.648,879,o),
(486,879,cs),
(957,879,ls),
(994.333,879,o),
(1016,843.667,o),
(1016,805,cs),
(1016,755.915,o),
(981.515,703,o),
(904,703,cs),
(519,703,l),
(502.333,669.667,o),
(486,637.667,o),
(470,607,cs),
(456.667,581,o),
(443,554.167,o),
(429,526.5,cs),
(415,498.833,o),
(403.333,476,o),
(394,458,c),
(466,503.333,o),
(536.333,523,o),
(599,523,cs),
(746.521,523,o),
(846,414.85,o),
(846,269,cs)
);
}
);
width = 884;
}
);
unicode = 53;
},
{
glyphname = six;
lastChange = "2024-04-18 12:44:07 +0000";
layers = (
{
layerId = "DC66AB0F-19FD-4F06-8C39-5D32AA939720";
shapes = (
{
closed = 1;
nodes = (
(356,202.667,o),
(411,148,o),
(495,148,cs),
(637.148,148,o),
(786,339.863,o),
(786,480,cs),
(786,542.667,o),
(743,568,o),
(679,568,cs),
(601.925,568,o),
(495.543,529.234,o),
(404,470,c),
(372,400,o),
(356,336.667,o),
(356,280,cs)
);
},
{
closed = 1;
nodes = (
(171,397.833,o),
(218.839,550.736,o),
(325,725,cs),
(395.667,841,o),
(494.167,959.5,o),
(621.5,1073.5,cs),
(685.167,1130.5,o),
(756.667,1184,o),
(836,1234,cs),
(845.333,1240.667,o),
(856.333,1244,o),
(869,1244,cs),
(914.315,1244,o),
(956,1200.547,o),
(956,1159,cs),
(956,1136.333,o),
(946,1113.667,o),
(918,1095,cs),
(792.667,1011,o),
(701.667,926,o),
(635,850,cs),
(568.333,774,o),
(526.667,707,o),
(500,663,c),
(576,697.667,o),
(662,718,o),
(742,718,cs),
(869.098,718,o),
(974,654.396,o),
(974,488,cs),
(974,356.186,o),
(918.821,227.892,o),
(822.5,129.5,cs),
(726.226,31.155,o),
(600.723,-24,o),
(474,-24,cs),
(293.112,-24,o),
(171,112.82,o),
(171,300,cs)
);
}
);
width = 980;
}
);
unicode = 54;
},
{
glyphname = seven;
lastChange = "2024-04-18 12:44:07 +0000";
layers = (
{
layerId = "DC66AB0F-19FD-4F06-8C39-5D32AA939720";
shapes = (
{
closed = 1;
nodes = (
(822,880,ls),
(882,880,o),
(925.167,873,o),
(951.5,859,cs),
(977.833,845,o),
(991,826,o),
(991,802,cs),
(991,755.333,o),
(946,691.667,o),
(870,621,c),
(836.636,583.187,o),
(755.694,458.287,o),
(661.5,316.5,cs),
(561.856,166.509,o),
(473.272,30.174,o),
(412,-48,cs),
(350.667,-126.667,o),
(297.667,-156,o),
(259,-156,cs),
(211,-156,o),
(183,-120.667,o),
(183,-82,cs),
(183,-61.333,o),
(190.667,-42.333,o),
(206,-25,c),
(266.708,57.783,o),
(371.345,204.156,o),
(483.5,366,cs),
(587.238,515.698,o),
(693.18,661.232,o),
(728,706,c),
(506,705,ls),
(391.364,705,o),
(304.506,708.422,o),
(261.5,723,cs),
(222.167,736.333,o),
(217,758.667,o),
(217,792,cs),
(217,868.68,o),
(296.309,881,o),
(354,881,cs),
(365.333,881,o),
(374.833,880.667,o),
(382.5,880,cs),
(390.167,879.333,o),
(395.667,879,o),
(399,879,cs)
);
}
);
width = 870;
}
);
unicode = 55;
},
{
glyphname = eight;
lastChange = "2024-04-18 12:44:07 +0000";
layers = (
{
layerId = "DC66AB0F-19FD-4F06-8C39-5D32AA939720";
shapes = (
{
closed = 1;
nodes = (
(698,354,o),
(661.333,412.333,o),
(600,467,c),
(527.172,409.778,o),
(460.837,361.37,o),
(413,319,cs),
(366.333,277.667,o),
(338,243,o),
(338,215,cs),
(338,157.667,o),
(396.333,120,o),
(487,120,cs),
(601.323,120,o),
(698,185.782,o),
(698,282,cs)
);
},
{
closed = 1;
nodes = (
(896.667,937.667,o),
(856.667,950,o),
(814,950,cs),
(685.448,950,o),
(553,826.881,o),
(553,751,cs),
(553,696.333,o),
(585.667,646.667,o),
(651,602,c),
(809.897,660.262,o),
(951,794.053,o),
(951,870,cs),
(951,884.667,o),
(945.333,897,o),
(934,907,cs)
);
},
{
closed = 1;
nodes = (
(1083.177,1040.013,o),
(1141,967.727,o),
(1141,893,cs),
(1141,813.03,o),
(1071.208,721.178,o),
(987,649,cs),
(903.567,577.486,o),
(813.752,525.461,o),
(774,515,c),
(842,459,o),
(876,386.667,o),
(876,298,cs),
(876,104.58,o),
(694.763,-25,o),
(467,-25,cs),
(297.07,-25,o),
(160,67.274,o),
(160,200,cs),
(160,258.667,o),
(183,312.667,o),
(229,362,cs),
(251,385.333,o),
(337,444.667,o),
(487,540,c),
(411,609.333,o),
(373,685,o),
(373,761,cs),
(373,845.713,o),
(418.004,931.393,o),
(497.5,998.5,cs),
(574.091,1063.154,o),
(679.844,1105,o),
(790,1105,cs),
(830.667,1105,o),
(870.333,1099.667,o),
(909,1089,cs)
);
}
);
width = 964;
}
);
unicode = 56;
},
{
glyphname = nine;
lastChange = "2024-04-18 12:44:07 +0000";
layers = (
{
layerId = "DC66AB0F-19FD-4F06-8C39-5D32AA939720";
shapes = (
{
closed = 1;
nodes = (
(889,603.667,o),
(889.167,606.167,o),
(889.5,608.5,cs),
(889.833,610.833,o),
(890,613.667,o),
(890,617,cs),
(890,685,o),
(841.333,733,o),
(764,733,cs),
(689.625,733,o),
(607.359,678.333,o),
(542.5,601.5,cs),
(473.888,520.221,o),
(434,429.025,o),
(434,357,cs),
(434,283.667,o),
(471.667,253,o),
(529,253,cs),
(605.508,253,o),
(722.086,300.564,o),
(816,371,c),
(858,456.333,o),
(882.333,533,o),
(889,601,cs)
);
},
{
closed = 1;
nodes = (
(1058.667,458.333,o),
(993.333,292.333,o),
(868,119,cs),
(742.667,-54.333,o),
(557.667,-237,o),
(303,-393,c),
(292.333,-403.667,o),
(279.667,-403,o),
(269,-403,cs),
(227.667,-403,o),
(190,-367.333,o),
(190,-326,cs),
(190,-303.333,o),
(201.667,-274,o),
(235,-254,cs),
(368.333,-174,o),
(469.5,-92,o),
(543.5,-20,cs),
(617.5,52,o),
(666,115.333,o),
(698,158,c),
(618,123.333,o),
(530,103,o),
(450,103,cs),
(335.051,103,o),
(244,167.397,o),
(244,323,cs),
(244,471.345,o),
(310.906,618.391,o),
(419.5,728,cs),
(528.134,837.649,o),
(666.067,905,o),
(803,905,cs),
(970.11,905,o),
(1074,786.746,o),
(1074,625,cs),
(1074,610.333,o),
(1073.333,595.667,o),
(1072,581,cs)
);
}
);
width = 1037;
}
);
unicode = 57;
},
{
glyphname = fraction;
lastChange = "2024-04-18 12:44:07 +0000";
layers = (
{
layerId = "DC66AB0F-19FD-4F06-8C39-5D32AA939720";
shapes = (
{
closed = 1;
nodes = (
(1091,1206.667,o),
(933.167,937.333,o),
(775.5,668,cs),
(617.833,398.667,o),
(460,129.333,o),
(302,-140,cs),
(283.333,-173.333,o),
(255.333,-185,o),
(226,-185,cs),
(187.333,-185,o),
(149,-163,o),
(149,-131,cs),
(149,-124.333,o),
(150,-114.333,o),
(154,-109,c),
(310.667,162.333,o),
(466.333,432.167,o),
(621,700.5,cs),
(775.667,968.833,o),
(931.333,1238.667,o),
(1088,1510,cs),
(1106.667,1540.667,o),
(1137,1554,o),
(1169,1554,cs),
(1219.667,1554,o),
(1250,1527,o),
(1250,1491,cs),
(1250,1484.333,o),
(1249.667,1479.333,o),
(1249,1476,c)
);
}
);
width = 835;
}
);
unicode = 8260;
},
{
glyphname = period;
lastChange = "2024-04-18 12:44:07 +0000";
layers = (
{
layerId = "DC66AB0F-19FD-4F06-8C39-5D32AA939720";
shapes = (
{
closed = 1;
nodes = (
(580,54.895,o),
(513.04,-16,o),
(437,-16,cs),
(372.584,-16,o),
(322,38.836,o),
(322,102,cs),
(322,182,o),
(387.333,254,o),
(470,254,cs),
(535.333,254,o),
(580,204.333,o),
(580,139,cs)
);
}
);
width = 732;
}
);
unicode = 46;
},
{
glyphname = comma;
lastChange = "2024-04-18 12:44:07 +0000";
layers = (
{
layerId = "DC66AB0F-19FD-4F06-8C39-5D32AA939720";
shapes = (
{
closed = 1;
nodes = (
(548.667,154.333,o),
(496.167,77.333,o),
(444.5,2,cs),
(392.833,-73.333,o),
(340.667,-150.333,o),
(288,-229,cs),
(265.333,-261,o),
(238.667,-275,o),
(216,-275,cs),
(196,-275,o),
(181,-264.667,o),
(181,-246,cs),
(181,-239.333,o),
(182.333,-233.667,o),
(185,-229,c),
(213.667,-150.333,o),
(241.5,-73.333,o),
(268.5,2,cs),
(295.5,77.333,o),
(323.333,154.333,o),
(352,233,cs),
(373.515,292.166,o),
(445.417,318,o),
(504,318,cs),
(560,318,o),
(609,296.333,o),
(609,259,cs),
(609,250.333,o),
(606.667,241.667,o),
(602,233,c)
);
}
);
width = 737;
}
);
unicode = 44;
},
{
glyphname = colon;
lastChange = "2024-04-18 12:44:07 +0000";
layers = (
{
layerId = "DC66AB0F-19FD-4F06-8C39-5D32AA939720";
shapes = (
{
closed = 1;
nodes = (
(562.955,56.103,o),
(492.049,-16,o),
(412,-16,cs),
(353.333,-16,o),
(316,26,o),
(316,82,cs),
(316,169.4,o),
(401.6,254,o),
(489,254,cs),
(549,254,o),
(581,218.667,o),
(581,164,cs),
(581,156,o),
(580.333,147,o),
(579,139,cs)
);
},
{
closed = 1;
nodes = (
(797.575,495.134,o),
(722.042,426,o),
(641,426,cs),
(582.333,426,o),
(545,464,o),
(545,520,cs),
(545,607.212,o),
(633.552,692,o),
(721,692,cs),
(778.333,692,o),
(813,656.333,o),
(813,599,cs),
(813,591,o),
(812.333,582.333,o),
(811,573,cs)
);
}
);
width = 815;
}
);
unicode = 58;
},
{
glyphname = semicolon;
lastChange = "2024-04-18 12:44:07 +0000";
layers = (
{
layerId = "DC66AB0F-19FD-4F06-8C39-5D32AA939720";
shapes = (
{
closed = 1;
nodes = (
(579,233,l),
(176,-279,l),
(73,-279,l),
(329,233,l),
(329,233,l)
);
},
{
closed = 1;
nodes = (
(694.237,494.971,o),
(624.714,426,o),
(544,426,cs),
(484,426,o),
(446,467.667,o),
(446,525,cs),
(446,612.713,o),
(520.914,688,o),
(607,688,cs),
(667,688,o),
(706,652.667,o),
(706,590,cs),
(706,587.333,o),
(706,584.667,o),
(706,582,cs),
(706,579.333,o),
(705.667,576.333,o),
(705,573,cs)
);
}
);
width = 711;
}
);
unicode = 59;
},
{
glyphname = ellipsis;
lastChange = "2024-04-18 12:44:07 +0000";
layers = (
{
layerId = "DC66AB0F-19FD-4F06-8C39-5D32AA939720";
shapes = (
{
closed = 1;
nodes = (
(1439,54.895,o),
(1372.04,-16,o),
(1296,-16,cs),
(1231.584,-16,o),
(1181,38.836,o),
(1181,102,cs),
(1181,182,o),
(1246.333,254,o),
(1329,254,cs),
(1394.333,254,o),
(1439,204.333,o),
(1439,139,cs)
);
},
{
closed = 1;
nodes = (
(991,54.895,o),
(924.04,-16,o),
(848,-16,cs),
(783.584,-16,o),
(733,38.836,o),
(733,102,cs),
(733,182,o),
(798.333,254,o),
(881,254,cs),
(946.333,254,o),
(991,204.333,o),
(991,139,cs)
);
},
{
closed = 1;
nodes = (
(543,54.895,o),
(476.04,-16,o),
(400,-16,cs),
(335.584,-16,o),
(285,38.836,o),
(285,102,cs),
(285,182,o),
(350.333,254,o),
(433,254,cs),
(498.333,254,o),
(543,204.333,o),
(543,139,cs)
);
}
);
width = 1488;
}
);
unicode = 8230;
},
{
glyphname = exclam;
lastChange = "2024-04-18 12:44:07 +0000";
layers = (
{
layerId = "DC66AB0F-19FD-4F06-8C39-5D32AA939720";
shapes = (
{
closed = 1;
nodes = (
(628.387,56.752,o),
(555.204,-16,o),
(475,-16,cs),
(415,-16,o),
(376,28.667,o),
(376,86,cs),
(376,172.917,o),
(457.4,254,o),
(543,254,cs),
(603,254,o),
(640,212.333,o),
(640,155,cs),
(640,152.333,o),
(640,149.833,o),
(640,147.5,cs),
(640,145.167,o),
(639.667,142.333,o),
(639,139,cs)
);
},
{
closed = 1;
nodes = (
(963.771,920.836,o),
(880.229,777.164,o),
(734,498,cs),
(714,459.333,o),
(671,440,o),
(639,440,cs),
(612.333,440,o),
(594,451,o),
(594,475,cs),
(594,483,o),
(595.667,490.667,o),
(599,498,cs),
(662.631,646.472,o),
(697.136,724.049,o),
(750,849,cs),
(795.129,955.668,o),
(844.851,1068.985,o),
(901,1200,cs),
(921.584,1246.313,o),
(977.56,1274,o),
(1039,1274,cs),
(1081.667,1274,o),
(1116,1258.667,o),
(1116,1224,cs),
(1116,1216.667,o),
(1114,1208.667,o),
(1110,1200,cs)
);
}
);
width = 959;
}
);
unicode = 33;
},
{
glyphname = exclamdown;
lastChange = "2024-04-18 12:44:07 +0000";
layers = (
{
layerId = "DC66AB0F-19FD-4F06-8C39-5D32AA939720";
shapes = (
{
closed = 1;
nodes = (
(494.842,1202.443,o),
(574.792,1274,o),
(654,1274,cs),
(710,1274,o),
(745,1235,o),
(745,1183,cs),
(745,1089.454,o),
(647.327,1004,o),
(561,1004,cs),
(505,1004,o),
(472,1039.333,o),
(472,1090,cs),
(472,1099.333,o),
(473.333,1108.333,o),
(476,1119,cs)
);
},
{
closed = 1;
nodes = (
(76.035,340.245,o),
(160.781,463.743,o),
(347,760,cs),
(369.667,798.667,o),
(412.333,818,o),
(447,818,cs),
(471,818,o),
(488,807.333,o),
(488,786,cs),
(488,779.333,o),
(487.333,769.333,o),
(482,760,cs),
(333.808,482.14,o),
(260.192,335.86,o),
(112,58,cs),
(87.309,8.619,o),
(22.351,-16,o),
(-31,-16,cs),
(-72.333,-16,o),
(-104,-1.667,o),
(-104,29,cs),
(-104,39.667,o),
(-101.333,47.333,o),
(-96,58,c)
);
}
);
width = 545;
}
);
unicode = 161;
},
{
glyphname = question;
lastChange = "2024-04-18 12:44:07 +0000";
layers = (
{
layerId = "DC66AB0F-19FD-4F06-8C39-5D32AA939720";
shapes = (
{
closed = 1;
nodes = (
(459.389,55.256,o),
(379.355,-16,o),
(302,-16,cs),
(246,-16,o),
(214,20.333,o),
(214,71,cs),
(214,161.803,o),
(309.705,254,o),
(400,254,cs),
(456,254,o),
(485,219.667,o),
(485,173,cs),
(485,161,o),
(483.667,149.667,o),
(481,139,cs)
);
},
{
closed = 1;
nodes = (
(616.4,557.527,o),
(535.175,462.741,o),
(504,390,cs),
(493.333,367.333,o),
(458,357,o),
(434,357,cs),
(407.333,357,o),
(384,370,o),
(384,394,cs),
(384,396,o),
(384.667,399.667,o),
(386,405,cs),
(412.667,505,o),
(505.667,607,o),
(627,699,c),
(725.803,762.335,o),
(875.282,869.8,o),
(894,942,cs),
(897.333,956.667,o),
(899,968.667,o),
(899,978,cs),
(899,1019.333,o),
(874.667,1037,o),
(836,1037,cs),
(776.805,1037,o),
(686.01,998.742,o),
(605.5,932.5,cs),
(579.167,910.833,o),
(556,886.667,o),
(536,860,cs),
(521.333,840.667,o),
(503.333,831,o),
(482,831,cs),
(447.578,831,o),
(410,850.535,o),
(410,881,cs),
(410,899.667,o),
(420.667,916.667,o),
(438,938,cs),
(569.991,1099.622,o),
(769.784,1188,o),
(911,1188,cs),
(1010.485,1188,o),
(1085,1142.809,o),
(1085,1041,cs),
(1085,881.406,o),
(985.648,801.265,o),
(733,640,c)
);
}
);
width = 903;
}
);
unicode = 63;
},
{
glyphname = questiondown;
lastChange = "2024-04-18 12:44:07 +0000";
layers = (
{
layerId = "DC66AB0F-19FD-4F06-8C39-5D32AA939720";
shapes = (
{
closed = 1;
nodes = (
(732.331,1109.61,o),
(808.651,1179,o),
(885,1179,cs),
(941,1179,o),
(978,1139,o),
(978,1087,cs),
(978,995.215,o),
(886.962,909,o),
(800,909,cs),
(742.667,909,o),
(710,945.333,o),
(710,996,cs),
(710,1004.667,o),
(711,1014,o),
(713,1024,cs)
);
},
{
closed = 1;
nodes = (
(584.728,596.413,o),
(674.646,696.41,o),
(702,773,cs),
(710,795.667,o),
(744.667,806,o),
(770,806,cs),
(798,806,o),
(822,792.333,o),
(822,767,cs),
(822,763,o),
(821.667,760,o),
(821,758,cs),
(799.667,658,o),
(711.333,556,o),
(594,464,c),
(475.721,385.147,o),
(335,273.947,o),
(335,190,cs),
(335,146,o),
(360.667,126,o),
(402,126,cs),
(477.447,126,o),
(616.656,193.938,o),
(693,303,cs),
(706.333,322.333,o),
(724,332,o),
(746,332,cs),
(782,332,o),
(820,310.667,o),
(820,280,cs),
(820,261.333,o),
(811,245,o),
(795,225,cs),
(672.129,68.143,o),
(481.153,-25,o),
(334,-25,cs),
(229.782,-25,o),
(153,24.345,o),
(153,133,cs),
(153,210.333,o),
(176.667,268.333,o),
(230,327,cs),
(283.333,385.667,o),
(366,444.333,o),
(486,523,c)
);
}
);
width = 943;
}
);
unicode = 191;
},
{
glyphname = bullet;
lastChange = "2024-04-18 12:44:07 +0000";
layers = (
{
layerId = "DC66AB0F-19FD-4F06-8C39-5D32AA939720";
shapes = (
{
closed = 1;
nodes = (
(464.434,358,o),
(312,504.925,o),
(312,692,cs),
(312,876.216,o),
(460.399,1028,o),
(660,1028,cs),
(857.638,1028,o),
(1008,878.135,o),
(1008,692,cs),
(1008,503.821,o),
(854.205,358,o),
(660,358,cs)
);
}
);
width = 1083;
}
);
unicode = 8226;
},
{
glyphname = asterisk;
lastChange = "2024-04-18 12:44:07 +0000";
layers = (
{
layerId = "DC66AB0F-19FD-4F06-8C39-5D32AA939720";
shapes = (
{
closed = 1;
nodes = (
(966,1053,l),
(681,995,l),
(761,791,l),
(611,721,l),
(570,950,l),
(337,721,l),
(265,823,l),
(523,1008,l),
(299,1077,l),
(412,1217,l),
(601,1106,l),
(699,1368,l),
(854,1368,l),
(698,1094,l),
(981,1192,l),
(981,1192,l)
);
}
);
width = 696;
}
);
unicode = 42;
},
{
glyphname = numbersign;
lastChange = "2024-04-18 12:44:07 +0000";
layers = (
{
layerId = "DC66AB0F-19FD-4F06-8C39-5D32AA939720";
shapes = (
{
closed = 1;
nodes = (
(809,823,l),
(787.667,780.333,o),
(766,738,o),
(744,696,cs),
(722,654,o),
(700.333,611.667,o),
(679,569,c),
(937,569,l),
(958.333,611.667,o),
(980,654,o),
(1002,696,cs),
(1024,738,o),
(1045.667,780.333,o),
(1067,823,c)
);
},
{
closed = 1;
nodes = (
(1456,946,ls),
(1473.333,946,o),
(1480,936.667,o),
(1480,922,cs),
(1480,883.583,o),
(1435.043,823,o),
(1407,823,cs),
(1189,823,l),
(1167,780.333,o),
(1144.833,738,o),
(1122.5,696,cs),
(1100.167,654,o),
(1078,611.667,o),
(1056,569,c),
(1260,569,ls),
(1277.333,569,o),
(1284,558.667,o),
(1284,544,cs),
(1284,508.283,o),
(1242.761,451,o),
(1216,451,cs),
(995,451,l),
(941.375,347.449,o),
(830.061,121.959,o),
(760,0,cs),
(749.333,-20,o),
(712.667,-31,o),
(682,-31,cs),
(654,-31,o),
(636,-24,o),
(636,-8,cs),
(636,-6.667,o),
(636.667,-4,o),
(638,0,c),
(702.048,123.17,o),
(780.072,273.483,o),
(872,451,c),
(614,451,l),
(555.114,337.289,o),
(466.337,151.089,o),
(380,0,cs),
(368,-20,o),
(335.667,-29,o),
(305,-29,cs),
(277,-29,o),
(259,-22.667,o),
(259,-8,cs),
(259,-6.667,o),
(259.667,-4,o),
(261,0,cs),
(308.571,99.673,o),
(423.857,313.62,o),
(495,451,c),
(270,451,ls),
(259.333,451,o),
(254,457.667,o),
(254,471,cs),
(254,501.186,o),
(288.562,569,o),
(318,569,cs),
(556,569,l),
(578.667,611.667,o),
(601,654,o),
(623,696,cs),
(645,738,o),
(667.333,780.333,o),
(690,823,c),
(469,823,ls),
(450.333,823,o),
(444,834.333,o),
(444,849,cs),
(444,884.361,o),
(484.419,946,o),
(514,946,cs),
(751,946,l),
(828.487,1092.671,o),
(908.738,1249.384,o),
(972,1368,cs),
(982.667,1388,o),
(1018.333,1398,o),
(1049,1398,cs),
(1077,1398,o),
(1096,1389.667,o),
(1096,1375,cs),
(1096,1371.667,o),
(1095.667,1369.333,o),
(1095,1368,cs),
(1039.398,1251.236,o),
(950.892,1091.545,o),
(874,946,c),
(1132,946,l),
(1198.355,1076.252,o),
(1282.19,1240.744,o),
(1349,1368,cs),
(1359.667,1388,o),
(1394.333,1399,o),
(1425,1399,cs),
(1453,1399,o),
(1472,1391,o),
(1472,1375,cs),
(1472,1372.333,o),
(1471.667,1370,o),
(1471,1368,cs),
(1408.859,1246.544,o),
(1326.43,1088.779,o),
(1251,946,c)
);
}
);
width = 1381;
}
);
unicode = 35;
},
{
glyphname = slash;
lastChange = "2024-04-18 12:44:07 +0000";
layers = (
{
layerId = "DC66AB0F-19FD-4F06-8C39-5D32AA939720";
shapes = (
{
closed = 1;
nodes = (
(1086,1206.667,o),
(928.167,937.333,o),
(770.5,668,cs),
(612.833,398.667,o),
(455,129.333,o),
(297,-140,cs),
(278.333,-173.333,o),
(250.333,-185,o),
(221,-185,cs),
(182.333,-185,o),
(144,-163,o),
(144,-131,cs),
(144,-124.333,o),
(145,-114.333,o),
(149,-109,c),
(305.667,162.333,o),
(461.333,432.167,o),
(616,700.5,cs),
(770.667,968.833,o),
(926.333,1238.667,o),
(1083,1510,cs),
(1101.667,1540.667,o),
(1132,1554,o),
(1164,1554,cs),
(1214.667,1554,o),
(1245,1527,o),
(1245,1491,cs),
(1245,1484.333,o),
(1244.667,1479.333,o),
(1244,1476,c)
);
}
);
width = 892;
}
);
unicode = 47;
},
{
glyphname = backslash;
lastChange = "2024-04-18 12:44:07 +0000";
layers = (
{
layerId = "DC66AB0F-19FD-4F06-8C39-5D32AA939720";
shapes = (
{
closed = 1;
nodes = (
(1086,1206.667,o),
(928.167,937.333,o),
(770.5,668,cs),
(612.833,398.667,o),
(455,129.333,o),
(297,-140,cs),
(278.333,-173.333,o),
(250.333,-185,o),
(221,-185,cs),
(182.333,-185,o),
(144,-163,o),
(144,-131,cs),
(144,-124.333,o),
(145,-114.333,o),
(149,-109,c),
(305.667,162.333,o),
(461.333,432.167,o),
(616,700.5,cs),
(770.667,968.833,o),
(926.333,1238.667,o),
(1083,1510,cs),
(1101.667,1540.667,o),
(1132,1554,o),
(1164,1554,cs),
(1214.667,1554,o),
(1245,1527,o),
(1245,1491,cs),
(1245,1484.333,o),
(1244.667,1479.333,o),
(1244,1476,c)
);
}
);
width = 892;
}
);
unicode = 92;
},
{
glyphname = hyphen;
lastChange = "2024-04-18 12:44:07 +0000";
layers = (
{
layerId = "DC66AB0F-19FD-4F06-8C39-5D32AA939720";
shapes = (
{
closed = 1;
nodes = (
(961,430,ls),
(983.667,430,o),
(998,407.333,o),
(998,382,cs),
(998,348.667,o),
(974.667,312,o),
(916,312,cs),
(465,312,ls),
(442.333,312,o),
(431,330.333,o),
(431,353,cs),
(431,387.816,o),
(460.448,430,o),
(527,430,cs)
);
}
);
width = 985;
}
);
unicode = 45;
},
{
glyphname = endash;
lastChange = "2024-04-18 12:44:07 +0000";
layers = (
{
layerId = "DC66AB0F-19FD-4F06-8C39-5D32AA939720";
shapes = (
{
closed = 1;
nodes = (
(297,699,l),
(767,699,l),
(767,555,l),
(297,555,l),
(297,555,l)
);
}
);
width = 889;
}
);
unicode = 8211;
},
{
glyphname = emdash;
lastChange = "2024-04-18 12:44:07 +0000";
layers = (
{
layerId = "DC66AB0F-19FD-4F06-8C39-5D32AA939720";
shapes = (
{
closed = 1;
nodes = (
(345,699,l),
(1285,699,l),
(1285,555,l),
(345,555,l),
(345,555,l)
);
}
);
width = 1406;
}
);
unicode = 8212;
},
{
glyphname = underscore;
lastChange = "2024-04-18 12:44:07 +0000";
layers = (
{
layerId = "DC66AB0F-19FD-4F06-8C39-5D32AA939720";
shapes = (
{
closed = 1;
nodes = (
(34,-143,ls),
(3.333,-143,o),
(-9,-131.667,o),
(-9,-113,cs),
(-9,-78.075,o),
(42.809,-28,o),
(98,-28,cs),
(998,-28,ls),
(1020.667,-28,o),
(1030,-40.667,o),
(1030,-58,cs),
(1030,-84.454,o),
(1008.747,-116.895,o),
(972.5,-134.5,cs),
(960.833,-140.167,o),
(948,-143,o),
(934,-143,cs)
);
}
);
width = 1024;
}
);
unicode = 95;
},
{
glyphname = parenleft;
lastChange = "2024-04-18 12:44:07 +0000";
layers = (
{
layerId = "DC66AB0F-19FD-4F06-8C39-5D32AA939720";
shapes = (
{
closed = 1;
nodes = (
(974.333,1591,o),
(1016.333,1609,o),
(1051,1609,cs),
(1084.908,1609,o),
(1112.979,1590.538,o),
(1125,1569.5,cs),
(1129,1562.5,o),
(1131,1556,o),
(1131,1550,cs),
(1131,1544,o),
(1129,1539,o),
(1125,1535,cs),
(785.103,1142.406,o),
(574,700.453,o),
(574,216,cs),
(574,69.628,o),
(579.283,1.295,o),
(611,-115,cs),
(611.667,-117.667,o),
(612,-121.667,o),
(612,-127,cs),
(612,-166.999,o),
(571.531,-196,o),
(529,-196,cs),
(493,-196,o),
(452.333,-175,o),
(439,-115,cs),
(414.866,-10.418,o),
(398,137.984,o),
(398,257,cs),
(398,690.733,o),
(572.238,1096.315,o),
(929,1535,cs)
);
}
);
width = 914;
}
);
unicode = 40;
},
{
glyphname = parenright;
lastChange = "2024-04-18 12:44:07 +0000";
layers = (
{
layerId = "DC66AB0F-19FD-4F06-8C39-5D32AA939720";
shapes = (
{
closed = 1;
nodes = (
(293.333,-191,o),
(240.333,-217,o),
(203,-217,cs),
(164.333,-217,o),
(144,-190.333,o),
(144,-161,cs),
(144,-145,o),
(149.333,-128.333,o),
(164,-115,c),
(501.194,272.64,o),
(714,721.45,o),
(714,1196,cs),
(714,1308,o),
(702,1421,o),
(678,1535,cs),
(676,1541.667,o),
(675,1548,o),
(675,1554,cs),
(675,1598,o),
(712.667,1628,o),
(754,1628,cs),
(792.667,1628,o),
(835.333,1601.667,o),
(850,1535,cs),
(876.667,1404.333,o),
(890,1278,o),
(890,1156,cs),
(890,936,o),
(846,729.833,o),
(758,522.5,cs),
(670,315.167,o),
(537.333,106.333,o),
(360,-115,c)
);
}
);
width = 680;
}
);
unicode = 41;
},
{
glyphname = braceleft;
lastChange = "2024-04-18 12:44:07 +0000";
layers = (
{
layerId = "DC66AB0F-19FD-4F06-8C39-5D32AA939720";
shapes = (
{
closed = 1;
nodes = (
(1405,1509,ls),
(1423.667,1509,o),
(1434,1492.667,o),
(1434,1470,cs),
(1434,1427.293,o),
(1397.325,1361,o),
(1323,1361,cs),
(1135.381,1361,o),
(1111.421,1331.211,o),
(1037,1193,cs),
(890,916,ls),
(838,821.333,o),
(803.833,768,o),
(768.5,736,cs),
(733.167,704,o),
(696.667,692,o),
(638,684,c),
(670,653.333,o),
(681,619,o),
(681,583,cs),
(681,536.333,o),
(660.667,488.667,o),
(634,438,cs),
(418,29,ls),
(410.667,13.667,o),
(407.333,3,o),
(408,-3,cs),
(408,-22.333,o),
(421.333,-36.167,o),
(448,-44.5,cs),
(474.667,-52.833,o),
(514,-57,o),
(566,-57,cs),
(594,-57,o),
(607,-75.333,o),
(607,-98,cs),
(607,-131.702,o),
(581.595,-173.685,o),
(536,-194.5,cs),
(520.667,-201.5,o),
(503.667,-205,o),
(485,-205,cs),
(319.667,-205,o),
(235,-156.333,o),
(235,-59,cs),
(235,-44.333,o),
(237.333,-30.667,o),
(240,-16,cs),
(245.84,11.255,o),
(255.969,42.641,o),
(277.5,86.5,cs),
(305.227,142.982,o),
(362.15,253.563,o),
(456,430,cs),
(480,476.667,o),
(502,529.667,o),
(502,567,cs),
(502,597.667,o),
(486.667,618,o),
(444,618,cs),
(414.667,618,o),
(401,637,o),
(401,661,cs),
(401,703.773,o),
(442.242,758,o),
(519,758,cs),
(605.721,758,o),
(664.186,808.841,o),
(727,924,cs),
(884,1226,ls),
(1011.091,1463.958,o),
(1081.777,1513,o),
(1328,1513,c)
);
}
);
width = 810;
}
);
unicode = 123;
},
{
glyphname = braceright;
lastChange = "2024-04-18 12:44:07 +0000";
layers = (
{
layerId = "DC66AB0F-19FD-4F06-8C39-5D32AA939720";
shapes = (
{
closed = 1;
nodes = (
(37,-201,ls),
(17,-201,o),
(7,-184.667,o),
(7,-162,cs),
(7,-118.306,o),
(43.557,-53,o),
(117,-53,cs),
(300.249,-53,o),
(328.119,-23.438,o),
(400,115,cs),
(544,392,ls),
(596,485.333,o),
(628.167,540,o),
(663.5,572,cs),
(698.833,604,o),
(734.333,616,o),
(793,624,c),
(761,654.667,o),
(748,687,o),
(748,723,cs),
(748,765.667,o),
(767.333,818,o),
(794,870,cs),
(1006,1279,ls),
(1012,1291,o),
(1015,1301,o),
(1015,1309,cs),
(1015,1329,o),
(1001.667,1343.333,o),
(975,1352,cs),
(948.333,1360.667,o),
(908.667,1365,o),
(856,1365,cs),
(828,1365,o),
(815,1383.333,o),
(815,1406,cs),
(815,1441.11,o),
(838.748,1480.425,o),
(885,1502.5,cs),
(899.667,1509.5,o),
(916.667,1513,o),
(936,1513,cs),
(1101.333,1513,o),
(1187,1463.667,o),
(1187,1365,cs),
(1187,1350.333,o),
(1185.667,1336.667,o),
(1183,1324,cs),
(1175.823,1290.507,o),
(1170.634,1273.82,o),
(1147.5,1222,cs),
(1121.612,1164.011,o),
(1063.079,1050.805,o),
(973,878,cs),
(949,831.333,o),
(927,780.333,o),
(927,743,cs),
(927,711,o),
(941.667,690,o),
(987,690,cs),
(1016.333,690,o),
(1030,670.333,o),
(1030,645,cs),
(1030,604.013,o),
(990.673,550,o),
(913,550,cs),
(826.333,550,o),
(771,501.333,o),
(707,384,cs),
(553,82,ls),
(433.193,-154.952,o),
(358.664,-205,o),
(114,-205,c)
);
}
);
width = 1018;
}
);
unicode = 125;
},
{
glyphname = bracketleft;
lastChange = "2024-04-18 12:44:07 +0000";
layers = (
{
layerId = "DC66AB0F-19FD-4F06-8C39-5D32AA939720";
shapes = (
{
closed = 1;
nodes = (
(1448,1573,ls),
(1480,1573,o),
(1496,1552.667,o),
(1496,1526,cs),
(1496,1487.086,o),
(1459.334,1434,o),
(1378,1434,cs),
(1182,1434,l),
(1054,1182,o),
(927.167,931.333,o),
(801.5,682,cs),
(675.833,432.667,o),
(549,182,o),
(421,-70,c),
(618,-70,ls),
(646,-70,o),
(659,-87.333,o),
(659,-110,cs),
(659,-151.105,o),
(616.406,-205,o),
(548,-205,cs),
(180,-205,l),
(480,388.333,o),
(778.667,979.667,o),
(1080,1573,c)
);
}
);
width = 966;
}
);
unicode = 91;
},
{
glyphname = bracketright;
lastChange = "2024-04-18 12:44:07 +0000";
layers = (
{
layerId = "DC66AB0F-19FD-4F06-8C39-5D32AA939720";
shapes = (
{
closed = 1;
nodes = (
(1232,1573,l),
(1082.667,1276.333,o),
(933,980,o),
(783,684,cs),
(633,388,o),
(483.333,91.667,o),
(334,-205,c),
(-38,-205,ls),
(-72.667,-205,o),
(-88,-188.667,o),
(-88,-166,cs),
(-88,-123.202,o),
(-35.888,-70,o),
(36,-70,cs),
(232,-70,l),
(484.667,432.667,o),
(737.333,934,o),
(990,1434,c),
(793,1434,ls),
(751.667,1434,o),
(733,1454.667,o),
(733,1480,cs),
(733,1522.513,o),
(782.687,1573,o),
(863,1573,cs)
);
}
);
width = 784;
}
);
unicode = 93;
},
{
glyphname = quotesinglbase;
lastChange = "2024-04-18 12:44:07 +0000";
layers = (
{
layerId = "DC66AB0F-19FD-4F06-8C39-5D32AA939720";
shapes = (
{
closed = 1;
nodes = (
(581.981,-148.564,o),
(489.432,-275.774,o),
(381,-433,cs),
(336.647,-496.757,o),
(279,-479.666,o),
(279,-447,cs),
(279,-443,o),
(280,-438.333,o),
(282,-433,cs),
(341.831,-275.264,o),
(383.442,-153.042,o),
(442,4,cs),
(460.768,60.303,o),
(532.722,85,o),
(594,85,cs),
(646.015,85,o),
(697,66.661,o),
(697,31,cs),
(697,23,o),
(694,14,o),
(688,4,cs)
);
}
);
width = 872;
}
);
unicode = 8218;
},
{
glyphname = quotedblbase;
lastChange = "2024-04-18 12:44:07 +0000";
layers = (
{
layerId = "DC66AB0F-19FD-4F06-8C39-5D32AA939720";
shapes = (
{
closed = 1;
nodes = (
(400.981,-148.564,o),
(308.432,-275.774,o),
(200,-433,cs),
(155.647,-496.757,o),
(98,-479.666,o),
(98,-447,cs),
(98,-443,o),
(99,-438.333,o),
(101,-433,cs),
(160.831,-275.264,o),
(202.442,-153.042,o),
(261,4,cs),
(279.768,60.303,o),
(351.722,85,o),
(413,85,cs),
(465.015,85,o),
(516,66.661,o),
(516,31,cs),
(516,23,o),
(513,14,o),
(507,4,cs)
);
},
{
closed = 1;
nodes = (
(779.981,-148.564,o),
(687.432,-275.774,o),
(579,-433,cs),
(534.647,-496.757,o),
(477,-479.666,o),
(477,-447,cs),
(477,-443,o),
(478,-438.333,o),
(480,-433,cs),
(539.831,-275.264,o),
(581.442,-153.042,o),
(640,4,cs),
(658.768,60.303,o),
(730.722,85,o),
(792,85,cs),
(844.015,85,o),
(895,66.661,o),
(895,31,cs),
(895,23,o),
(892,14,o),
(886,4,cs)
);
}
);
width = 1065;
}
);
unicode = 8222;
},
{
glyphname = quotedblleft;
lastChange = "2024-04-18 12:44:07 +0000";
layers = (
{
layerId = "DC66AB0F-19FD-4F06-8C39-5D32AA939720";
shapes = (
{
closed = 1;
nodes = (
(436.047,1117.668,o),
(528.386,1240.744,o),
(635,1398,cs),
(679.353,1461.757,o),
(737,1444.666,o),
(737,1412,cs),
(737,1407.333,o),
(736,1402.667,o),
(734,1398,cs),
(675.442,1240.958,o),
(633.831,1118.736,o),
(574,961,cs),
(555.232,904.697,o),
(483.278,880,o),
(422,880,cs),
(369.985,880,o),
(319,898.339,o),
(319,934,cs),
(319,942,o),
(322,951,o),
(328,961,cs)
);
},
{
closed = 1;
nodes = (
(817.047,1117.668,o),
(909.386,1240.744,o),
(1016,1398,cs),
(1060.353,1461.757,o),
(1118,1444.666,o),
(1118,1412,cs),
(1118,1407.333,o),
(1117,1402.667,o),
(1115,1398,cs),
(1056.442,1240.958,o),
(1014.831,1118.736,o),
(955,961,cs),
(936.232,904.697,o),
(864.278,880,o),
(803,880,cs),
(750.985,880,o),
(700,898.339,o),
(700,934,cs),
(700,942,o),
(703,951,o),
(709,961,cs)
);
}
);
width = 867;
}
);
unicode = 8220;
},
{
glyphname = quotedblright;
lastChange = "2024-04-18 12:44:07 +0000";
layers = (
{
layerId = "DC66AB0F-19FD-4F06-8C39-5D32AA939720";
shapes = (
{
closed = 1;
nodes = (
(648.981,1215.436,o),
(556.432,1088.226,o),
(448,931,cs),
(403.647,867.243,o),
(346,884.334,o),
(346,917,cs),
(346,921,o),
(347,925.667,o),
(349,931,cs),
(408.831,1088.736,o),
(450.442,1210.958,o),
(509,1368,cs),
(527.768,1424.303,o),
(599.722,1449,o),
(661,1449,cs),
(713.015,1449,o),
(764,1430.661,o),
(764,1395,cs),
(764,1387,o),
(761,1378,o),
(755,1368,cs)
);
},
{
closed = 1;
nodes = (
(1027.981,1215.436,o),
(935.432,1088.226,o),
(827,931,cs),
(782.647,867.243,o),
(725,884.334,o),
(725,917,cs),
(725,921,o),
(726,925.667,o),
(728,931,cs),
(787.831,1088.736,o),
(829.442,1210.958,o),
(888,1368,cs),
(906.768,1424.303,o),
(978.722,1449,o),
(1040,1449,cs),
(1092.015,1449,o),
(1143,1430.661,o),
(1143,1395,cs),
(1143,1387,o),
(1140,1378,o),
(1134,1368,cs)
);
}
);
width = 939;
}
);
unicode = 8221;
},
{
glyphname = quoteleft;
lastChange = "2024-04-18 12:44:07 +0000";
layers = (
{
layerId = "DC66AB0F-19FD-4F06-8C39-5D32AA939720";
shapes = (
{
closed = 1;
nodes = (
(478.047,1117.668,o),
(570.386,1240.744,o),
(677,1398,cs),
(721.353,1461.757,o),
(779,1444.666,o),
(779,1412,cs),
(779,1407.333,o),
(778,1402.667,o),
(776,1398,cs),
(717.442,1240.958,o),
(675.831,1118.736,o),
(616,961,cs),
(597.232,904.697,o),
(525.278,880,o),
(464,880,cs),
(411.985,880,o),
(361,898.339,o),
(361,934,cs),
(361,942,o),
(364,951,o),
(370,961,cs)
);
}
);
width = 529;
}
);
unicode = 8216;
},
{
glyphname = quoteright;
lastChange = "2024-04-18 12:44:07 +0000";
layers = (
{
layerId = "DC66AB0F-19FD-4F06-8C39-5D32AA939720";
shapes = (
{
closed = 1;
nodes = (
(689.981,1215.436,o),
(597.432,1088.226,o),
(489,931,cs),
(444.647,867.243,o),
(387,884.334,o),
(387,917,cs),
(387,921,o),
(388,925.667,o),
(390,931,cs),
(449.831,1088.736,o),
(491.442,1210.958,o),
(550,1368,cs),
(568.768,1424.303,o),
(640.722,1449,o),
(702,1449,cs),
(754.015,1449,o),
(805,1430.661,o),
(805,1395,cs),
(805,1387,o),
(802,1378,o),
(796,1368,cs)
);
}
);
width = 612;
}
);
unicode = 8217;
},
{
glyphname = guillemotleft;
lastChange = "2024-04-18 12:44:07 +0000";
layers = (
{
layerId = "DC66AB0F-19FD-4F06-8C39-5D32AA939720";
shapes = (
{
closed = 1;
nodes = (
(602,160.667,o),
(552.167,189.5,o),
(506.5,216.5,cs),
(460.833,243.5,o),
(421,267,o),
(387,287,cs),
(347,310.333,o),
(310.667,332,o),
(278,352,cs),
(259.333,363.333,o),
(250,379.333,o),
(250,400,cs),
(250,433.333,o),
(273.333,465.667,o),
(324,487,cs),
(384.667,513.667,o),
(442.667,538.667,o),
(498,562,cs),
(582.809,599.693,o),
(694.656,648.924,o),
(761,672,cs),
(768.333,675.333,o),
(774.667,677,o),
(780,677,cs),
(801.333,677,o),
(814,656.667,o),
(814,626,cs),
(814,585.831,o),
(812.403,545.705,o),
(743,520,c),
(708.148,502.574,o),
(639.717,478.475,o),
(575,452,cs),
(540.333,438.667,o),
(504.667,425,o),
(468,411,c),
(468,411,o),
(468,411,o),
(468,411,c),
(468,410.333,o),
(487,400.667,o),
(525,382,cs),
(563.667,364,o),
(625.333,332.333,o),
(710,287,cs),
(743.333,268.333,o),
(756,244.667,o),
(756,222,cs),
(756,170.773,o),
(706.201,126,o),
(672,126,cs),
(664.667,126,o),
(659.333,127.333,o),
(656,130,c)
);
},
{
closed = 1;
nodes = (
(1061.333,160.667,o),
(1011.167,189.5,o),
(965.5,216.5,cs),
(919.833,243.5,o),
(880,267,o),
(846,287,cs),
(806.667,310.333,o),
(770.667,332,o),
(738,352,cs),
(719.333,363.333,o),
(710,379.333,o),
(710,400,cs),
(710,433.333,o),
(733.333,465.667,o),
(784,487,cs),
(844.667,513.667,o),
(902.667,538.667,o),
(958,562,cs),
(1057.609,606.271,o),
(1152.421,647.426,o),
(1220,672,cs),
(1228,675.333,o),
(1234.333,677,o),
(1239,677,cs),
(1261.667,677,o),
(1274,656.667,o),
(1274,626,cs),
(1274,588.295,o),
(1271.094,545.22,o),
(1203,520,c),
(1165.694,502.59,o),
(1097.677,477.641,o),
(1035,452,cs),
(1000.333,438.667,o),
(964.667,425,o),
(928,411,c),
(928,411,o),
(928,411,o),
(928,411,c),
(928,410.333,o),
(947,400.667,o),
(985,382,cs),
(1023.667,364,o),
(1085,332.333,o),
(1169,287,cs),
(1202.333,268.333,o),
(1216,244.667,o),
(1216,222,cs),
(1216,173.648,o),
(1167.603,126,o),
(1132,126,cs),
(1124.667,126,o),
(1119.333,127.333,o),
(1116,130,c)
);
}
);
width = 1333;
}
);
unicode = 171;
},
{
glyphname = guillemotright;
lastChange = "2024-04-18 12:44:07 +0000";
layers = (
{
layerId = "DC66AB0F-19FD-4F06-8C39-5D32AA939720";
shapes = (
{
closed = 1;
nodes = (
(462.667,129.333,o),
(456.333,128,o),
(449,128,cs),
(396.634,128,o),
(363.878,235.656,o),
(491,288,cs),
(585.899,328.843,o),
(673.261,363.176,o),
(721.5,383,cs),
(745.833,393,o),
(764,400.333,o),
(776,405,cs),
(793,412,l),
(767,424,ls),
(720.231,445.586,o),
(647.682,482.159,o),
(572,520,cs),
(545.333,534.667,o),
(535,549.333,o),
(535,568,cs),
(535,608.221,o),
(575.76,676,o),
(614,676,cs),
(618.667,676,o),
(624,674.667,o),
(630,672,cs),
(669.274,652.363,o),
(769.474,601.158,o),
(838,562,cs),
(881.333,538.667,o),
(926.667,513.667,o),
(974,487,cs),
(1000.667,473.667,o),
(1013,454.667,o),
(1013,432,cs),
(1013,398.667,o),
(989.333,369,o),
(952,353,cs),
(910,333,o),
(863.333,311.333,o),
(812,288,cs),
(724,248,o),
(604,193.333,o),
(468,132,cs)
);
},
{
closed = 1;
nodes = (
(916.333,129.333,o),
(910,128,o),
(902,128,cs),
(850.069,128,o),
(818.594,235.95,o),
(945,288,cs),
(1039.545,328.69,o),
(1126.523,363.347,o),
(1175,383,cs),
(1199.667,393,o),
(1217.667,400.333,o),
(1229,405,cs),
(1246,412,l),
(1220,424,ls),
(1175.152,445.527,o),
(1101.903,482.049,o),
(1026,520,cs),
(998,534.667,o),
(989,549.333,o),
(989,568,cs),
(989,611.017,o),
(1029.507,676,o),
(1067,676,cs),
(1072.333,676,o),
(1077.667,674.667,o),
(1083,672,cs),
(1129.728,648.636,o),
(1221.177,601.899,o),
(1291,562,cs),
(1335,538.667,o),
(1380.333,513.667,o),
(1427,487,cs),
(1453.667,473.667,o),
(1466,454.667,o),
(1466,432,cs),
(1466,398.667,o),
(1442,369,o),
(1406,353,cs),
(1363.333,333,o),
(1316.333,311.333,o),
(1265,288,cs),
(1178.333,248,o),
(1058.333,193.333,o),
(921,132,cs)
);
}
);
width = 1570;
}
);
unicode = 187;
},
{
glyphname = guilsinglleft;
lastChange = "2024-04-18 12:44:07 +0000";
layers = (
{
layerId = "DC66AB0F-19FD-4F06-8C39-5D32AA939720";
shapes = (
{
closed = 1;
nodes = (
(705.667,424.667,o),
(598.667,488.333,o),
(520,535,cs),
(474,561.667,o),
(432.333,586.667,o),
(395,610,cs),
(373,623.333,o),
(362,641.667,o),
(362,665,cs),
(362,703.667,o),
(389.333,742,o),
(448,766,cs),
(518,796.667,o),
(585,825.667,o),
(649,853,cs),
(741.745,893.718,o),
(901.769,960.68,o),
(952,980,cs),
(960.667,983.333,o),
(968,985,o),
(974,985,cs),
(999.333,985,o),
(1014,961.667,o),
(1014,927,cs),
(1014,880.029,o),
(1010.66,834.449,o),
(932,804,c),
(898.316,788.149,o),
(818.457,758.183,o),
(738,726,cs),
(698,710,o),
(656.667,694,o),
(614,678,c),
(614,678,o),
(614,678,o),
(614,678,c),
(614,677.333,o),
(636,666.333,o),
(680,645,cs),
(724.667,623.667,o),
(795.667,587,o),
(893,535,cs),
(931.667,513.667,o),
(947,486.667,o),
(947,460,cs),
(947,404.802,o),
(890.441,349,o),
(850,349,cs),
(841.333,349,o),
(835,350.667,o),
(831,354,c)
);
}
);
width = 1060;
}
);
unicode = 8249;
},
{
glyphname = guilsinglright;
lastChange = "2024-04-18 12:44:07 +0000";
layers = (
{
layerId = "DC66AB0F-19FD-4F06-8C39-5D32AA939720";
shapes = (
{
closed = 1;
nodes = (
(554,350.667,o),
(546.667,349,o),
(538,349,cs),
(478.388,349,o),
(439.484,472.493,o),
(587,535,cs),
(757.345,607.211,o),
(874.076,652.83,o),
(917,670,cs),
(937,678,l),
(907,692,ls),
(851.424,717.936,o),
(755.413,766.794,o),
(681,804,cs),
(649,820,o),
(638,837.333,o),
(638,860,cs),
(638,911.96,o),
(688.146,985,o),
(729,985,cs),
(735,985,o),
(741.333,983.333,o),
(748,980,cs),
(785.195,962.288,o),
(917.973,892.953,o),
(989,853,cs),
(1039.667,825.667,o),
(1092.333,796.667,o),
(1147,766,cs),
(1177.667,750,o),
(1192,727.333,o),
(1192,702,cs),
(1192,663.333,o),
(1164.667,628.667,o),
(1122,610,cs),
(1072.667,586.667,o),
(1018.333,561.667,o),
(959,535,cs),
(857.667,488.333,o),
(718.667,424.667,o),
(560,354,cs)
);
}
);
width = 1173;
}
);
unicode = 8250;
},
{
glyphname = quotedbl;
lastChange = "2024-04-18 12:44:07 +0000";
layers = (
{
layerId = "DC66AB0F-19FD-4F06-8C39-5D32AA939720";
shapes = (
{
closed = 1;
nodes = (
(966.717,1208.193,o),
(789.862,948.073,o),
(700,809,cs),
(677.333,774.333,o),
(639.667,755,o),
(609,755,cs),
(586.333,755,o),
(570,765,o),
(570,785,cs),
(570,789,o),
(570.833,792.833,o),
(572.5,796.5,cs),
(574.167,800.167,o),
(575.667,804.333,o),
(577,809,c),
(679.318,1016.402,o),
(762.942,1182.099,o),
(851,1368,cs),
(872.557,1411.114,o),
(924.198,1431,o),
(978,1431,cs),
(1024.667,1431,o),
(1065,1415.333,o),
(1065,1386,cs),
(1065,1380.667,o),
(1064.333,1373.333,o),
(1059,1368,c)
);
},
{
closed = 1;
nodes = (
(649.473,1166.24,o),
(550.584,1003.269,o),
(440,809,cs),
(420,774.333,o),
(386.333,755,o),
(357,755,cs),
(334.333,755,o),
(320,765.333,o),
(320,784,cs),
(320,788,o),
(320.833,792,o),
(322.5,796,cs),
(324.167,800,o),
(325.667,804.333,o),
(327,809,cs),
(407.815,1004.521,o),
(497.219,1214.892,o),
(559,1368,cs),
(579,1412,o),
(627.333,1431,o),
(678,1431,cs),
(724.667,1431,o),
(765,1415.333,o),
(765,1386,cs),
(765,1380.667,o),
(764.333,1373.333,o),
(759,1368,c)
);
}
);
width = 852;
}
);
unicode = 34;
},
{
glyphname = quotesingle;
lastChange = "2024-04-18 12:44:07 +0000";
layers = (
{
layerId = "DC66AB0F-19FD-4F06-8C39-5D32AA939720";
shapes = (
{
closed = 1;
nodes = (
(761.41,1185.263,o),
(639.156,986.706,o),
(538,809,cs),
(518,774.333,o),
(481.667,755,o),
(451,755,cs),
(427,755,o),
(410,766.333,o),
(410,789,cs),
(410,795.667,o),
(411,802.333,o),
(415,809,c),
(494.626,995.624,o),
(600.112,1244.363,o),
(650,1368,cs),
(668.229,1409.667,o),
(716.341,1431,o),
(772,1431,cs),
(820,1431,o),
(863,1414.333,o),
(863,1385,cs),
(863,1379.667,o),
(862,1372,o),
(858,1368,c)
);
}
);
width = 671;
}
);
unicode = 39;
},
{
glyphname = florin;
lastChange = "2024-04-18 12:44:07 +0000";
layers = (
{
layerId = "DC66AB0F-19FD-4F06-8C39-5D32AA939720";
shapes = (
{
closed = 1;
nodes = (
(1142,1062,ls),
(1171,1062,o),
(1177,1039,o),
(1168,1015,cs),
(1158,987,o),
(1129,957,o),
(1094,957,cs),
(787,957,l),
(452,216,ls),
(313,-88,o),
(127,-245,o),
(-53,-245,cs),
(-115,-245,o),
(-179,-232,o),
(-242,-207,c),
(-283,-179,l),
(-299,-165,ls),
(-320,-147,o),
(-324,-127,o),
(-315,-105,cs),
(-301,-66,o),
(-252,-28,o),
(-213,-28,cs),
(-200,-28,o),
(-190,-32,o),
(-180,-40,cs),
(-153,-62,ls),
(-116,-93,o),
(-75,-109,o),
(-32,-109,cs),
(54,-109,o),
(146,-42,o),
(210,98,cs),
(597,957,l),
(364,957,ls),
(334,957,o),
(328,981,o),
(337,1006,cs),
(347,1033,o),
(375,1062,o),
(412,1062,cs),
(645,1062,l),
(782,1436,o),
(1016,1669,o),
(1235,1669,cs),
(1299,1669,o),
(1361,1650,o),
(1419,1608,cs),
(1460,1579,ls),
(1475,1567,o),
(1476,1544,o),
(1469,1526,cs),
(1456,1489,o),
(1415,1450,o),
(1376,1450,cs),
(1366,1450,o),
(1357,1453,o),
(1349,1458,cs),
(1333,1468,ls),
(1283,1500,o),
(1237,1517,o),
(1194,1517,cs),
(1065,1517,o),
(958,1372,o),
(835,1062,c)
);
}
);
width = 566;
}
);
unicode = 402;
},
{
glyphname = at;
lastChange = "2024-04-18 12:44:07 +0000";
layers = (
{
layerId = "DC66AB0F-19FD-4F06-8C39-5D32AA939720";
shapes = (
{
closed = 1;
nodes = (
(1048.152,1008,o),
(791.222,832.383,o),
(711,573,cs),
(660.333,411,o),
(710,330,o),
(860,330,cs),
(1088.144,330,o),
(1298.809,522.385,o),
(1443,987,c),
(1428,990,ls),
(1403.408,996.148,o),
(1326.75,1008,o),
(1274,1008,cs)
);
},
{
closed = 1;
nodes = (
(234.96,-155,o),
(95.489,187.05,o),
(217,578,cs),
(303.109,855.897,o),
(477.822,1081.443,o),
(685.5,1229.5,cs),
(896.42,1379.868,o),
(1127.305,1456,o),
(1342,1456,cs),
(1564.804,1456,o),
(1742.318,1399.179,o),
(1856,1284.5,cs),
(1932,1207.833,o),
(1972.333,1104.833,o),
(1971,973.5,cs),
(1970.333,907.833,o),
(1957.667,835.333,o),
(1933,756,cs),
(1889,613.333,o),
(1825.333,503.667,o),
(1752,421,cs),
(1715.333,379.667,o),
(1677.5,344.833,o),
(1638.5,316.5,cs),
(1521.83,231.74,o),
(1404.876,199,o),
(1319,199,cs),
(1226.868,199,o),
(1235.561,254.684,o),
(1256,316,cs),
(1328,548,l),
(1247.664,390.005,o),
(1057.333,199,o),
(803,199,cs),
(574.199,199,o),
(486.362,350.092,o),
(561,590,cs),
(600.523,718.449,o),
(700.405,852.274,o),
(836,956.5,cs),
(970.495,1059.88,o),
(1134.089,1128,o),
(1295,1128,cs),
(1343.311,1128,o),
(1456.152,1115.245,o),
(1518,1104,cs),
(1593.376,1091.004,o),
(1580.622,1041.486,o),
(1591,987,c),
(1383,317,l),
(1545.046,317,o),
(1674.411,440.392,o),
(1774,758,cs),
(1818.853,900.248,o),
(1819.068,1014.444,o),
(1782.5,1100,cs),
(1764.833,1141.333,o),
(1739.5,1175.833,o),
(1706.5,1203.5,cs),
(1603.222,1290.087,o),
(1459.497,1317,o),
(1305,1317,cs),
(1103.667,1317,o),
(908,1248.667,o),
(744,1122,cs),
(580,995.333,o),
(448,810,o),
(376,578,cs),
(318.667,394,o),
(332.167,244.5,o),
(415.5,142.5,cs),
(498.833,40.5,o),
(652.667,-16,o),
(878,-16,cs),
(994,-16,o),
(1093.333,0.5,o),
(1172,22.5,cs),
(1211.333,33.5,o),
(1246,45.333,o),
(1276,58,cs),
(1337.333,84.667,o),
(1374.667,106,o),
(1396,122,cs),
(1411,134,l),
(1474,42,l),
(1400.667,-18,o),
(1303.833,-67.5,o),
(1192.5,-101.5,cs),
(1081.167,-135.5,o),
(955.667,-155,o),
(825,-155,cs)
);
}
);
width = 1856;
}
);
unicode = 64;
},
{
glyphname = ampersand;
lastChange = "2024-04-18 12:44:07 +0000";
layers = (
{
layerId = "DC66AB0F-19FD-4F06-8C39-5D32AA939720";
shapes = (
{
closed = 1;
nodes = (
(397,293.667,o),
(356,242.333,o),
(356,207,cs),
(356,168.333,o),
(392,155,o),
(432,155,cs),
(465.333,155,o),
(499.333,163.667,o),
(534,181,cs),
(545.333,186.333,o),
(563.667,197.333,o),
(589,214,cs),
(614.333,230.667,o),
(647,253.333,o),
(687,282,c),
(566,442,l),
(538,413.333,o),
(509,386.333,o),
(479,361,cs)
);
},
{
closed = 1;
nodes = (
(945.667,682.667,o),
(923.333,676,o),
(902,676,cs),
(853.961,676,o),
(812,712.924,o),
(812,750,cs),
(812,785.918,o),
(913,855.331,o),
(913,927,cs),
(913,967,o),
(880.333,994,o),
(839,994,cs),
(733.482,994,o),
(574,864.316,o),
(574,757,cs),
(574,709,o),
(593.667,661,o),
(633,613,cs),
(802,406,l),
(834,446,o),
(860.333,489,o),
(879,521,c),
(1053,521,l),
(1017,434.333,o),
(965.667,350,o),
(895,266,c),
(914.373,235.729,o),
(935.628,204.058,o),
(954,176.5,cs),
(974,146.5,o),
(997.333,113.333,o),
(1032,68,cs),
(1042.667,53.333,o),
(1048,36.333,o),
(1048,23,cs),
(1048,-19.667,o),
(1013.667,-54,o),
(971,-54,cs),
(941.667,-54,o),
(909.667,-38,o),
(879,2,cs),
(776,142,l),
(702.667,87.333,o),
(648.333,50,o),
(613,30,cs),
(543.667,-8.667,o),
(480.333,-28,o),
(423,-28,cs),
(282.855,-28,o),
(173,58.25,o),
(173,193,cs),
(173,295.461,o),
(329.326,474.419,o),
(451,553,cs),
(459.667,558.333,o),
(464,562.667,o),
(464,566,c),
(418.667,636.667,o),
(399,703,o),
(399,767,cs),
(399,871.693,o),
(460.813,966.249,o),
(555.5,1036.5,cs),
(647.596,1104.829,o),
(759.799,1146,o),
(869,1146,cs),
(970.333,1146,o),
(1058.333,1107.667,o),
(1101,1017,cs),
(1109.667,999,o),
(1114,979.333,o),
(1114,958,cs),
(1114,864.911,o),
(1025.264,760.912,o),
(967,700,c)
);
}
);
width = 1119;
}
);
unicode = 38;
},
{
glyphname = paragraph;
lastChange = "2024-04-18 12:44:07 +0000";
layers = (
{
layerId = "DC66AB0F-19FD-4F06-8C39-5D32AA939720";
shapes = (
{
closed = 1;
nodes = (
(1612,1368,l),
(1542,1233,l),
(1415,1233,l),
(673,-201,l),
(525,-201,l),
(1267,1233,l),
(1063,1233,l),
(320,-201,l),
(173,-201,l),
(611,647,l),
(433.667,647,o),
(345,710.333,o),
(345,837,cs),
(345,921,o),
(379,1004,o),
(443,1092,cs),
(587.91,1289.604,o),
(790.771,1368,o),
(1039,1368,cs)
);
}
);
width = 1241;
}
);
unicode = 182;
},
{
glyphname = section;
lastChange = "2024-04-18 12:44:07 +0000";
layers = (
{
layerId = "DC66AB0F-19FD-4F06-8C39-5D32AA939720";
shapes = (
{
closed = 1;
nodes = (
(1003.855,723.226,o),
(1002.512,749.143,o),
(981,777.5,cs),
(966.333,796.833,o),
(943,817.333,o),
(907,844,c),
(734.399,844,o),
(625,782.648,o),
(625,676,cs),
(625,624,o),
(657,581,o),
(729,541,c),
(870.842,541,o),
(976.617,598.449,o),
(998,692,cs)
);
},
{
closed = 1;
nodes = (
(1509.667,1335,o),
(1518,1318.667,o),
(1518,1300,cs),
(1518,1254.922,o),
(1474.42,1193,o),
(1413,1193,cs),
(1405,1193,o),
(1398,1194,o),
(1392,1196,cs),
(1323.333,1212.667,o),
(1250,1221,o),
(1172,1221,cs),
(1025.333,1221,o),
(943,1181,o),
(943,1093,cs),
(943,1048.333,o),
(982.333,991,o),
(1061,921,cs),
(1135.667,854.333,o),
(1173,789,o),
(1173,725,cs),
(1173,620.719,o),
(1095.5,468.049,o),
(820,452,c),
(862.667,398.667,o),
(888,347.667,o),
(888,293,cs),
(888,282.333,o),
(886.667,270,o),
(884,258,cs),
(849.645,88.868,o),
(695.779,-8,o),
(456,-8,cs),
(346.667,-8,o),
(233.667,2.333,o),
(115,25,cs),
(84.333,31.667,o),
(74,47,o),
(74,67,cs),
(74,97.523,o),
(102.23,134.32,o),
(142.5,152,cs),
(156.167,158,o),
(171,161,o),
(187,161,cs),
(189.667,161,o),
(192.5,161,o),
(195.5,161,cs),
(198.5,161,o),
(201.333,160.667,o),
(204,160,cs),
(290.667,146.667,o),
(378,139,o),
(482,139,cs),
(614,139,o),
(674.667,178,o),
(692,262,cs),
(692.667,264,o),
(693,267.333,o),
(693,272,cs),
(693,312,o),
(651,371.667,o),
(567,451,cs),
(489.667,524.333,o),
(451,595,o),
(451,663,cs),
(451,677,o),
(452.333,689.333,o),
(455,700,cs),
(487,854.667,o),
(613.333,932.333,o),
(804,947,c),
(765.333,1009.667,o),
(751,1046.333,o),
(751,1085,cs),
(751,1098.333,o),
(752.333,1110.667,o),
(755,1122,cs),
(789.667,1288.667,o),
(946,1372,o),
(1224,1372,cs),
(1312,1372,o),
(1399,1359,o),
(1491,1339,cs)
);
}
);
width = 1100;
}
);
unicode = 167;
},
{
glyphname = copyright;
lastChange = "2024-04-18 12:44:07 +0000";
layers = (
{
layerId = "DC66AB0F-19FD-4F06-8C39-5D32AA939720";
shapes = (
{
closed = 1;
nodes = (
(1000,1131,o),
(1102,1107,o),
(1206,1051,c),
(1206,925,l),
(1107.333,977,o),
(1008.333,1003,o),
(919,1003,cs),
(770.327,1003,o),
(655,916.707,o),
(655,744,cs),
(655,571.293,o),
(770.327,485,o),
(919,485,cs),
(1008.333,485,o),
(1107.333,511,o),
(1206,563,c),
(1206,437,l),
(1102,381,o),
(1000,357,o),
(904,357,cs),
(666.839,357,o),
(478,528.637,o),
(478,744,cs),
(478,959.363,o),
(666.839,1131,o),
(904,1131,cs)
);
},
{
closed = 1;
nodes = (
(633.403,0,o),
(387.457,129.997,o),
(253,347.5,cs),
(185,457.5,o),
(144,591,o),
(144,743,cs),
(144,1051.601,o),
(319.826,1280.36,o),
(535.5,1398,cs),
(645.5,1458,o),
(769,1490,o),
(889,1490,cs),
(1068.446,1490,o),
(1254.752,1418.651,o),
(1398,1286.5,cs),
(1541.01,1154.569,o),
(1634,965.453,o),
(1634,743,cs),
(1634,523.714,o),
(1547.246,336.203,o),
(1407.5,204.5,cs),
(1267.897,72.932,o),
(1084.694,0,o),
(889,0,cs)
);
},
{
closed = 1;
nodes = (
(1486,938.046,o),
(1404.369,1095.312,o),
(1293,1199,cs),
(1167.522,1315.824,o),
(1016.442,1365,o),
(889,1365,cs),
(746.53,1365,o),
(598.704,1307.131,o),
(482.5,1198,cs),
(367.858,1090.336,o),
(292,928.746,o),
(292,742,cs),
(292,400.99,o),
(530.881,124,o),
(889,124,cs),
(1247.119,124,o),
(1486,400.99,o),
(1486,742,cs)
);
}
);
width = 1685;
}
);
unicode = 169;
},
{
glyphname = registered;
lastChange = "2024-04-18 12:44:07 +0000";
layers = (
{
layerId = "DC66AB0F-19FD-4F06-8C39-5D32AA939720";
shapes = (
{
closed = 1;
nodes = (
(1078,353,l),
(846,697,l),
(777,697,l),
(777,375,l),
(631,375,l),
(631,1169,l),
(826,1169,ls),
(1032.753,1169,o),
(1227,1134.893,o),
(1227,942,cs),
(1227,803.062,o),
(1169.472,740.276,o),
(1006,706,c),
(1208,426,l),
(1208,426,l)
);
},
{
closed = 1;
nodes = (
(777,1056,l),
(777,805,l),
(908,804,ls),
(1046.588,804,o),
(1083,866.489,o),
(1083,931,cs),
(1083,1002.618,o),
(1050.369,1056,o),
(917,1056,cs)
);
},
{
closed = 1;
nodes = (
(643.403,0,o),
(397.457,129.997,o),
(263,347.5,cs),
(195,457.5,o),
(154,591,o),
(154,743,cs),
(154,1051.601,o),
(329.826,1280.36,o),
(545.5,1398,cs),
(655.5,1458,o),
(779,1490,o),
(899,1490,cs),
(1078.446,1490,o),
(1264.752,1418.651,o),
(1408,1286.5,cs),
(1551.01,1154.569,o),
(1644,965.453,o),
(1644,743,cs),
(1644,523.714,o),
(1557.246,336.203,o),
(1417.5,204.5,cs),
(1277.897,72.932,o),
(1094.694,0,o),
(899,0,cs)
);
},
{
closed = 1;
nodes = (
(1496,938.046,o),
(1414.369,1095.312,o),
(1303,1199,cs),
(1177.522,1315.824,o),
(1026.442,1365,o),
(899,1365,cs),
(756.53,1365,o),
(608.704,1307.131,o),
(492.5,1198,cs),
(377.858,1090.336,o),
(302,928.746,o),
(302,742,cs),
(302,400.99,o),
(540.881,124,o),
(899,124,cs),
(1257.119,124,o),
(1496,400.99,o),
(1496,742,cs)
);
}
);
width = 1695;
}
);
unicode = 174;
},
{
glyphname = trademark;
lastChange = "2024-04-18 12:44:07 +0000";
layers = (
{
layerId = "DC66AB0F-19FD-4F06-8C39-5D32AA939720";
shapes = (
{
closed = 1;
nodes = (
(415,1310,l),
(415,624,l),
(280,624,l),
(280,1310,l),
(70,1310,l),
(70,1413,l),
(624,1413,l),
(624,1310,l),
(624,1310,l)
);
},
{
closed = 1;
nodes = (
(862,1288,l),
(862,624,l),
(734,624,l),
(734,1413,l),
(963,1413,l),
(1147,758,l),
(1331,1413,l),
(1560,1413,l),
(1560,624,l),
(1433,624,l),
(1433,1288,l),
(1236,624,l),
(1058,624,l),
(1058,624,l)
);
}
);
width = 1705;
}
);
unicode = 8482;
},
{
glyphname = degree;
lastChange = "2024-04-18 12:44:07 +0000";
layers = (
{
layerId = "DC66AB0F-19FD-4F06-8C39-5D32AA939720";
shapes = (
{
closed = 1;
nodes = (
(813.956,1122,o),
(757,1053.976,o),
(757,999,cs),
(757,968.333,o),
(776.333,945,o),
(823,945,cs),
(896.303,945,o),
(953,1011.457,o),
(953,1066,cs),
(953,1096.667,o),
(933.667,1122,o),
(887,1122,cs)
);
},
{
closed = 1;
nodes = (
(1007.445,935.308,o),
(886.372,852,o),
(789,852,cs),
(710.333,852,o),
(658,904,o),
(658,976,cs),
(658,1094.788,o),
(803.157,1214,o),
(920,1214,cs),
(1000.01,1214,o),
(1053,1160.873,o),
(1053,1090,cs),
(1053,1072.667,o),
(1049.333,1053,o),
(1042,1031,cs)
);
}
);
width = 1221;
}
);
unicode = 176;
},
{
glyphname = bar;
lastChange = "2024-04-18 12:44:07 +0000";
layers = (
{
layerId = "DC66AB0F-19FD-4F06-8C39-5D32AA939720";
shapes = (
{
closed = 1;
nodes = (
(992,1573,l),
(451,-205,l),
(295,-205,l),
(828,1573,l),
(828,1573,l)
);
}
);
width = 918;
}
);
unicode = 124;
},
{
glyphname = brokenbar;
lastChange = "2024-04-18 12:44:07 +0000";
layers = (
{
layerId = "DC66AB0F-19FD-4F06-8C39-5D32AA939720";
shapes = (
{
closed = 1;
nodes = (
(991,1573,l),
(776,880,l),
(620,880,l),
(827,1573,l),
(827,1573,l)
);
},
{
closed = 1;
nodes = (
(661,488,l),
(450,-205,l),
(294,-205,l),
(500,488,l),
(500,488,l)
);
}
);
width = 867;
}
);
unicode = 166;
},
{
glyphname = dagger;
lastChange = "2024-04-18 12:44:07 +0000";
layers = (
{
layerId = "DC66AB0F-19FD-4F06-8C39-5D32AA939720";
shapes = (
{
closed = 1;
nodes = (
(656,1020,o),
(544,1020,o),
(432,1020,cs),
(396,1020,o),
(381,1039,o),
(381,1063,cs),
(381,1104,o),
(425,1161,o),
(480,1161,cs),
(592,1161,o),
(703,1161,o),
(815,1161,c),
(849,1263,o),
(884,1366,o),
(919,1468,cs),
(943,1539,o),
(1003,1574,o),
(1050,1574,cs),
(1088,1574,o),
(1119,1552,o),
(1119,1508,cs),
(1119,1496,o),
(1117,1482,o),
(1112,1468,cs),
(1077,1366,o),
(1042,1263,o),
(1008,1161,c),
(1117,1161,o),
(1225,1161,o),
(1334,1161,cs),
(1375,1161,o),
(1393,1140,o),
(1393,1114,cs),
(1393,1073,o),
(1349,1020,o),
(1286,1020,cs),
(1177,1020,o),
(1067,1020,o),
(958,1020,c),
(843,680,o),
(728,340,o),
(613,0,cs),
(591,-64,o),
(532,-96,o),
(485,-96,cs),
(447,-96,o),
(416,-76,o),
(416,-35,cs),
(416,-25,o),
(418,-13,o),
(423,0,cs),
(538,340,o),
(653,680,o),
(768,1020,c)
);
}
);
width = 1055;
}
);
unicode = 8224;
},
{
glyphname = daggerdbl;
lastChange = "2024-04-18 12:44:07 +0000";
layers = (
{
layerId = "DC66AB0F-19FD-4F06-8C39-5D32AA939720";
shapes = (
{
closed = 1;
nodes = (
(1091,397,ls),
(1132,397,o),
(1150,376,o),
(1150,350,cs),
(1150,309,o),
(1106,256,o),
(1043,256,cs),
(699,256,l),
(613,0,ls),
(591,-64,o),
(532,-96,o),
(485,-96,cs),
(447,-96,o),
(416,-76,o),
(416,-35,cs),
(416,-25,o),
(418,-13,o),
(423,0,cs),
(509,256,l),
(189,256,ls),
(153,256,o),
(138,275,o),
(138,299,cs),
(138,340,o),
(182,397,o),
(237,397,cs),
(557,397,l),
(768,1020,l),
(432,1020,ls),
(396,1020,o),
(381,1039,o),
(381,1063,cs),
(381,1104,o),
(425,1161,o),
(480,1161,cs),
(815,1161,l),
(849,1263,o),
(884,1366,o),
(919,1468,cs),
(943,1539,o),
(1003,1574,o),
(1050,1574,cs),
(1088,1574,o),
(1119,1552,o),
(1119,1508,cs),
(1119,1496,o),
(1117,1482,o),
(1112,1468,cs),
(1077,1366,o),
(1042,1263,o),
(1008,1161,c),
(1334,1161,ls),
(1375,1161,o),
(1393,1140,o),
(1393,1114,cs),
(1393,1073,o),
(1349,1020,o),
(1286,1020,cs),
(958,1020,l),
(747,397,l),
(747,397,l)
);
}
);
width = 1055;
}
);
unicode = 8225;
},
{
glyphname = Euro;
lastChange = "2024-04-18 12:44:07 +0000";
layers = (
{
layerId = "DC66AB0F-19FD-4F06-8C39-5D32AA939720";
shapes = (
{
closed = 1;
nodes = (
(1440,1208.214,o),
(1413.936,1119.285,o),
(1368.5,1037.5,cs),
(1322.292,954.326,o),
(1255.55,892,o),
(1181,892,cs),
(1154.344,892,o),
(1093,898.436,o),
(1093,946,cs),
(1093,962,o),
(1100.333,983,o),
(1123,1011,cs),
(1169.969,1063.187,o),
(1240,1163.592,o),
(1240,1227,cs),
(1240,1265.667,o),
(1224,1291,o),
(1180,1291,cs),
(1111.108,1291,o),
(1011.437,1229.52,o),
(914.5,1136.5,cs),
(817.21,1043.141,o),
(715.53,921.011,o),
(631,787,c),
(1148,787,ls),
(1166.667,787,o),
(1175,775.667,o),
(1175,761,cs),
(1175,737.937,o),
(1155.886,711.054,o),
(1131,699.5,cs),
(1121.667,695.167,o),
(1111.667,693,o),
(1101,693,cs),
(575,693,l),
(567,678.333,o),
(559.5,663.667,o),
(552.5,649,cs),
(545.5,634.333,o),
(538.333,620,o),
(531,606,c),
(1095,606,ls),
(1117.667,606,o),
(1130,591.667,o),
(1130,573,cs),
(1130,546.936,o),
(1105.161,512,o),
(1048,512,cs),
(492,512,l),
(469.333,446.667,o),
(456,385.667,o),
(456,335,cs),
(456,237.667,o),
(504,174,o),
(624,174,cs),
(705.476,174,o),
(824.122,241.935,o),
(936.5,320.5,cs),
(1057.873,405.353,o),
(1158.857,483.048,o),
(1206,504,c),
(1209.333,506.667,o),
(1213.333,508,o),
(1218,508,cs),
(1228,508,o),
(1234.833,499.833,o),
(1238.5,483.5,cs),
(1242.167,467.167,o),
(1244,448.667,o),
(1244,428,cs),
(1244,405.333,o),
(1243,372.667,o),
(1211,330,cs),
(1195.018,311.112,o),
(1121.18,228.544,o),
(992,135,cs),
(875.615,50.721,o),
(724.215,-22,o),
(570,-22,cs),
(321.994,-22,o),
(222,104.005,o),
(222,280,cs),
(222,352,o),
(236.333,429.333,o),
(263,512,c),
(110,512,ls),
(87.333,512,o),
(77,526.333,o),
(77,545,cs),
(77,572.258,o),
(103.05,606,o),
(157,606,cs),
(298,606,l),
(310,635.333,o),
(323.333,663.667,o),
(338,693,c),
(163,693,ls),
(137.667,693,o),
(127,706,o),
(127,722,cs),
(127,750.485,o),
(161.954,787,o),
(210,787,cs),
(390,787,l),
(493.092,962.256,o),
(627.452,1121.112,o),
(774.5,1242.5,cs),
(923.673,1365.643,o),
(1085.26,1443,o),
(1232,1443,cs),
(1345.377,1443,o),
(1440,1396.273,o),
(1440,1263,cs)
);
}
);
width = 1128;
}
);
unicode = 8364;
},
{
glyphname = cent;
lastChange = "2024-04-18 12:44:07 +0000";
layers = (
{
layerId = "DC66AB0F-19FD-4F06-8C39-5D32AA939720";
shapes = (
{
closed = 1;
nodes = (
(286.333,271.667,o),
(359.333,389,o),
(434,509,c),
(315.536,430.024,o),
(177,263.638,o),
(177,200,cs),
(177,177.333,o),
(189,161.667,o),
(213,153,c)
);
},
{
closed = 1;
nodes = (
(720.745,551.456,o),
(651.62,419,o),
(553,419,cs),
(533,419,o),
(527,422.333,o),
(527,433,cs),
(527,437.121,o),
(551,502.947,o),
(551,529,cs),
(551,537,o),
(548.333,542.333,o),
(543,545,c),
(302,152,l),
(382.917,167.789,o),
(483.954,216.193,o),
(571.5,265.5,cs),
(657.338,313.846,o),
(711.777,349.444,o),
(739,365,cs),
(752.333,371.667,o),
(763,373,o),
(771,373,cs),
(796.333,373,o),
(803,354,o),
(803,338,cs),
(803,332.667,o),
(801.5,324.333,o),
(798.5,313,cs),
(795.5,301.667,o),
(786,288.667,o),
(770,274,cs),
(737.788,246.39,o),
(665.358,192.56,o),
(563,129.5,cs),
(448.17,58.757,o),
(311.664,-5.311,o),
(194,-21,c),
(102,-173,ls),
(84.667,-199.667,o),
(55,-212,o),
(35,-212,cs),
(17.667,-212,o),
(4,-204.667,o),
(4,-190,cs),
(4,-184.667,o),
(4.667,-179.667,o),
(10,-173,c),
(40.667,-122.333,o),
(72,-72.667,o),
(104,-22,c),
(20,-8.667,o),
(-20,46,o),
(-20,118,cs),
(-20,148.667,o),
(-12,181,o),
(0,213,cs),
(28.808,291.742,o),
(108.102,393.513,o),
(218.5,495.5,cs),
(324.772,593.675,o),
(447.966,673.632,o),
(558,709,c),
(668,884,ls),
(685.333,910.667,o),
(714,925,o),
(734,925,cs),
(748.667,925,o),
(759,919.667,o),
(759,905,cs),
(759,898.333,o),
(756.667,891.333,o),
(752,884,cs),
(655,727,l),
(663,727,ls),
(711,727,o),
(749,710.333,o),
(749,665,cs),
(749,655,o),
(747.667,645,o),
(745,635,cs)
);
}
);
width = 645;
}
);
unicode = 162;
},
{
glyphname = currency;
lastChange = "2024-04-18 12:44:07 +0000";
layers = (
{
layerId = "DC66AB0F-19FD-4F06-8C39-5D32AA939720";
shapes = (
{
closed = 1;
nodes = (
(959.353,699,o),
(1097,838.302,o),
(1097,989,cs),
(1097,1141.022,o),
(972.022,1266,o),
(820,1266,cs),
(666.579,1266,o),
(531,1125.286,o),
(531,975,cs),
(531,824.72,o),
(654.566,699,o),
(807,699,cs)
);
},
{
closed = 1;
nodes = (
(456,742,l),
(410.667,811.333,o),
(388,887.333,o),
(388,970,cs),
(388,1054.667,o),
(413,1134,o),
(463,1208,c),
(269,1402,l),
(393,1526,l),
(587,1333,l),
(661.667,1383.667,o),
(741.333,1409,o),
(826,1409,cs),
(909.333,1409,o),
(985.667,1386.333,o),
(1055,1341,c),
(1241,1526,l),
(1365,1402,l),
(1178,1215,l),
(1218.667,1150.333,o),
(1239,1076.333,o),
(1239,993,cs),
(1239,910.333,o),
(1213.667,831.667,o),
(1163,757,c),
(1365,555,l),
(1241,430,l),
(1038,633,l),
(964.667,583,o),
(886.667,558,o),
(804,558,cs),
(720.667,558,o),
(646.667,578.333,o),
(582,619,c),
(393,430,l),
(269,555,l),
(269,555,l)
);
}
);
width = 1323;
}
);
unicode = 164;
},
{
glyphname = dollar;
lastChange = "2024-04-18 12:44:07 +0000";
layers = (
{
layerId = "DC66AB0F-19FD-4F06-8C39-5D32AA939720";
shapes = (
{
closed = 1;
nodes = (
(805.667,938,o),
(805,934,o),
(805,930,cs),
(805,926,o),
(805,922,o),
(805,918,cs),
(805,875.333,o),
(828.667,832.333,o),
(886,795,c),
(916,855,o),
(946,914.333,o),
(976,973,cs),
(1006,1031.667,o),
(1036,1091,o),
(1066,1151,c),
(935.694,1099.42,o),
(819.981,1019.886,o),
(807,942,c)
);
},
{
closed = 1;
nodes = (
(1034.667,393,o),
(1035,395.167,o),
(1035,397.5,cs),
(1035,399.833,o),
(1035,402,o),
(1035,404,cs),
(1035,458.199,o),
(987.774,489.644,o),
(898,547,c),
(866,484.333,o),
(834,421.667,o),
(802,359,cs),
(770,296.333,o),
(738,233.333,o),
(706,170,c),
(867.525,185.888,o),
(1012.591,273.248,o),
(1034,391,cs)
);
},
{
closed = 1;
nodes = (
(1421,1573,l),
(1405,1541,o),
(1388.833,1509.333,o),
(1372.5,1478,cs),
(1356.167,1446.667,o),
(1339.667,1415,o),
(1323,1383,c),
(1332,1383,ls),
(1445.967,1383,o),
(1531,1339.737,o),
(1531,1231,cs),
(1531,1113.667,o),
(1452,1007.333,o),
(1304,918,cs),
(1274,900,o),
(1248.333,891,o),
(1227,891,cs),
(1188.333,891,o),
(1166,919,o),
(1166,955,cs),
(1166,996.333,o),
(1193,1046.333,o),
(1257,1077,cs),
(1300.248,1097.352,o),
(1348,1140.645,o),
(1348,1175,cs),
(1348,1199,o),
(1326.667,1204,o),
(1300,1204,cs),
(1277.333,1204,o),
(1254.333,1201,o),
(1229,1197,c),
(1148.333,1040.333,o),
(1069,884.667,o),
(991,730,c),
(1124,646,l),
(1228,588.667,o),
(1274,517,o),
(1274,441,cs),
(1274,429,o),
(1273,417.667,o),
(1271,407,cs),
(1233.63,193.455,o),
(960.423,-20,o),
(613,-20,cs),
(608,-20,l),
(514,-205,l),
(495.333,-249,o),
(463.667,-267,o),
(437,-267,cs),
(405,-267,o),
(377,-252.667,o),
(377,-226,cs),
(377,-219.333,o),
(379,-212.333,o),
(383,-205,cs),
(479,-12,l),
(380.333,0,o),
(310.167,25.167,o),
(265.5,60.5,cs),
(220.833,95.833,o),
(201,139,o),
(201,187,cs),
(201,328.04,o),
(378.701,501.244,o),
(615,557,c),
(621,557,ls),
(647.667,557,o),
(659,529,o),
(659,501,cs),
(659,460.707,o),
(649.291,438.428,o),
(611.5,418,cs),
(599.167,411.333,o),
(583.333,404.333,o),
(564,397,cs),
(476,362.333,o),
(421,308.667,o),
(421,262,cs),
(421,240.667,o),
(432.667,221.833,o),
(456,205.5,cs),
(479.333,189.167,o),
(518,178,o),
(572,172,c),
(608.667,245.333,o),
(645.333,318.333,o),
(682,391,cs),
(718.667,463.667,o),
(755.667,537,o),
(793,611,c),
(721,655,o),
(673.333,697.5,o),
(644,739.5,cs),
(614.667,781.5,o),
(603,826,o),
(603,874,cs),
(603,979.315,o),
(675.734,1085.01,o),
(787,1172,cs),
(897.367,1258.287,o),
(1034.145,1325.529,o),
(1170,1360,c),
(1277,1573,l),
(1295.667,1615.667,o),
(1330.333,1635,o),
(1361,1635,cs),
(1395.667,1635,o),
(1424,1619.333,o),
(1424,1590,cs),
(1424,1588.667,o),
(1423.833,1587.167,o),
(1423.5,1585.5,cs),
(1423.167,1583.833,o),
(1423,1582.333,o),
(1423,1581,cs)
);
}
);
width = 1300;
}
);
unicode = 36;
},
{
glyphname = sterling;
lastChange = "2024-04-18 12:44:07 +0000";
layers = (
{
layerId = "DC66AB0F-19FD-4F06-8C39-5D32AA939720";
shapes = (
{
closed = 1;
nodes = (
(1071.667,656.333,o),
(1022.667,627,o),
(976,627,cs),
(944,627,o),
(912,642.333,o),
(912,669,cs),
(912,675.667,o),
(914,682.667,o),
(918,690,cs),
(959.333,768.667,o),
(978,828,o),
(978,868,cs),
(978,909.333,o),
(960.667,931,o),
(930,931,cs),
(923.333,931,o),
(914.333,929.333,o),
(903,926,cs),
(866.819,914.867,o),
(788.799,800.435,o),
(738,715,cs),
(702,657,o),
(664.667,592,o),
(626,520,c),
(777,520,ls),
(806.333,520,o),
(824,494.333,o),
(824,465,cs),
(824,425.508,o),
(790.4,381,o),
(708,381,cs),
(560,381,l),
(433,147,l),
(534,135,ls),
(542,133.667,o),
(549.833,133,o),
(557.5,133,cs),
(565.167,133,o),
(572.667,133,o),
(580,133,cs),
(621.333,133,o),
(661,136.833,o),
(699,144.5,cs),
(737,152.167,o),
(775.333,159.667,o),
(814,167,c),
(816,167,o),
(818,167.167,o),
(820,167.5,cs),
(822,167.833,o),
(823.667,168,o),
(825,168,cs),
(859.667,168,o),
(879,144.333,o),
(879,115,cs),
(879,73.275,o),
(849.791,22.636,o),
(746,3,cs),
(666,-11.667,o),
(589.667,-21,o),
(515,-21,cs),
(419,-21,o),
(333,-9.667,o),
(253,25,c),
(191.667,-5,o),
(128.667,-20,o),
(64,-20,cs),
(-25.333,-20,o),
(-79,14,o),
(-79,74,cs),
(-79,145.471,o),
(-0.85,180,o),
(76,180,cs),
(106.667,180,o),
(150.667,176.667,o),
(188,174,cs),
(210,172,o),
(232.333,170,o),
(255,168,c),
(377,381,l),
(262,381,ls),
(227.333,381,o),
(211,401.333,o),
(211,428,cs),
(211,467.859,o),
(246.844,520,o),
(327,520,cs),
(446,520,l),
(472,572.667,o),
(497.333,622,o),
(522,668,cs),
(545.233,710.11,o),
(608.022,826.756,o),
(642,870,c),
(740.667,1012.667,o),
(854.667,1074,o),
(976,1074,cs),
(1100.488,1074,o),
(1151,982.519,o),
(1151,882,cs),
(1151,830,o),
(1135.667,773.667,o),
(1109,727,cs)
);
}
);
width = 912;
}
);
unicode = 163;
},
{
glyphname = yen;
lastChange = "2024-04-18 12:44:07 +0000";
layers = (
{
layerId = "DC66AB0F-19FD-4F06-8C39-5D32AA939720";
shapes = (
{
closed = 1;
nodes = (
(1241,586,l),
(722,586,l),
(534,231,ls),
(514.667,193.667,o),
(500.833,165.167,o),
(492.5,145.5,cs),
(484.167,125.833,o),
(479.333,112.333,o),
(478,105,c),
(478,-37.675,o),
(383.76,-99,o),
(319,-99,cs),
(269.667,-99,o),
(229,-69.333,o),
(229,-12,cs),
(229,32.945,o),
(228.537,23.099,o),
(295,164,c),
(518,586,l),
(121,586,l),
(164,728,l),
(510,728,l),
(480.667,766.667,o),
(455.333,808.667,o),
(434,854,c),
(197,854,l),
(239,996,l),
(383,997,l),
(360.333,1061,o),
(354,1116.333,o),
(354,1163,cs),
(354,1311.277,o),
(437.153,1404,o),
(532,1404,cs),
(580.667,1404,o),
(605,1378.333,o),
(605,1327,cs),
(605,1287.89,o),
(571,1211.382,o),
(571,1134,cs),
(571,987.991,o),
(651.871,839.969,o),
(737,760,c),
(811,808,ls),
(889.667,858.667,o),
(972.667,912.667,o),
(1034,974,cs),
(1138.294,1078.294,o),
(1186.401,1173.164,o),
(1199,1216,cs),
(1206,1243,ls),
(1230.249,1334.608,o),
(1243.294,1374,o),
(1373,1374,cs),
(1405,1374,o),
(1421,1351.333,o),
(1421,1306,cs),
(1421,1294.735,o),
(1417.237,1259.04,o),
(1400,1212.5,cs),
(1380,1158.5,o),
(1341,1085.333,o),
(1265,996,c),
(1359,996,l),
(1317,854,l),
(1113,854,l),
(1053,808.667,o),
(993,766.667,o),
(929,728,c),
(1284,728,l),
(1284,728,l)
);
}
);
width = 893;
}
);
unicode = 165;
},
{
glyphname = plus;
lastChange = "2024-04-18 12:44:07 +0000";
layers = (
{
layerId = "DC66AB0F-19FD-4F06-8C39-5D32AA939720";
shapes = (
{
closed = 1;
nodes = (
(1226,640,l),
(842,640,l),
(658,256,l),
(530,256,l),
(714,640,l),
(330,640,l),
(390,768,l),
(774,768,l),
(958,1152,l),
(1086,1152,l),
(902,768,l),
(1286,768,l),
(1286,768,l)
);
}
);
width = 1277;
}
);
unicode = 43;
},
{
glyphname = minus;
lastChange = "2024-04-18 12:44:07 +0000";
layers = (
{
layerId = "DC66AB0F-19FD-4F06-8C39-5D32AA939720";
shapes = (
{
closed = 1;
nodes = (
(917,512,l),
(326,512,l),
(373,606,l),
(964,606,l),
(964,606,l)
);
}
);
width = 1157;
}
);
unicode = 8722;
},
{
glyphname = multiply;
lastChange = "2024-04-18 12:44:07 +0000";
layers = (
{
layerId = "DC66AB0F-19FD-4F06-8C39-5D32AA939720";
shapes = (
{
closed = 1;
nodes = (
(417,965,l),
(734,648,l),
(1051,965,l),
(1153,863,l),
(836,546,l),
(1153,229,l),
(1051,127,l),
(734,444,l),
(417,127,l),
(315,229,l),
(632,546,l),
(315,863,l),
(315,863,l)
);
}
);
width = 1261;
}
);
unicode = 215;
},
{
glyphname = equal;
lastChange = "2024-04-18 12:44:07 +0000";
layers = (
{
layerId = "DC66AB0F-19FD-4F06-8C39-5D32AA939720";
shapes = (
{
closed = 1;
nodes = (
(1045,494,o),
(793,494,o),
(501,494,cs),
(432,494,o),
(455,615,o),
(562,615,cs),
(853,615,o),
(1107,615,o),
(1397,615,cs),
(1472,615,o),
(1442,494,o),
(1337,494,cs)
);
},
{
closed = 1;
nodes = (
(1234,870,o),
(981,870,o),
(690,870,cs),
(607,870,o),
(595,991,o),
(750,991,cs),
(1042,991,o),
(1294,991,o),
(1586,991,cs),
(1678,991,o),
(1625,870,o),
(1526,870,cs)
);
}
);
width = 1510;
}
);
unicode = 61;
},
{
glyphname = notequal;
lastChange = "2024-04-18 12:44:07 +0000";
layers = (
{
associatedMasterId = "DC66AB0F-19FD-4F06-8C39-5D32AA939720";
layerId = "4792E82C-863D-41BF-946D-D7A1CFF25D31";
name = img;
width = 1510;
},
{
layerId = "DC66AB0F-19FD-4F06-8C39-5D32AA939720";
shapes = (
{
closed = 1;
nodes = (
(1398,1206.667,o),
(1240.167,937.333,o),
(1082.5,668,cs),
(924.833,398.667,o),
(767,129.333,o),
(609,-140,cs),
(590.333,-173.333,o),
(562.333,-185,o),
(533,-185,cs),
(494.333,-185,o),
(456,-163,o),
(456,-131,cs),
(456,-124.333,o),
(457,-114.333,o),
(461,-109,c),
(617.667,162.333,o),
(773.333,432.167,o),
(928,700.5,cs),
(1082.667,968.833,o),
(1238.333,1238.667,o),
(1395,1510,cs),
(1413.667,1540.667,o),
(1444,1554,o),
(1476,1554,cs),
(1526.667,1554,o),
(1557,1527,o),
(1557,1491,cs),
(1557,1484.333,o),
(1556.667,1479.333,o),
(1556,1476,c)
);
},
{
alignment = -1;
ref = equal;
}
);
width = 1510;
}
);
unicode = 8800;
},
{
glyphname = greater;
lastChange = "2024-04-18 12:44:07 +0000";
layers = (
{
layerId = "DC66AB0F-19FD-4F06-8C39-5D32AA939720";
shapes = (
{
closed = 1;
nodes = (
(955.333,467.333,o),
(618.333,326.667,o),
(277,184,cs),
(271,182,o),
(265,181,o),
(259,181,cs),
(227,181,o),
(202,205.333,o),
(202,240,cs),
(202,280,o),
(236,331.667,o),
(332,365,c),
(466,419,o),
(599,472.833,o),
(731,526.5,cs),
(863,580.167,o),
(996,634,o),
(1130,688,c),
(1030,742,o),
(930.667,796,o),
(832,850,cs),
(733.333,904,o),
(634.333,958,o),
(535,1012,cs),
(503,1029.333,o),
(490,1056.333,o),
(490,1087,cs),
(490,1140.045,o),
(526.602,1195,o),
(573,1195,cs),
(579,1195,o),
(585,1194,o),
(591,1192,c),
(1347,766,ls),
(1376.333,748.667,o),
(1393,726.333,o),
(1393,705,cs),
(1393,673,o),
(1363.333,640.667,o),
(1298,610,c)
);
}
);
width = 1355;
}
);
unicode = 62;
},
{
glyphname = less;
lastChange = "2024-04-18 12:44:07 +0000";
layers = (
{
layerId = "DC66AB0F-19FD-4F06-8C39-5D32AA939720";
shapes = (
{
closed = 1;
nodes = (
(876,325.333,o),
(629,467.333,o),
(381,610,cs),
(359,622,o),
(348,640.333,o),
(348,665,cs),
(348,703.667,o),
(375.333,742,o),
(434,766,cs),
(607.333,836.667,o),
(779.833,907.5,o),
(951.5,978.5,cs),
(1123.167,1049.5,o),
(1295.667,1120.667,o),
(1469,1192,cs),
(1477.667,1195.333,o),
(1485,1197,o),
(1491,1197,cs),
(1516.333,1197,o),
(1531,1177,o),
(1531,1149,cs),
(1531,1103.384,o),
(1490.17,1045.134,o),
(1406,1008,cs),
(1270.667,954,o),
(1136.167,900.667,o),
(1002.5,848,cs),
(868.833,795.333,o),
(734.667,742,o),
(600,688,c),
(698,634,o),
(795.667,580.167,o),
(893,526.5,cs),
(990.333,472.833,o),
(1088,419,o),
(1186,365,cs),
(1224.667,342.333,o),
(1240,316.667,o),
(1240,290,cs),
(1240,234.802,o),
(1183.441,179,o),
(1143,179,cs),
(1134.333,179,o),
(1128,180.667,o),
(1124,184,c)
);
}
);
width = 1329;
}
);
unicode = 60;
},
{
glyphname = plusminus;
lastChange = "2024-04-18 12:44:07 +0000";
layers = (
{
layerId = "DC66AB0F-19FD-4F06-8C39-5D32AA939720";
shapes = (
{
closed = 1;
nodes = (
(659,577,l),
(659,233,l),
(518,233,l),
(518,577,l),
(205,577,l),
(205,710,l),
(518,710,l),
(518,1054,l),
(659,1054,l),
(659,710,l),
(973,710,l),
(973,577,l),
(973,577,l)
);
},
{
closed = 1;
nodes = (
(239,-56,l),
(239,83,l),
(940,83,l),
(940,-56,l),
(940,-56,l)
);
}
);
width = 1076;
}
);
unicode = 177;
},
{
glyphname = asciitilde;
lastChange = "2024-04-18 12:44:07 +0000";
layers = (
{
layerId = "DC66AB0F-19FD-4F06-8C39-5D32AA939720";
shapes = (
{
closed = 1;
nodes = (
(1240,1391,l),
(1144,1249.667,o),
(1042.333,1188,o),
(925,1188,cs),
(870.333,1188,o),
(801,1207,o),
(717,1245,c),
(631.667,1291,o),
(567.333,1316.333,o),
(524,1321,c),
(451.014,1321,o),
(393.883,1296.029,o),
(326,1220,c),
(243,1297,l),
(339,1438.333,o),
(433,1495,o),
(553,1495,cs),
(603.667,1495,o),
(673.333,1473.667,o),
(762,1431,c),
(847.333,1381.667,o),
(918,1358,o),
(970,1358,cs),
(1031.333,1358,o),
(1081,1386.333,o),
(1153,1469,c)
);
}
);
width = 1393;
}
);
unicode = 126;
},
{
glyphname = logicalnot;
lastChange = "2024-04-18 12:44:07 +0000";
layers = (
{
layerId = "DC66AB0F-19FD-4F06-8C39-5D32AA939720";
shapes = (
{
closed = 1;
nodes = (
(92,1018,l),
(92,1169,l),
(1446,1169,l),
(1446,338,l),
(1270,338,l),
(1270,1018,l),
(1270,1018,l)
);
}
);
width = 1636;
}
);
unicode = 172;
},
{
glyphname = asciicircum;
lastChange = "2024-04-18 12:44:07 +0000";
layers = (
{
layerId = "DC66AB0F-19FD-4F06-8C39-5D32AA939720";
shapes = (
{
closed = 1;
nodes = (
(1124.667,813,o),
(1125,810.833,o),
(1125,808.5,cs),
(1125,806.167,o),
(1125,804,o),
(1125,802,cs),
(1125,751.679,o),
(1066.063,712,o),
(1018,712,cs),
(988.667,712,o),
(963.333,727.333,o),
(958,762,c),
(938.667,842.667,o),
(919.667,923.167,o),
(901,1003.5,cs),
(882.333,1083.833,o),
(863.333,1164.333,o),
(844,1245,c),
(685.374,1078.025,o),
(584.6,968.842,o),
(428,804,c),
(373.333,741.333,o),
(317.667,717,o),
(279,717,cs),
(252.333,717,o),
(233,729.667,o),
(233,751,cs),
(233,764.333,o),
(241.333,782.667,o),
(260,804,cs),
(459.024,1017.039,o),
(596.862,1164.19,o),
(791,1372,c),
(996,1372,l),
(1016.439,1274.915,o),
(1040.477,1179.406,o),
(1060.5,1093.5,cs),
(1081.616,1002.908,o),
(1103.93,910.333,o),
(1124,815,cs)
);
}
);
width = 1070;
}
);
unicode = 94;
},
{
glyphname = integral;
lastChange = "2024-04-18 12:44:07 +0000";
layers = (
{
layerId = "DC66AB0F-19FD-4F06-8C39-5D32AA939720";
shapes = (
{
closed = 1;
nodes = (
(645,1062,ls),
(809,1425,o),
(1016,1669,o),
(1235,1669,cs),
(1299,1669,o),
(1361,1650,o),
(1419,1608,cs),
(1460,1579,ls),
(1475,1567,o),
(1476,1544,o),
(1469,1526,cs),
(1456,1489,o),
(1415,1450,o),
(1376,1450,cs),
(1366,1450,o),
(1357,1453,o),
(1349,1458,cs),
(1333,1468,ls),
(1283,1500,o),
(1237,1517,o),
(1194,1517,cs),
(1065,1517,o),
(973,1366,o),
(835,1062,cs),
(452,216,ls),
(313,-88,o),
(127,-245,o),
(-53,-245,cs),
(-115,-245,o),
(-179,-232,o),
(-242,-207,c),
(-283,-179,l),
(-299,-165,ls),
(-320,-147,o),
(-324,-127,o),
(-315,-105,cs),
(-301,-66,o),
(-252,-28,o),
(-213,-28,cs),
(-200,-28,o),
(-190,-32,o),
(-180,-40,cs),
(-153,-62,ls),
(-116,-93,o),
(-75,-109,o),
(-32,-109,cs),
(54,-109,o),
(147,-42,o),
(210,98,cs)
);
}
);
width = 566;
}
);
unicode = 8747;
},
{
glyphname = mu;
lastChange = "2024-04-18 12:44:07 +0000";
layers = (
{
layerId = "DC66AB0F-19FD-4F06-8C39-5D32AA939720";
shapes = (
{
closed = 1;
nodes = (
(1170,239,l),
(1079.503,136.163,o),
(943.251,41.844,o),
(825,-2.5,cs),
(701.866,-48.675,o),
(609,-29.574,o),
(609,94,cs),
(609,124.667,o),
(614.333,160.333,o),
(625,201,c),
(556.668,98.502,o),
(419.472,-25,o),
(224,-25,cs),
(189.333,-25,o),
(158,-20,o),
(130,-8,c),
(-16,-371,l),
(-32.426,-406.591,o),
(-81.184,-438,o),
(-128,-438,cs),
(-189.333,-438,o),
(-211,-410.667,o),
(-211,-376,cs),
(-211,-349.333,o),
(-195,-315.667,o),
(-179,-289,c),
(-97.667,-133,o),
(-40.5,-17.5,o),
(1.5,72.5,cs),
(43.5,162.5,o),
(71.833,227.833,o),
(96.5,284.5,cs),
(119.154,336.542,o),
(143.474,394.616,o),
(168.5,446.5,cs),
(195.833,503.167,o),
(228.333,566.667,o),
(279,656,cs),
(307,706.667,o),
(344.333,727,o),
(387,727,cs),
(430.198,727,o),
(473,705.019,o),
(473,667,cs),
(473,660.333,o),
(472,654,o),
(470,648,cs),
(461.002,617.407,o),
(415.139,550.417,o),
(363.5,464,cs),
(315.079,382.969,o),
(268.835,283.45,o),
(265,201,cs),
(265,177,o),
(277.333,153,o),
(308,153,cs),
(480.438,153,o),
(626.896,369.804,o),
(699,506,cs),
(748.845,595.196,o),
(769.245,728,o),
(858,728,cs),
(906,728,o),
(936,692.667,o),
(936,650,cs),
(936,615.382,o),
(890.613,531.341,o),
(844,442,cs),
(795.445,348.936,o),
(752,245.88,o),
(752,171,cs),
(752,147,o),
(766.667,135,o),
(796,135,cs),
(837.333,135,o),
(902.167,160.167,o),
(969.5,203.5,cs),
(1036.833,246.833,o),
(1108,307,o),
(1160,375,c)
);
}
);
width = 928;
}
);
unicode = (181,956);
},
